<mxfile host="Electron" agent="Mozilla/5.0 (X11; Linux x86_64) AppleWebKit/537.36 (KHTML, like Gecko) draw.io/24.7.5 Chrome/126.0.6478.183 Electron/31.3.0 Safari/537.36" version="24.7.5">
  <diagram id="XLTPmS90cfMGWECsmG49" name="Page-1">
    <mxGraphModel dx="1434" dy="870" grid="1" gridSize="10" guides="1" tooltips="1" connect="1" arrows="1" fold="1" page="1" pageScale="1" pageWidth="1169" pageHeight="827" math="0" shadow="0">
      <root>
        <mxCell id="0" />
        <mxCell id="D95p7JKsQU0srdKd4rBZ-41" value="Couche non nommÃ©e" style="locked=1;" parent="0" />
        <mxCell id="8qC0rJA6cFFnDSMXWFCL-1" value="" style="rounded=0;whiteSpace=wrap;html=1;opacity=50;" parent="D95p7JKsQU0srdKd4rBZ-41" vertex="1">
          <mxGeometry x="10" y="10" width="1150" height="790" as="geometry" />
        </mxCell>
        <object label="rare" id="8qC0rJA6cFFnDSMXWFCL-7">
          <mxCell parent="0" />
        </object>
        <mxCell id="oEuxszejH2iOCZYbAW9u-7" value="" style="rounded=1;whiteSpace=wrap;html=1;" parent="8qC0rJA6cFFnDSMXWFCL-7" vertex="1">
          <mxGeometry x="50" y="80" width="220" height="120" as="geometry" />
        </mxCell>
        <mxCell id="oEuxszejH2iOCZYbAW9u-8" value="Modification variables" style="text;html=1;align=center;verticalAlign=middle;whiteSpace=wrap;rounded=0;fontSize=20;" parent="8qC0rJA6cFFnDSMXWFCL-7" vertex="1">
          <mxGeometry x="60" y="40" width="200" height="30" as="geometry" />
        </mxCell>
        <mxCell id="IBk09pff3MUupUDNmARx-25" style="edgeStyle=orthogonalEdgeStyle;rounded=0;orthogonalLoop=1;jettySize=auto;html=1;sketch=1;curveFitting=1;jiggle=2;curved=1;exitX=1;exitY=0.75;exitDx=0;exitDy=0;entryX=-0.004;entryY=0.418;entryDx=0;entryDy=0;entryPerimeter=0;" edge="1" parent="8qC0rJA6cFFnDSMXWFCL-7" source="oEuxszejH2iOCZYbAW9u-7" target="IBk09pff3MUupUDNmARx-32">
          <mxGeometry relative="1" as="geometry">
            <mxPoint x="630" y="290" as="targetPoint" />
            <Array as="points">
              <mxPoint x="270" y="290" />
              <mxPoint x="560" y="290" />
              <mxPoint x="560" y="282" />
            </Array>
          </mxGeometry>
        </mxCell>
        <mxCell id="IBk09pff3MUupUDNmARx-0" value="" style="shape=image;verticalLabelPosition=bottom;labelBackgroundColor=default;verticalAlign=top;aspect=fixed;imageAspect=0;image=https://www.ris.world/wp-content/uploads/2018/09/update.jpg;" vertex="1" parent="8qC0rJA6cFFnDSMXWFCL-7">
          <mxGeometry x="54" y="90" width="125.45" height="70" as="geometry" />
        </mxCell>
        <mxCell id="IBk09pff3MUupUDNmARx-41" value="" style="shape=image;verticalLabelPosition=bottom;labelBackgroundColor=default;verticalAlign=top;aspect=fixed;imageAspect=0;image=https://cdn-icons-png.flaticon.com/512/73/73989.png;" vertex="1" parent="8qC0rJA6cFFnDSMXWFCL-7">
          <mxGeometry x="171" y="114" width="92" height="92" as="geometry" />
        </mxCell>
        <mxCell id="oEuxszejH2iOCZYbAW9u-0" value="infra" parent="0" />
        <mxCell id="IBk09pff3MUupUDNmARx-32" value="" style="rounded=1;whiteSpace=wrap;html=1;" vertex="1" parent="oEuxszejH2iOCZYbAW9u-0">
          <mxGeometry x="620" y="240" width="320" height="100" as="geometry" />
        </mxCell>
        <mxCell id="IBk09pff3MUupUDNmARx-31" value="" style="rounded=1;whiteSpace=wrap;html=1;" vertex="1" parent="oEuxszejH2iOCZYbAW9u-0">
          <mxGeometry x="620" y="60" width="510" height="160" as="geometry" />
        </mxCell>
        <mxCell id="IBk09pff3MUupUDNmARx-11" value="" style="shape=image;verticalLabelPosition=bottom;labelBackgroundColor=default;verticalAlign=top;aspect=fixed;imageAspect=0;image=data:image/png,iVBORw0KGgoAAAANSUhEUgAAAisAAAIACAMAAAB0G9zvAAAABGdBTUEAALGPC/xhBQAAAAFzUkdCAK7OHOkAAAMAUExURUdwTP//APmjJvmgJvmgI98/KflsIuRIKOJCKf9yAPVjJv8AANxDMvBYJt9DKfmjJPuhJPmjJvluJvmgJvRfJvmiJf+jIvp0JeZFLeNBKflqJvmgJflwJfyFJPmhJfyJJeREJ+BAJuNDJvyDJfyWJfqgI/mjJfhnJvyPJfyTJfydJPycJf+sKuFCKPlrI/mgI/+fJ/pyJPyBJfqiJuJCKPluJvt1JPBbJvRcJvmjI/ygJeBDKP+jJfyXJP+lKvyjJflqIuNDJft4I/mgJv+iJd9DJfuiJf6iJOFALONAKeJCKPyLJvptJPhmJeRAJuRHJfuiJfqiJeFCKPyiJOJDKPx+Jf+kJOJCKflqJuJCKPybJeZKJuJCKPprJfyeJO1TJ/toJuJDJ91EIeJCKOJCKPdkJvqjJfyiJfujJuJCKPlvJvlrJuFCKPuiJfqhJvltJvyjJeFCKP+kKPlrJeJCKO9WJ+JCKPyjJepRKPyjJOJCKPugI/yjJedIJ/yeJvuhJfx6JvqkJvuiJvtpJOpSJvyZJOJEKPyOJfyjJf+jJeJCKOBDJeNDKOJCKOJCKPyjJfyjJfyjJvltI/uhJvmiJPlyJvhuIuBBKONAJeJDKOJFJ/+iJvuiI+FCKPyhJv+jJfuiJPujJeFCJuJCKPmjI+FCKeJBKf+hIflwJeFCKPqiJeRIKOFCKPuiJvyjJfmjJ+FCJ/ujJOJDKPmiI+JCKOJBKelNKOtQJuNCKeNCK/mgI+JDKPuiJeJCKPujJeJDKPyiJPtoJeBBJ/yjJfyjJPyiJvyiJuFCKOJCKONDKPyeJt9DKfujJvlqI/hsI+FDKfdnJvuiJfqjJftpJPyiJeFDKftrJfx9JP+iJ/mjI/yjJftpJftqJvyiJudMJvx7JPyiJN9AJ/+fH+JDJt9DKPyhJuJCKOdPJ+hNKPhwI+tVJfx8JeFCJ/FfJvdoJPx8JvuiJuJCJ+RGJv+qIvyQJft4JPRjJfyhJuhNKOpSKPh5JPRtJvxtJuJDKfyjJvxuJqlypeAAAAD8dFJOUwAB+P77/fvJUALBAQXC/vXg/f78wPAK4gr4/fDwxOjDFPXvx8Hm6sjAwMzJA7f09AblyuJA/N3BwPrUGRfDEmf5+tj2FPueKRHxvMHlxQ3njzjQvqzNHpr3jMfa3uHSyM46B3mSw6NemIf38cFG5PesywzpYcVyWcvFftjV48/a1TTc0cjEJ8BvG5/0WW2xfnS67d0w6vTq+UnrIdgzziRSiuEv8qbFD+lFqN5dTmMtIUtl7Zfm0s83Hetpg6KTK8vU2nrRs8hNglPV9kLu8vLKhjzZa1bc0ibst9zWd9XTsO0I6OTC19DW7cXR1MDL0D+p7w++2sRVfXLDk8sjYYUAACAASURBVHja7Jz7c1bVFYYRiCUmBAQvoIIBREWJFxpRm94CpYaoqGk0jUaUBK2pEUzF2MZ6qRdUSELvQCu1DRKlUktjqEGa4lBroFSZjsXpdFBLSTPjlNHSX9rOdJ8WkEtIvvN9+77WXme9f8CZWe96vn3YR/MMGsTh4Enutor6qqr6ju5c7sJycjor61o39LY0F5EYJ7t9jziUnnU5vF6b6aw/XO2sivzwxykpEH1SPoYXbO9QqcnqU+2GztDnGdMmjkkpv4espfHYapeuCnyeLtEv83nHltLdv9qekqDnKew/j8haxVu2kupWQet3WDBgHrGP12wliwZWOzbkf99uzBo4UHE+79lG6gZWK5oDnqchxTxiEe/ZQoryUlRbF/BAbalYKeBFW8imVNVmFdFiXxSX8KbNU5qqWtFOi30h1vGmjZOflbLaUmLsixZetYtb0MFP/SW02Bdj5/CuHXyMCPriEMO+EDt514aZUyxondlx7PPnOOM0xVW7IswzuySOfTGB/2uzYVriqhVNQc6zLnYeMYy3bfYKGhtbbTkx9kUXr9soO+Or3T6GFvtiNv9fLEbZF1+t2EaLfSFW8r4NUr00TbVriLEvlvDCDdKdrtod1cHNM2ZCuoF280vIIF3pqhXdwc0zLO08Yi1vXDu5swWtMzs9+6KDV66dlemrnZhLi32xJ5t3rpsKQevMzsC+EPN457o/w+UZqq0IbKAlmVjhv/3QTWGmapdPDYv93ZkGauU/V9XM/EzVisKg5lmbcR7RyVvXSvYGQevM7sjMSi2vXSvzMle7IaSLQ/aezANV8dq1Upm52qAuDhLsC7Ga966RnFaJaitJ/fNrf7by4jWySqbaqhxa7IteXrxGamWqFeEIBjql5hGLefPqP8MtUtXWEmNfNPLqlbNartotwbyEquQGKuPVK2erXLViMy32hVjPu1fNXkHrzJZlX9Tw7hWzWLbaUM7sXtmB6nn5iqmRrTaQi4M0+yJvI29fLWWC1pndKD1P0M4qiKyXr7aeGPtBO6sg0iBfbRAXBwX2Q3ZWgaRNodsGUv/82p9NvH+FbFSpti2AgepVBiplABTSrFKtwH9x2JinMs+sfCZAPnVKrDQTY59ltwopUvoZBnBxUGOfZbcKaVerNgv7mV2UpTbQCvYMSqdUrVr0sttNivOw7FY6+Yo/Q/Rntir7LLuVziLVapHLbvNnqQ60nT2DkmkRtM5sZfZZdiubOSsErTO7QJ0Vlt3KpUm9WtSCcg32xdJq5kAm5erVopbdrtOYh2W3UhmzXaNazLLbFh1WWHYrk2061SIWlGuxH56zCiRrdKpFLLvdqTUPy24lklZpG6Lsdp8eKxWMQsZ061U7u5oW+6E5q0CyRNA6s4dpzhOYswoiuRM1q8Uqu+3SZYU9g5myUrdapBcHbfbFBvYMZkiFbrVIZbfa7LPsNlOmLteutoMY+0E5qyBSqF8tyouDAfuilXFIm/n61aK8OBiwH5KzCiISStuwLg4m7LPsNm3mmVTbg092m2PCvtjCQKRJpUm1CAXlRuyz7Dbtz7DVqNpKYuyz7DZNVplVi092a8a+2MtIxKZW0DqzDdln2W2aV9AWw2pribHPnsHYbDatthfZS8iUfZbdxqbRtFpkstvVxvOw7DYue42rxSW73WrOSgNTkTKLzastI8Z+EM4qiNSYV4vq4mCBfZbdxqTeQrc1xNhn2W3KrLdRLSbZbZmNgVh2myoNNqpF5Bm0wj7LblOmzUq3DcTYZ9ltimy0U20bMfZZdpsizXaqFVjObDWlbbDOKpDUWWKlmRj7LLsdEGWfIPYz2xb77BkckHZb1SKR3RbZYp9ltwNSYKtaJLLbTdbmQe2sgkjJLGvV4pDdltpjpZzxOCaL7FWL4uJgkX2W3fZLi71qUchuLbKP2VkFER2tJ+qLg032ETurINJks1oEslur7IsdLLvtk3Kb1SIQlFtlX4huJuRIxkywWu0+Yuyz7LZPttmtFlx2q6e0jQ/Lbo9mjd1qwQXlltln2e3RVO+wXO0aYuyz7PZIum1XCyy7tc4+y26PZImgdWZbZ59lt4ejr/WMDazstss+Kyy7/Shr7Ve7O5cW+yy7PZQK+9WCym5XOpiHZbcHY6L1jE0HMfZZdnswhS6q3TOVFvuiikEZZKj1RHhmO2GfZbcHkt3jpNr5xNhn2e0gY61nXMBkt2ZK2/iw7NZY6xmbTlrsY3NWgfwMqxxVW0mMfWTOKoisclUtlOzWFfssuzXXesZmNS32WXZrrLSNz1Zi7CdedrvZXbW9IAO5Yx+Vswoije6qBbk4OGQ/8bLbMofVNhJjP+Gy28Uuq4WQ3e51OVCyZbc1gtaZ7ZT9hMtu6512W0OM/UTLbte7rbaeGPuJlt02uK3Wu+zWMftYnFUgaXPcbQMx9pE4qyBS5LraNmLsJ1h22+y62jy/sltbStv4JFd2W+e6Ws+CcufsJ1d2a01pi+XMds9+YmW37e6r9Xpx8MA+BmcVSAoErTPbA/tJld3a1HrGxqfsttQHK8mU3a7zUW1xCS324Z1VIGnxUa1H2e0iL/MkUnY7Z6yXaluIsZ9I2W2Tn2q9XRw8sZ9I2W25n2q9yW49sZ9E2a1lpW189hFjH9hZBZFhvqr1dHHwxn4CZbdrfFXrSXa7zds8oM4qiFTP9lZtFzH2Eye7Xemv2tk+zmz7Stv4LM9OFitL/FXrRXbb7XGehMluc3cLWme2T/YTJrtd67NaD7JbF0rb+CRLdtvhs1oPFwev7CdLdutG6xkb97LbCr+sJEl2W+i32j2uLw7ZftlPlOx2vqB1ZntmP0myW0dKW7gz2zf7CZLddvquttXtxcGV0jY+yZHdVvqu1rHsdp73eRIju3WmtIU6s/2znxjZ7Wr/1bqV3fpnH8RZBZGt/qt1KrtdBTBPUmS3vQDVupTd1kKwkgzZ7WaIal0KyrdADJQM2W2joHVmg7CfENltGUi1jcTYT4TsdjFMtWXE2E+E7LZG0Dqzgdj37awCSb2gdWZDsZ8A2e1GqGrribGfANltA1S1jmS368HmoS+7bRO0zmw49snLbovyBK0zG459r84qiGyCq9bJxQGQfZ/OKpCUwlXrRHbbDDiPR2cVRHxoPWPjQnZbB8kKbdltO2S1Di4OoOwTl90WQFbrQHYLyj5t2W1JMWi1BcTYJy27XQdbbfEcWuyTlt22CFpnNjD7lGW3vrSe3i4O0OwTlt3uhK7W8sUBnH0/ziqQ7IOu1rLstgl8Hi/OKoj403rGxq7sthyeFaqy22Hw1S6tpsW+D2cVSLrgq7UqKN+GYB6isluPStv42JTdrsHASgdJVlZiqNbixSEXA/vunVUgWYKhWosXBxTs05TdelXaxqeCGPskZbdrcVS7PJcW+6KHoOy2Q9A6s5Gw79pZBZGpewStMxsL+wRlt/OwVLvBzsUhGwv7BGW387FUa0l2W4hmHqfOKojktApaZzYe9p06qyDSiadaK7LbnB48A/USY6UWT7VWBOWI2KcmuwVQ2sbHhuy2EhMrtGS3qzFVu8XCSwgT+8Rkt1sxVWvh4oCKfWKy215U1ZpfHP7zMVT59zA6acJVrfmfYL1+6n8xZZegk5NQNXvag1cYonJFdP+XUY30AB1W3kJV7JToN4asLIuiT6Ea6VIyqDyAqtdpUfQjQ1Zei6LoTEwzPUqGlcsQtfq/6c/uX/QPjVB5Zv8TosEzEE016hoqrOxC1OrCRw4s+ptGrLxz4BHR5G/zS8h6rsF0rDx+cM+vG7Hy6sFnROedhmeuW4mwcikiVq78aM3RUwao3HDoGdEUPHNd8k8arDyKp9L3hh5a85MGrDx5mJUh0/BMNpwEKj8YhabQ740/vOa/GbDytcMPiU7H80nuAxKsDMdzUM89suUhn9RG5akhR54SPf1FLLMdT+IldCuij3BH8xltVv7Y5ynR42iGu5cAKhMvwdLmpL5L/pY2K1/o+5joSizTncOvIHuZPqLvjkd/WhOVz40+hpXL38Py4Whp+Kx8gKTL7488ZsfRi5qsvHjsY6Lx7yMZ8LHgUZl9PJKPcDf22/FvNVn5c7/nRA8iecleHTwr9yL51T3Rf8VDn9NC5bnL+z8Iyye5C7aHzso5OIr8cPSAFd+nxcqXooGZxC8hG5mwEEWNz78ycMN3a7HylxSsXDidX0IWcguOD1VzU2x45ikaqHxlcIonRY9cgGHKO1eEzcrVKFg5K9WCo39psHJfyich+SR3S9CojEXxg5uUesE/1WDl7tSPwvFJ7ragWXkMxUe4man3e+FflVE5ZUQMK0P/jmDQN2bxK8gsb46M2W/0M2VWfhz3qOjs5xGM+nLAqBTfiaDA82P3e7syK7fHPiuai+Cj4wkBs/JVjB/hjubkixRRuej0+IdFZ8HPek9WuKzcBl/f9SemWe9diqz8IkqXcfwS0k/WG+DlXZzuJIjuUGTl82lZGTGdX0LaeRn+I9wn0m737KlqLs2X0j4tGvkm9LxX5YXKyglIP8Idze+VWLkrw9OiG8EHfjdQVPLugW5uXKbl/lqJlTsyPS56AnrikwJl5ZfQxc0YnGm3k1Vkt9njM7Iy+kPgkW8OlBVok8YZCzLuNrpOgZV/ZH5c9MrFwEPfFCYrVwHXdp7Ebq9VYOVaiedFcz8LO/RlQaLyLjAq58qsduRx0qgct0DmgdCf5N7mV5DGR7ghUqv9hjQr10VyGccvIeXcDFrZqSfLbfYP0qz8RJKVmTP4JaSYm0AbW3i/5GYfkn4JfUfyidHHz4Cc/C1+BanlkGZFJj+XROW70k+Mzgf9a/8XwmPlbci+zpRf7DJJVn4l/8joXH4JqeQF0I9wQ+X3+nVJVp5WYOXE6wGH38WvIIW8P1lhr9GfJJW2KnkJUswSnGcQUGk76kGlvcrJbpcpPTP6HaCYJTTPIKTSdoraWuVkt6+pPRTSlRya7BZQaTtNcatSsttnVB8K6EoOTXa7C+4j3LOqW5WR3b6jzMrgh8EqGB4UKnBK24UPKW9VRnb7qvJTowVgruSwZLdgMieFj3BHk1l2e4PGU//P3t2+RpmdYQA/k6RChG0Sg5E6caTVZM1uqKOhlkhW7WojiwoRMZQF2/2ikRRfsBQrRuPLgpF+UDfGD6tELUIWIUoIdEFEFI0fxLVGRY0vVQTxpbhKreuXJZbu2mU1M5lzn3Pd9znPzLn+gDwzz33iyVw+8zvurORoYbfOSNt5JkPNjN22mfxYd5VclDYhZ6TtpgKTmS4ikLaUOLOSvw5bUOYSLmE005JM2G1dvtHPdWYlRwm7dUTajt1oNtKM2O0Vw587uN5RJRcd7NYVaVtlOtJM2O0i0x/sCmZ5N2xBw2eC8UQLZlBIW1LcwCzRwW7dkLbTJptPtIlE2pKWoZtKLirOoBvSdk+7xUT7aKQtJRVOrOQFEVkrTkjbIdYx7be/i0baUuLESo4KduuEtJ1nNc9hsdsmux/txkqOxibkhLS9Vmo3z9VE0paUCWETShMXpG1HpeU4h8Fu1+TZrpVDDiq5aGC3DjzBX/3edpyDB6ikLSWtDujWKGC3LkjbifbjPEwmbT2v5L6JwFpxQNpOAEwzLXablrT1vJKLAnYrvwVNg0wzHXbbjfjhg7XXxG/LA++Xijxpu6cYMs16OmlLSULcSvbfGRQnbV+9jxlmPEknbUmVnHSb7T92K07abgPNMg1224P68fIwy989XyripO3TEtQslxuQtl5Xcr5vQtKk7ZRe2ChTYrfVA7i1In18me/YrTBpO+IcbpSDz1KslfPAnz/Yvkf27viN3UqTthORozxhRNpSImwl+43dCpO246CTTIHdapC2HldyS7xeK7KSxos87CSHYreXsBeQtpK9dgbnS96J8hrwJBvMSFtKjolWck88XioPRX9r3kMPcgh2G0OvRuHjy66GLej7TILPcQh2uxB/CdlKzmNnUJK0XZyPn2O/IWlLiqSV7K8zKEnaTokzjPFt7LadY60UvZC7S5fDFvTtt7Omc4zxLex2N8s1BovL5e7TBl/Xyk25e/ABzxh3GJO2lAhayb46g4Kk7XimKZ55Y620MF1l8D9iN+pWzm9BZsyKTq4bk7aUCFrJnjqDYqQtzTom5bQ5aUtJ75Tc3oTESNtR7/ENsdOCtKVkuhTM4id2K0baVjHO8EfY7X7Oy4hVcmO93IROCb37qawz3GlB2npZyb3j4VKRIm3HxFlHuO6HtXKWd63kCR1f5iN2K4Q5NbfyjvAH7LaR+TqDNTIwi4/YrQxpa2Qdk3LFirSlRMhK9m8TEiJt57FPcJEVaUuKjJX8dY5uQZtq2Qf4GrutK+FfKzJW8qyPfFsrIqTtZwn+Ab7GbmcKXGlwtAjM8tizpSJC2hpbx6TssiRtKVnfLHDb3s3FLahKZH7fYbdzSkWuJXJ8mW/YrQRpO1VmfN9ht0eEriXyLRC/nMF/CDxxbGMdk/I/7LZPaq1IWMkLvForAqRt8xax8a1RydlSFxus4D++zC/slp+0tbOOaelheYA/7X9tj82pTUiAtJ0nOL1+mU/M/09VTm1C/KTttQLB4fXxfNkjbSXHDrP4hN2ye4LW1jEpLUihRyNxdpjlL94sFXbSFmAdU1KJAgV108pdyS3NnS1oouzoJkuvFXYr2R/slnsLmiA8udHqhPAV2Ss5X7BbbtIWYx0TUsz9/OTQ1N7hvYe+OIPMpC3IOiY9R9ktfcnBRAfrTfQFu/0ma0q416lXdeLX5LaS/cBumUnbbfJjm6nUPvmrVuXAJsRL2j4tkZ/afqX65a/KayX7gd2ykrYdA/Iza2H9LvMwH9VZKzkfsFtW0hZqHevmttxzcW+G1Ur2AbtlJW0nOphY3hw4mK0bTit5iQdrhVPSGOdiYK/l0j4X197GeDM9wG7n8727F7MdjCs+4/X3DuMOLl7AaCU/cb5UGEnbCzUufrWbgOenGvy3JV8ldzWbt6D3XQzrcIxXLM0URivZOXbLR9pOcjGqzh+d6R2rd/EK+GAW19gtH2nLYR1nzPq6N4j1BheLhQ1muZytW9AUF39anqx7C86emSf/IorYKrkNbtcKF2k7y0UJt6xsyEEfR6fLv4ziC0w31a0zyEbaOijhippiqY59Xy7/Sj5m8klOZeUWNF5+QJ3X0xzmfUB+N2Sykkc5dQaZSNsP5f9MaEiqdGlcJ/1iShdn3ybERNqWrxSvwFaoYVJ9vFT49QzwWMkusVse0pbTOk6dXXVq+DyTXr3nZnHcWZfYLQ9pK13CFewsVJkyY3VWVHLvOFsqPKTtVOGpbNmsdCJdtbBUcu6w219zvJ0xwh87lq1RejnaIvq6ZnNYySN+4WqtcJC2zetFJzK5SWlHuGqpKc+iTYiDtOW3jt8s9fcrSmSrFo7jy1xhtxyeoOyTcAeTipbG+5Ivj8FKdoXdMpC2AtaxbqmSpmrZIVi1lDBYyX92slQYSFvGA8eG5kadMsklwaf14ngr2Q12i/cEZazj71OrUaq4r1rwVrIb7PYifK1UyQ1Bs1RJU7XIPTOOt5JdOIN40lawhNMuVVJn7hmxVzoefZcXZMEW9GraIbFSZa2yzL0TUq8VfnzZL38mv1bQpO0qMeuYWKqkTnev0KuFW8l/EF8qPwcfGitXwpFLldTZLvWNZ/TxZfKbENoTlLKOEysUKIVSVQsYZpHHbsGe4B0h69iwVEmdhTI6Gfr4MmnsFkzadiRkSpW2QoVMl0zVAq7klkZ6CxKyjls3K3RmihiZ+6B/HH4l7AwujWAJV79G4SNTtWCt5C9FlwqWtBWxjg+tVSxJilQtUCtZ1hmEkrYi1vHZvYor3QKmHdRKlsVukaSthHWc359UfJGoWhKPgLdcErtFkrYS1nHFecWawtP8H/k3Ah8BkXQGkaStgHXcN0dxR6BqAVZy8wXXCpC0fcpefha0xRR/nh9mXyxAK1kOuwWStl8cY39caLeSyRHuP9GBVrLcJoQjbUewl3D1ZUoqczu5H9CCleVLIihpcDMr8bVKMEluMwxXyYlht/OjUsIxliqp08O8pcIquSdCSwVG2k7jfW41/3hSSaeOt2op+Bfo1t+M2BZ0gfdzJnep4qRqqfwCdPOFsFsUactrHQuUKi6qFpSVLIPdokhb1hIu70pMuUoXa9UCglkuR2kLWsx54Ni+3cplWKsWEMyyQWKtXIW8VFbreHmZcpvrjFULyEqWcAYxpO0IRmM4/lI5T7KBj4jHWMm3IuMJMpZw6xqVD+mpZHuHkOPLJLBbCGnLx6zkH69WfqRuF9ub3BaNTQhC2vJZxyufKW8Su82lyZQiji/bGoktiM86vjtD+ZSF7Uzv8xjASh77OfdaQZC2XNaxy1IlddYs46rkAFYytzOIIG25rOPpR5V/aZrsbSXHjd0CSFuuA8eclyqps/+kr5UcN3ZrT9qOGc1y60YfUJ6GqWoBWMm8m5A9abuKxzr2pFRJnRUsVYu9lXyRda1Yk7Y8zErJjmrlc3iqFmsrmRe7tSZtWQ4c86lUSVO17OSoWqytZE7s1pq0/ZDjQaDVM5T/2cxAnJXYHl/Gid3aeoIc1nHezJiKQjiqll5LmOV3jNitJWk7aiP+drUcVVFJEx7aPGcJs/A5g3+1LAsZmBVPSxWxqsXSSuZzBh/bvTC8dRw/oCKV5EF41WJnJfNht3ak7Rj4P8H3G1XUsiKB/nNtk5ebkB1pu6o1x0qVNFXLDXRh8MjHTcjKE4SXcDWXVCQT2wnuDays5D/+xkPSFm0dR6JUSVO1gP+FtarkeLBbK9J2E/aXKSqlSpqqpR772KiNlcyD3dp4go+wf9KdmauinbXQv/NtrGQe7NaCtAUfOHaiTEU9e88ib8h6i08dHNitDWkLLeF6u1UWBFu1WMAsI/3agqDMyqLtKjsCrVrMYZY//dSnLWga8JHT0tPVKlsypw93XwrMKzk8dvsT4+Ox9gC/+BDVUiVN1dKG+3RYYVzJ4Z3BB8YlHNA6Xt2lsiu798HujbGVjMduR7ov4WYfialsSxmuajG2ktHYrTFpew1mHUe+VElTtcBwkQmebEKmpG0H7BH2E/dUdgZWtRwyrOTQ2K0h5gQ7cGygW2VtqvtBxFWr4f/CgLHb+W6ZlawpVVLnPOg5ZMNKDovdPnRawmVTqcJbtZhVcjc92IJAB44VL1TZnzYISVN7zWhQUOzWiLQFHTh2+LnKhWCqloSRlYzEbo1I21cQ67goC0sVzqplo4mVjHQGn5isFYh13DlX5U5eIqoWI5gFiN2akLZPER8EG5Iql7J3naNKDucMmpC2U3rt3/WxHpVjqT5u/xtmcnzZKZee4IhzoVQxyrOV1vetfQ/928Mw7PaWixKu9HahysXMuGt96z52twkZkLb21nFOlCqpc8W6aqFXcludbUEvrN9tjpQqqXO0xfbfZLKVjMJuyaRteY1tqdIUU7mcsuW2nwrIlRzGGaSTtrbWced1let5aal1ko8vw2C3ZNJ2UihV7NNoWbVQKzkMdkv1BC2t48qesFAQVcs4B5vQ58Sv4VseOLarLiwTSNVS9II2NwR2SyRtZ1kdOFawszCsEVDVUlxOG9xH4lvQB1aN48KwQHBVC9FKtsdu/z1CroRb1hVWB7JqocEs9tgtjbTdlGdTqoSlga1aaFayPXZLIm1trOPO/WFhpMwB8w8LvaTjy2ydQRJpO8qihDsYSpW0Vct947s6nQKz2DqDJNLWnFmpXBGWxDBVyw7jL29SKjlb7JZC2k4NpQpXLtVIVHKfipG2Y0z31dpQqmSuWlYb3tw8wvFlds7gp/oXajaVOLdsDktBIzNnG5I1+jCLHXarT9oaW8fL1oR1oJW5Z8xuMMFKtsFuCaStIbMyOZQq2rm3nLuSs9mE9D3BTWZntJ0MpQol3UZfjtC3km2wW21P8LNEKFUkst2oahmtDbM8MF4qv/2K1TpOhFKFnEKjqmV9Mzt2+yVrCXcjlCpiVYvu8WXm2O1IxhIulCqm6TKpWnS/BWKK3eqStibWcWsoVUSrFl0r2dQZ1CRtmw1OHq4PpYpw1VKh94s/n3ULMrCOD60N47asWk7Qn/nQq+QecpK29BLu7N4wbPuqZYB626sYN6F/6lnHVFI+vz+UKpCqZRH1xmvBLGbYrZYnSLaOQ6kCq1pOE39N41owixF2q0Pakq3jvjlhyLAsJOKNrTqVnAl2q0XaEpmVgrZYmDAwzw/T7r+OlXyVaQsiWsf7dofxgnOkCF7JGWC3GqQt0ToOpYrzqqX2Dgd2q0Ha0qzjeChVWJIkVS2JDgbs9gm4hAulClt6jhHmoGElk7HbzKTttlCqRLFqyVzJUZ3Bv0Gt44rzYaDeVC0ZKzkqdpvRE+wYCKVKNKuWjFYyFbvNRNoSrONQqnhWtWS0kmmb0AZcCRdKFe+qlkxW8ifQLUifWakvC1MUyvVOUCVHw263ZijhdB/Mir8MIxSsWhp0/yx4inMGM5C2F3QfD14XShXhqkXzv/0rO2CbUAZPUPPAsfzj1WF6wqnbhbCSKdjtJwjrOJQqLhK7rVe1DA+zPAaRtprW8d1QqjiqWtrtYZaLmC3ov+3dzUsUYQDHcVkWIQ/pumsLrax4URApTcqKfElDDwoVokiiePGFQFe8pCiYL5HRQXslKFJDUIyS8CBEiNHLwcrKPKRRSiCpHZQShfIlVvdldvaZZ56ZCdyZ+f3+AeEZcfTr7GfYrGPDJKLKbq2vnIlypCW59Pf/4xaUzhThGgdxyXZxFSyf2Aob/w/YLZW0ZYpwlYgqKkgt58KVY7c00jaK5WP5iCoBkFoYfqtcUY7dUkjbDAbruL4Al0odqcWcrxS7pZC2kdXiVjOiinpSy1SiQux2UYl1XL2MixQwqaVTFNsaS1eG3cYqiHCzqbhEAbTmFvlJjuUmFO2QzawY0hBVAmu15bKTHIsz2Cbbo3Y5wAAAA6BJREFUOkZUUWFqycxQgN0KkbbnGxBV1LiuURErOVI2dnvngDzrOKIblyVAU0sPPbUIvb5M/CZUJ+9JuDlElcBdlV2OlXxdFLtdlWMdmzoQVQI6tUxTr94heditAGlLf+FY0gQuR6CnFtpTLTarLOx2WIZ1XIOoooLU0iTZShbDbkMkW8eIKhpILSkysFsyaUuLcC+zcRlUsgu9wpcxSrozSCJtt45QvsYIooomUgvx9WW5km9BDuF/Ktge4QJoJLUQreR5iaQtJcIhqmgotZBeX2aRSNrmIKpoaaemJcAsxdI8wRkjooq2Uku7kf31ZUVSPMFbdkQVre3mPeYkZ5HgCQpZx5mIKireviwB/qSQHbu1sEY4RBW1pxYbo5X8kPkWJGAdj3zHaat8d1+zwSxHWW9BZOt4CFFFA4v/SLIhjTOM2C3/FnSb+CHqvCs4aE3sLenZAfsCG3b7icE6Nr9AVNFManlFspIPsziDDxis47CzOGINrd0gmuSes3iCS4SXRg/04Xy1lVoaxKxkMnbrS9r2+yPvoY8RVXSQWnhWcrIoaRtcgqii19TS4vNRjlbC90qyCLNyBlFFo6mlnprkSNhtKzXCTT3BoeonteTQsdvTVOsYUUVXqcX4k4rdcj3B8TBEFX0tlZdaYvpp2G2psHWMqKK/1MK1kvk3oV/7BSPcwG+cpB5SS6MQzPJB+BaUb0JUQWrhwCx87LZUwDq+/xmHqJutRZCt5EUB0jb4uE9UScAJ6mgF9UQrOVaAtOVGuBhEFb2llmcmwuvLHNFE0pbLrOSdwOHpbssclvYyyRm8WuhvHRu/7sHJ6TG1zHq72hIBu130t45vIKrodZOeHxhPE/2xWzdpG4cnVbCgoEHP3zclLiu5zfOt8sbBs45DKxBVdJ1aKnlJroxP2npeOIaoovt123yS3LuTvqStNQJRBeOnFpeVXOdD2jpcj17GVOGgMGdqMXOs5DIuaetmVq4hqmCu1JLktZLd2O2q94Vjxk5EFcyTWmq8VvKwl7TN2EY5WppxQBhnac7UYsr3YLfDHuu4vBang/ls0PlUy5DVjd2GrK+HO63jgxU4Goy/7dQyVriD3TpJWyezMtqFg8EIc6aWlB3i6ceOddyTgFPBiCuYc1rJxduShrV3046oggkuvsNsuLg+v7E319G0OY2ogtE2kVS9YNn4tnXpGKIKJrLUmrgvG5YcRBWMYWkrRX+yEFUwlmX/XcMh+O8foH/Q3smI8w4AAAAASUVORK5CYII=;" vertex="1" parent="oEuxszejH2iOCZYbAW9u-0">
          <mxGeometry x="650" y="70" width="61.79" height="57" as="geometry" />
        </mxCell>
        <mxCell id="IBk09pff3MUupUDNmARx-12" value="" style="shape=image;verticalLabelPosition=bottom;labelBackgroundColor=default;verticalAlign=top;aspect=fixed;imageAspect=0;image=https://connect.redhat.com/s3api/prod-s3api/Artifactory_HEX1.png;" vertex="1" parent="oEuxszejH2iOCZYbAW9u-0">
          <mxGeometry x="750" y="73.10000000000001" width="81.79" height="50.8" as="geometry" />
        </mxCell>
        <mxCell id="IBk09pff3MUupUDNmARx-13" value="" style="shape=image;verticalLabelPosition=bottom;labelBackgroundColor=default;verticalAlign=top;aspect=fixed;imageAspect=0;image=https://connect.redhat.com/s3api/prod-s3api/1590534018-logo-url-5ecabc9ab58ac77d83eb98e3.png;" vertex="1" parent="oEuxszejH2iOCZYbAW9u-0">
          <mxGeometry x="850" y="73.1" width="56.9" height="56.9" as="geometry" />
        </mxCell>
        <mxCell id="IBk09pff3MUupUDNmARx-14" value="" style="shape=image;verticalLabelPosition=bottom;labelBackgroundColor=default;verticalAlign=top;aspect=fixed;imageAspect=0;image=https://static-00.iconduck.com/assets.00/sonarqube-icon-512x125-4mf3yt3g.png;" vertex="1" parent="oEuxszejH2iOCZYbAW9u-0">
          <mxGeometry x="930" y="90.9" width="90" height="21.97" as="geometry" />
        </mxCell>
        <mxCell id="IBk09pff3MUupUDNmARx-15" value="" style="shape=image;verticalLabelPosition=bottom;labelBackgroundColor=default;verticalAlign=top;aspect=fixed;imageAspect=0;image=https://cdn.freebiesupply.com/logos/large/2x/vault-1-logo-black-and-white.png;" vertex="1" parent="oEuxszejH2iOCZYbAW9u-0">
          <mxGeometry x="1070" y="82.27999999999997" width="50.5" height="47.72" as="geometry" />
        </mxCell>
        <mxCell id="IBk09pff3MUupUDNmARx-16" value="" style="shape=image;verticalLabelPosition=bottom;labelBackgroundColor=default;verticalAlign=top;aspect=fixed;imageAspect=0;image=https://seeklogo.com/images/E/elastic-logstash-logo-EC5646BB13-seeklogo.com.png;" vertex="1" parent="oEuxszejH2iOCZYbAW9u-0">
          <mxGeometry x="750" y="168.09000000000003" width="39" height="43.82" as="geometry" />
        </mxCell>
        <mxCell id="IBk09pff3MUupUDNmARx-17" value="" style="shape=image;verticalLabelPosition=bottom;labelBackgroundColor=default;verticalAlign=top;aspect=fixed;imageAspect=0;image=https://brandslogos.com/wp-content/uploads/images/large/elastic-elasticsearch-logo.png;" vertex="1" parent="oEuxszejH2iOCZYbAW9u-0">
          <mxGeometry x="840" y="162.40999999999997" width="49.5" height="49.5" as="geometry" />
        </mxCell>
        <mxCell id="IBk09pff3MUupUDNmARx-18" value="" style="shape=image;verticalLabelPosition=bottom;labelBackgroundColor=default;verticalAlign=top;aspect=fixed;imageAspect=0;image=https://brandslogos.com/wp-content/uploads/images/large/elastic-kibana-logo.png;" vertex="1" parent="oEuxszejH2iOCZYbAW9u-0">
          <mxGeometry x="644.75" y="160" width="60" height="60" as="geometry" />
        </mxCell>
        <mxCell id="IBk09pff3MUupUDNmARx-21" style="edgeStyle=orthogonalEdgeStyle;rounded=0;orthogonalLoop=1;jettySize=auto;html=1;sketch=1;curveFitting=1;jiggle=2;curved=1;" edge="1" parent="oEuxszejH2iOCZYbAW9u-0">
          <mxGeometry relative="1" as="geometry">
            <mxPoint x="270" y="140" as="sourcePoint" />
            <mxPoint x="620" y="100" as="targetPoint" />
            <Array as="points">
              <mxPoint x="270" y="100" />
            </Array>
          </mxGeometry>
        </mxCell>
        <mxCell id="IBk09pff3MUupUDNmARx-28" value="" style="image;sketch=1;aspect=fixed;html=1;points=[];align=center;fontSize=18;image=img/lib/mscae/Key_Vaults.svg;curveFitting=1;jiggle=2;" vertex="1" parent="oEuxszejH2iOCZYbAW9u-0">
          <mxGeometry x="855.44" y="265" width="43.2" height="45" as="geometry" />
        </mxCell>
        <mxCell id="IBk09pff3MUupUDNmARx-29" value="" style="outlineConnect=0;dashed=0;verticalLabelPosition=bottom;verticalAlign=top;align=center;html=1;shape=mxgraph.aws3.certificate;fillColor=#5294CF;gradientColor=none;fontSize=18;" vertex="1" parent="oEuxszejH2iOCZYbAW9u-0">
          <mxGeometry x="760" y="260" width="40" height="60" as="geometry" />
        </mxCell>
        <mxCell id="IBk09pff3MUupUDNmARx-30" value="" style="shape=image;verticalLabelPosition=bottom;labelBackgroundColor=default;verticalAlign=top;aspect=fixed;imageAspect=0;image=data:image/png,iVBORw0KGgoAAAANSUhEUgAAAgAAAAIACAYAAAD0eNT6AAAAAXNSR0IArs4c6QAAIABJREFUeAHtvQucHUWd9l8ECPeLCwqvL6IsXtb9r4ur8uoqKrKw4L6fRVeI6CoYASPp6skFIqAgOyCEOwvChrtgEAIBghDABMh0dSaZXGZyz0wukyvJZDJJ5hbfABJI/a0zmTAnOTNzzpk+p6urv/X5hBlmznR3PfX8fs/zq+6uEoIGAiBgPwKjaw4RFcEJoqLqFOGHZwhfDRF+cJnww2uEr+4Svvq9kOFzQqrJwldThR8q4atZQqp5QqqlQqpGIdV6IdVmIVW7kGqHkOo9IdX7Qqq3hVSdQqqtQqomIdVaIdUK4aslmb/vOk4oPPW6kOpFIdVjQqo7M+f2lCdk8APhhf8q/OBLYnj134pRwdFC6P3sB5UrBAEQAAEQAIG4EKisHywqpp0sKoIzhQwuFVLdJKR6Ukg1TUi1UEi1QUj1lpBKJ+yfMRfbhFQNQoZThFQPdpmV4MdCht8QlwWfEJXBAXHBznlBAARAAARAoLQIVOpBGbHzg9OFr34qpLpeSDVeeGr6bnE3FXjSxD2q6zV93yBkOEP46ikhg1syJsgLvyqGV3+otAPD0UEABEAABEAgKgSGBcd2Tc+HI4VUjwqpahNavUcl8AM9TnNmJsQP7xVSDRfGRF028yNRDRfHAQEQAAEQAIHCEMhM21edIqS6UHjh7Zkpbl9tSnElP1ChL/Tvt3XNoAQPCE/9LPNcxJCJ+xc2iHwaBEAABEAABPpDwNyj98KLhK8e2v1g3E7E3rrbFuahxurdDydeIPzwpP6Gld+DAAiAAAiAwAcImAfTPHWqkMGo3U/Vm2noQitUPm8HZluEH74spLpOeME5PFfwAc35DgRAAARAoGL2kcKvOlv46gYhVdXu1+MQcDsEPOpxMA8d1nY9bKjOEubVShoIgAAIgEBKEDBP5Q8PvrL7afw5u9+Dj1poOF4yDMQ7u03fr4Ss+rLgOYKUJAG6CQIgkB4EvOB4IcOfCKkmCKlamdLnlkYvHOgQMvyj8FWF8IO/S0+A0FMQAAEQcAUBcx/fLDYj1Vjhqfl/vQe8q5eET6WejEo9rnFqFDK4Q1Sorwszc0QDARAAARCwEIFhrx+VqfJ99fzuZW3jEg3O66apMMsk/07Iqu+IYXWHWhgBXBIIgAAIpAiBi2ccIbzwR0Kql4RUf6HKZ2q/TBwwSzO/KGR4MQsTpSjf0FUQAIGYERgz9TDhhxcIqSbt3sSGitvNijsp42reLDDrDwwX8o1jYo4OTg8CIAACjiFgXtfyq84TUk3kNT2q/DJV+cUYkHe7HiKsOk9UvHqQY1FId0AABECgTAiYh67M4i2ZTWLUny1O+sUIBX/j/qxFe2blSPMAIVsjlylpcBoQAIFkI2D2vDcrt3XtXY9Qui+UaRjjtcILbhTDqz6T7ODk6kEABEAgagTMAix+eK6QarKQyuwjnwZRoI/pHOc5mW2hWYUw6izC8UAABBKFgNmwxVRGUjUh+pielHGgNbPGgBd8MlExy8WCAAiAQNEIDKs7UHjB+UKq11igB9FPmejnmvXZ1bWddHguSxEXnVX4QxAAAasRGBYcu/vefgtJH+GHAzk5sF5I9SvWFrA6k3FxIAACeSMwIvyU8ML7hVRm8ZRcFRA/Axc4kM0Bs6jVk6Ji+v/JO874IAiAAAhYg4AXnCY89QK77WF6MH4D4kCV8MJ/tSauuRAQAAEQyImAeZo/c38/nE3SH1DSpyLOrojBw2xqZVbAZMvinKmHH4IACMSFQGZ5XlUhpFqN8CP8cKCkHFglvPDnrDQYV7LjvCAAAl0IVMw+cveDfW0k/ZImfSpgZgT25kCzkOFVwsQgDQRAAATKhoCp+E3ykaoV4Uf44UCsHOgQUo0Vw6s/VLb450QgAAIpRGBocLDw1Oi/7nzGq3xUpHtXpPx/vJzoEH54jTDmnAYCIAACkSFQWT9YeMpjxb5YKz0ENl6BTQr+LcIPR/KMQGTZjwOBQEoRqAwOEDK4lI15EH6m+RPHgfVChhfz1kBKczfdBoGiETBb8Up1oZBqFYk/cYk/KZUq11meGY3lwldD2JK46GzIH4JAihDwg9OFVAsRfoQfDjjEAbOOgBeck6JMRldBAATyRsDszOer50n6DiX98lSYVPJJwtlTrwpZ/em88wIfBAEQcBgBLzg88xqRVO8g/og/HEgFB94VXni7uHjGEQ5nNroGAiDQOwJ6P+EFQ4VUzST9VCR9KvUkVerludbmTA4Qer/e8wS/AQEQcAsBv+prQqpahB/hhwNwQEg1h50H3Urx9AYE9kVgRPWJQqoJJH2SPhyAA3txYJeQ6jHhBcfvmzj4CQiAQHIRMDuI+cEYIdWOvYKeaeHyTLWCMzgnhQPbhRdewfoByU33XDkIfICAF3xeyLAO4afigwNwoAAOzBMmd9BAAAQSiIBZt18GtwipdhYQ9EmpUrhOKmo4UHoO7MzkEJNLaCAAAglBwCzm46mVCD8VHxyAAxFwoFGYnEIDARCwGIFRwdFCqoeFVOaBHiokMIADcCAqDpic8rAwOYYGAiBgGQJe+D3hq00IP8YHDsCBknHA5BiTa2ggAAIWIGBe25FqUskCngoqqgqK48AllzgwiVcGLcj/XEKKEfDDc4VUWxF/Kj44AAdi4MBWIau+k+IMTNdBIAYEhtUdKmTwQAwB71IFQ1+oyOFAFBzw1UNizNTDYsiEnBIEUoaAnP4FIdVyxJ+KDw7AAYs4sEJ46tSUZWO6CwJlQqBSDxK+ulJI9a5FQU8FFUUFxTHgkRsc2Cn88BphchUNBEAgIgQqghOEVFUIPxUfHIADCeBAtZDTPh5R9uMwIJBiBHw1REjVloCgp4pzo4pjHBnHKDjQKfzgxynO3HQdBAaAgBccntmdi2QURTLiGPAIDsTBAU89IcxDyzQQAIE8ERhe9RkhVQNVP9O9cAAOJJ4DvloiZPWn88x+fAwEUoyAH3xXSNWZ+KCPo9rgnFS5cMBWDpic9h8pzux0HQT6QMA8OSvVWNbxp+LD/MEBZzngqVvFkIn795EJ+RUIpAwB+cYxwldTnQ16qjJbqzKuC27GwYFAXDbzIynL8nQXBHIg0LWwzzrEn6oPDsCBFHGgSXjhV3NkRH4EAilBwAuGCqneTlHQx1FtcE6qXDhgJwfMomYjUpLt6SYI7Eagsn6wkGocwk/FBwfgQOo5YF4VrHj1IPQBBNxHYOQbxwmpalIf9HZWJFSKjAsciIcD1WJYcKz7AkAP04uAF35WSLUW8afqgwNwAA7sw4FVwqyBQgMB5xDw1LeEVO0E/T5BT8UVT8UF7uBuIwfahB+e4Vz+p0MpRsALL2IXP4Qf8wcH4EBeHHhX+OElKVYMuu4MAn5QSdDnFfQ2ViNcE1UyHIiNA8EtQuj9nNECOpIiBLqe9B+P+CP+cAAOwIEiOeCr58XomkNSpBx0NfEIjAqOFlIFBH2RQR9bxcH1wlk4YCEHakXF9A8nXhfoQAoQ8MOT2MmPJGphEmUqG2OZZA7UCy84PgUKQhcTi8Dwqi8KqVpI/hgAOAAH4EDEHPDUSlERnJBYfeDCHUbAC05jG9+IA56KLckVG9cOf0vBgTVCTvu4w0pC1xKHgFRnCal24PgxAHAADsCBknNgvaiYdnLidIILdhABWfUdIdU7BH3Jg74U1QTHpEqFA8nkQBOrBjqop4nqkqd+KKTaifgj/nAADsCBsnNgs7gs+IdEaQYX6wgCMrhUSPU+QV/2oKdiS2bFxrgxbqXgwFbhBZ93RFXoRiIQkMEoIdUuxB/xhwNwAA7EzoE24alTE6EdXGTCEZDBtQR87AFfikqCY1KhwoHkcqBTeOFXE64uXL7VCHjqVsQf8YcDcAAOWMmBP4vhVd+0WkO4uIQigPhTHSW3OmLsGLu0cGCHqAjOTKjKcNlWIsC0f1qSB/1EKOFA8jnwtpDhv1mpJVxUwhDoeuCPpJD8pMAYMoZwID0c+Ivwg+8mTG24XKsQ6HrVj6f905M0EAjGGg64w4GdQobft0pTuJiEINC1yA/v+buTDEjsjCUcSB8H3hN+8OOEqA6XaQUCXcv7ssJf+pIFAsGYwwH3OGAKuQut0BYuwnIEujb2YW1/95IAiZ0xhQPp5cBO4atvW64+XF6sCHRt6cuufulNEggEYw8H3OXA/xOy6suxagwntxSB4VVfFFJ1ssCHlQt8kJTdTcqMLWNbTg5sZRdBSzU4tsvyw5OEVC2IP+IPB+AAHHCeA+uEP+OjsekNJ7YIgVHB0UKqBoLe+aAvZ5XBuahq4YDdHFgshr1+lEVKxKWUHYHK+sFCqgDxR/zhAByAA6njQCiGBgeXXXc4oSUISDWeoE9d0FOZ2V2ZMT6MT/k44KvnRaUeZIkicRllQ8APKhF/xB8OwAE4kHIOeOH9ZdMdTmQBAl54EUGf8qCnyipflQXWYG07Bzw12gJl4hJKjoCnviWkehcDgAGAA3AADsCB3Rx4T/hVZ5dcfzhBjAh44WeFVO0EPUEPB+AAHIADe3GggzUCYtTnkp565BvHCanW7jXgTM3ZPjXH9cFROAAHyseBFcK8Gk5zCIGu1/1qEH8cPxyAA3AADvTDgdfEkIn7O6SAKe+KVOP6GXAcdvkcNliDNRyAA7Zz4J6Uq6Yj3feCoYg/jh8OwAE4AAcK40BwqSMqmNJuyOlfEFK9XdigEyTgBQfgAByAA+pdUaG+nlL1THi35RvHCKnWQWISGRyAA3AADhTJgS1iRPWJCVfDlF2+WdrRV1OLHHDb701xfdw/hQNwAA6UiwO+miWG1R2YMhVNcHelGov44/jhAByAA3AgEg746q4EK2KKLt0Pviuk2hXJoJfLYXIeqhk4AAfggN0cMNpCsxiB4VWfEVJ1Iv64fjhQHAc+9IsZ+ut3zkvcv8EjQrvFA3F3YXzahR+eZLECpvjSvOBwIVUDib+4xA9u4GY4cOY98/X27dsT9++4q2e6IDD0wX6jVCvMwnI0yxCQ6jFEDBGDAwPjAAZgYPjBvxTg54f3WqZ+Kb8cXw0h8FIQePZXB4mv4DAAxBG5NA8OGM2hWYBARXCCkKoN0uZBWgQ08QJdap5jAIijUnPMkeN3Ci/4pAUKmOJLMO/7S1XlCKEQJwxK7BzAAGAAyKd5c2CBqHj1oBQrcMxd99WVkDVvssYuLoyV/WOFAbB/jIgji8bIU7fGrIIpPX3XOv/vEgwWBQMVfOJNFgaAeCKnFsSB94UXnJZSFY6p28PqDhVSLYeoBRE18eLEeJd+vDEApccYHjuH8WphXkOnlQkBGTxAEDkXRBgUC2ZQMADEFbm1KA48WCb1S/lp/PBcCFoUQRFYCwTWdu5iAIgt2zlq7fX56tspV+cSd98LjhdSbbWWAAgMJiPhHMAAYADIr0VywFebxOiavymxCqb48FJNgpxFkjPhwsS4l2fcMQDlwRk+O4qzFzydYoUuYde98HsEjaNBgzmxZuYEA0CMkWcHyoHgByVUwhQeelRwtDDTKwiFNULBWAw0Sdj59xgAO8eFeEvUuLQKf8ZHU6jUJeqyVA8TAIkKAIxKQs0qBoA4I9dGwAFPvVAiNUzZYf3gdCHVLkgZASkTKkqMffnGHgNQPqzhteNYe+rfU6bWEXd3aHCw8NRKAsXxQMGYWDNjggEg1si3kXFgvRgz9bCIVTFFh5PBLZAxMjJaIzKMqb1jigGwd2yIm0SOzW0pUuwIu+oFnxdS7YT0iSQ9ZiOhsxoYAOKNnBspB3YKP/xchMqYgkMNmbi/kGEdRIyUiIhyQkW5nHGAASDmysm3lJyrRgi9XwqUO6Iu+sGYlBADUUaUreIABgADQO4tBQfCYRGpo+OHGVF9opBqByQsBQk5JrzqmwMYgL7xgT/gUyQH2sRlMz/iuHpH0D2pJhQJsFWVFH0gUSSRAxgAeJtE3ibimj31RAQK6fAh/KqvJWIgmbbGbDnKAQwABoAcXEIO+OEZDiv4QLqm9xNS1UK+EpLPUdGCM9FxBgMQHZbwEixzcGCxMA+50/ZCwAuG5gCLShPRhgNl5AAGANEiD5eaAzwQmK3+XnC4kKoZ4pWaeBwfjvXNAQxA3/jAH/CJgAMtomL2kdkimOb/k2psBKBSKZaxUmS83EyEGAA3x5V4tW1cg1vSLPkf9N0PTxJSvQNBbSMo15NGTmIA4H0aeR9Dn98RRvtS33z1fAzgM1vAbAEcyMEBDAAGgHxcNg5MTLf+d231SyLOkYgJwrIFIfzrwT8MALwj95SRA+bV91S2Sj1ISLUQspWRbD0SPbiDey4OYADgRS5e8LOS8WJuOvcJkOpCSFUyUlHVYnaK4gAGgJgkL5eZA37w43RNAlQGBwipVkG0MhMNUSxKFNPEUwwAMZkmvlvS1w1idM0h6TEBMrjUEuARBEwBHOjBAQwABoDcHAMHPDU6HQagsn6wkGo9JIuBZD0SPfiDfy4OYADgRS5e8LOS82JzOmYBPOVBppKTiaoWs1MUBzAAxCb5OSYOeOEVbs8CDA0OFlI1QbCYCIYoFiWKaeIrBoDYTBPfLetrixhWd6i7JsDc50CEECE4YC0HMAAYAHJ0rBz4hZsGYMzUw4RULZArVnJZKzzwwg5eYADsGAfiIbXjsEUYrXSuyfAqSJ1aUmM8EjLrgQEgRsnTMXPAC652S//N1odStUKsmImVEBGCJ/HxZPCIUB939czE/Rvkx4cZfAX7iDmwTXjB4e6YAKmuixggKkrEHA7AATgAB1zlwK/cMABd9/7bMAC4ZDgAB+AAHIADeXGgVVw844jkmwBfVTDgeQ24q06WflGlwQE4AAcK5UDi1wUYMnF/IdUaDAAGAA7AATgAB+BAQRx4U5h9cxLbvOB8BrygAcclF+qS+TycgQNwwFUOeOqHidV/IcPZGAAMAByAA3AADsCBYjgQ1iXTAHjBaQx4MQPO38AbOAAH4AAc2M2B4VXfTJ4J8NQLDCBBDAfgAByAA3BgQBx4KVkGYET4KSHV+wz6gAad+3qu3tejX3AbDsCB/DmwSwyv+kxyTIAX3o/4I/5wAA7AATgAB6LgQPBAMgzAsOBYIdVbDHoUg56cY5x03Sx9yfilifu3f0WYdyWS1D6a5X3zjccTflWTuDE0vDtk1PS8+5gvFnwuOfknBWP1ljDaan1j2d9UJqLzH1qkt2/fnrh/B4/MXziS2sejrqjOm5NsBoTopUBM844Hy7C4zm79H1Z3IFv+pjOBJFUcMQDZfMUAZONhmQAkVbi47vzv9/eFVYswGmttY+GfvgbP6d9hAOyd/WAGAFHHyDjCAV8NsVb/hVSvQTRHiFagY8UAYADivAVktjAm96Qz96Rs3F+z0wD44UlCql0pGwySzm6jgAHAAGAAEGDyf8k5sEsMr/5b+0yAF9zI4Jd88K01HBgADAAGIL3xT+4v69jfZJcB6Nr1rwkSlJUEVpkBDAAGAAOQ3vgn95dx7H21ya5dAv3wXAhQRgIUeH++HGODAcAAYADSnQPKkWc4x26O+cF37ZkFkGoyA5Pu4McAYAAwAOnOAWhAGcffU6/aYQAqghOEVO8x+GUcfGYAIltwiHUAsnnLOgDZeJDXyovHv9wzP7MS5YnX1lh1i9NCHrwvRlSfGL8JYOU/iCqVZgaAGQBmAMorlhaK0oBy4XkPLtKt7Z17zP281Vv0LX9apY0pKGTJbtdw6aM/18drACr1ICHV+j4ucECE4LjJSSgYAAwABiA58Wpbbv32fQt0W8cH4r83lxau3ap/8MhijED27O8GYR7Aj615wTm2EYnriScJYQAwAHsn7XL+PwsBxRP3UeTbr95ep7e0deyp/PvijZkVMLlmkJ/c/kaB2Z5jeOG/xqb/wldP7bmQbGdC5Z8yPDAAGIC+Enepf4cBSKYgfu7GOXrjlva8xL8nh2asaNGfrpyNzkj1WDwGYHTNIUKqP2MAkhl4UY8bBgAD0DNBl/t7DEDy8tAnfj1LNza1Fiz+3dxq3tahL3hkcdpNQIeoePWg8psAv+q8qEWE4yUviLvHDAOAAehOzHF8xQAkK3eYt29mN7YULf49OXbvtDX6kFH5b+vdnbOc+RrLmgBSTXQGwJRN15di3DAAGICeSbnc32MAkmUA7pi6OhLx7+aZuSVw7JUz0jkb4AVPl3cGYMzUw4RUO0ohJBwzWYHcPV4YAAxAdzKO4ysGIDl5wzzxXwqOzGncoj98VSpNwA5hNLlszQ8v6E78fE1O4JVyrDAAGIBSJPV8j4kBSEYeOv7qmXptc1tJDIDhytxVW/RHrkrh1tCe+mHZ9F9INamUYsKxkxHMPccJA4AByFesS/E5DID9OWM/X+kX5zeVTPy7eVW7aotOIR9eKo8BuHjGEUKqt3smf763P/hKPUYYAAxAdwKO42sKE37i7nePeHpZycW/m3thw2Z90MgwcRgNIE//RQyv/lDpTYAX/mgAF5mmAUlVXzEAGIDu5BvHVwyA3UXIKTfNzVrmtxwcGResTVUOFn54SekNgFQvYQDsDrY4xgcDgAEoR1Lv7RwYALtz0htLm8tW/ffkyCXjl6bHBHjq9dIagGGvHyWk+kscAsM57Q5wDAAGoGfiLff3GAB788PZ95bmqf98OLatvVP/n1tr02IC3ivtbQAZ/gQhtjfQ4hwbDAAGIJ+EXKrPYADszEvmwT/zjn6pxj2f4zZs2KYPv7w6JSYg+EHpZgF89XycIsO57QxyMy4YAAxAPsm4VJ/BANiZG/7jgUWxin83326fsjotBuAPpTEAlcEBQqpORNjOQIt7XDAAGIDuZBvHVwyAfXlp/4pQ163eYoUB6Ojcrr90SypuBWwTlXpQ9CZAht+IW2Q4v31B3j0mGAAMQBzC331ODIB9ueE/H11ihfh3c2TWyhZ94IgUvBrohV8tgQFQY7uTPV/tC7a4xwQDgAHoTrRxfMUA2JWTjNAuXb/NKgNgeDl64rI03AoYG70B8NT8uEWG89sV5D3HAwOAAYhD+LvPiQGwKzdc+kS9deJvuLJhS7s+8grnHwhcFK0B8ILjhVS7eiZ8vrcr4OIeDwwABqBbjOP4igGwJx+ZrXlXbGy10gAYbl75/HL3ZwG88GPRmQBe/3OfMAPcEhkDgAGIQ/i7z4kBsMcADH+qwVrxN3xZv7nN/dcCvfDnERoANSHuCpPz2xPgucYCA4AB6BbjOL5iAOzJD2Zb3jg4UMg5r3jW+VmAydEYAPNKgVStuZI+P7Mn6OIeCwwABqCQBBz1ZzEAduSiz4+da734G+6ZLYkPGz3d5ZndHWJocPDATcDw4CtxiwvntyO4+xoHDAAGIGpRL+R4GAA7csQdU1cnwgAYbo16xvk3As4auAGQ6vq+Ej+/syPw4h4HDAAGoBDBjvqzGID489DgEaFet7ktMQZg9aY2bR5YjDt3luz8XnBjFAZgTskucIAPnnFd8Qd99xhgADAAUYt6IcfDAMSfC84dtzAx4t/NLX9Cg8MGQE0fmAGomH2kkOr97iTP1/iDzNYxwABgALqTahxfMQDx56bxNW8mzgA0NrW6PAvwzsCeA/CrzrZVcLiu+AO+5xhgADAAcQh/9zkxAPHmA7Puv1lkp3s8kvR16ONL3Z0FGF71zeJnAXx1Q88kz/fxBpnN+GMAMABxJn0MQLy56dRbaxMp/oazUxZvctcASHVd8QZAqiqbRYdrizfoe+L/f/9ngV61qTVx/w4amf/mIEnt4xEF7IX+jTvnJW4MDe+OvXKGy0nc+r5d9fyKxBqAzs7t+sRra6zHuGe+LeD7acUZgK7tf3cUcCJXAaRfPKwJB+AAHOiDA1MXb0qsATCzAGOec3ZhoB1iWN2BhZsAT52K+NtTYTMWjAUcgAM2cuDwy6t1W0dnog1A7aot7hq8orYHlsEoG8nGNZEE4QAcgAP2cODb9y1ItPh3P7tyyk1z3TQBXnB14TMAMnyOILMnyBgLxgIOwAEbOfDLScm9/98t/ubrza+uctMASPWnIgyAaraRbFwTSRAOwAE4YA8HHp+x3okZALMmgHmd0UFubRdmT5+8W8W0kx0EwcWBpU99PJgEh+0RCcbC3bGYtbLFCQNgZgHOuHu+mznVD/4ub/0XXngRAetuwDK2jC0cgANRcMBUzFvbkv0AYM/bAA+otW4aAC/8Uf4GwFcPRUEOjkGSgQNwAA64y4FP/tcsZ6p/YwTMmhL7+U6O152FGIAlBK2TJHDT3XIbgHGFA7FwwCyO1bOCduH7z904JxYsS6y5QX4GoLJ+sJBqZ4kvxkWA6RNJGA7AgVRx4IpnlztnAEY+s8zFMewQQu/XvwmoqDoF8af6hwNwAA7Agf44cPuU1c4ZgBfnN7loALTwgk/2bwCkurC/Qef3hSWGL99Wq2+dsjpx/woZZ7OIRhL7eEABr/0ktY+HjJqed0L7dOXsRI7j4Zfn38e/vW5WIvv4oTHVeY9jIbE7kM8+qNY5ZwDMQ42FxMxA8Cvr3/rhBf0bAC+8vawXlYIpw0vG1ycySArhwfkPLU5kHw8uQByT2sejrshfOM68Z34ix7GQ3QC/fue8RPbRxg1rnp6zIZFY9veswr/c4+DrgJ66tX8DIMMphSR+Ptv/bAAGwN6tcjEA2fzFANjLVRsNwKuLkr0JUG9GYKyLqwJ66vX+DYCvNiHq2UlxoHhgAOxNqhiAbK5jAOzlqo0GYOYKdxYB6mkGala2WHe7ZaA6JKRq7dsADAuOjeAkLgI3oD5hAOxNqhgADEDPxG/z9zYagKXrtzl5C6Cjc7s+dHT+z5UkRjcvCz7RuwnwwzMS05EEPTuAAcAAxCksPAOQbXJ4BiAbj4Hk/A1b2p00ACZe//n2ugEVfgPBtWR/64fn9mUARpbsxAkS7KgxwABgADAApeUADwFGJ+qF5L/2DneWAd47Rr2nGhw0AMGY3g2AVI8WMvh8Nr+gwwCUNvnvHbiF/D+3ALI5zDMA9nLVxlsALa11/Eb/AAAgAElEQVQdzs4APDJ9nYMGQD3UlwGoRdSzE2IUeGAA7E2qGIBsvmMA7OWqjQZg9aY2Zw1A3eot7hkAqcLcBsDsFyzVW1EIHsfITqoYAHuTKgYgm6sYAHu5aqMBWOLoQ4BmFrGzc7s+/PL819AwOyMePaZaf+yaGv33N8zRZgE4E0/n3LtAn37XPP2V2+q0WUzs766frT9+bY0+/uqZ+sgC1uiISFebcxsA83Rgiu/Tl7LvGAB7kyoGAANQyC2jOD9rowGYtdLN1wC7x/m0O7oeBDQrhp503Sx9xt3z9SXjl+obX2nUT856U5vXIBubWvVAboWYv120dqs2ayo8On2d/s3LjXr4Uw363HELM0Yhcm26eMYR+5oAPzg98hNhKDJTSBgADEB3QonjK28BZJsc3gLIxmMgeX/a0mZnbwGYWJ2/ZqtevG6rbovxYUdzm+WZORv0mOeWZ2YSjihgViLn2A6v+mIOA6B+mvPDiPiA7wNhADAAcQh/9zkxANmChwHIxmMged9snNPNM76WJ8+ZNQrmNG7R/1O1Vg99fKn+h9/M0eb2Q97j6Kkf7msApLo+7wNgCvIHWyqNAShPYBSTgLgFkC0GPANgL1dtvAUwYbabewEUk0vi/JvmbR36lYVN+vJnl+t+eeIHlbkMwHgMQHYyjAoPDIC9SRUDkM15DIC9XO03scdQmJlX5eIUPs6dm69vLG3Ww/5Qrz9y1cx9i1VfPbWvAfDU9KgEj+NkJ1UMQG6S2hC8GIBsrmIA7OWqjQbAPLBmQxxzDbl5axZqenHeRv2j3y3p8cZBWLevAZBqA8KdnQyjwgMDkJucNgQtBiCb8xgAe7lqowH4yeNLMQDb7eVMzxy7ta0z8+bCeQ8ueivbAFTWDxZSvR+V4HGc7KSKAbA3QDAA2VzFANjLVRsNwNfuqMMAJMQA9DQD17yy5uMfmICKaScj2tmJMEo8MAD2JlUMQDbvMQD2ctVGA2DuMfcUFr63lz89x+aml1f+3x4GIDgzSsHjWNlJFQNgb1BgALK5igGwl6s2GgCT65u2ursjYE/RdOn7O6asueIDAyCDSxHt7EQYJR4YAHuTKgYgm/cYAHu5aqsBCBs2MwuQsNsAv522dlwPA6BuilLwOFZ2UsUA2JtUMQDZXMUA2MtVWw2AWb7Wpeo4DX15JFz7Uk8D8CSinZ0Io8QDA2BvUsUAZPMeA2AvV201AFdPWoEBSNgMwITZb9b2NADTohQ8jpWdVDEA9iZVDEA2VzEA9nLVVgNw/kOLMAAJMwAvL2ha29MALES0sxNhlHhgAOxNqhiAbN5jAOzlqq0G4BO/noUBSJgBCJe1tPU0ACwCVMJlNDEA9iZVDAAGICn3fG01AKZYqn9zGyYgQSZg0bqtf+lpAN6KsuLlWNlJFQOAAYhTZNgNMDse2Q0wG48o8rXZmS5OjnPuwnJs09b2XV0GYHTNIVEQgGP0HlQYgMLIWc5gZgYgm7fcArCXqzbPAHz/4cUYgATNAJgcWzmx/m+EqAhOQLyzk2DUeGAA7E2qGIBs7mMA7OWqzQbg+KtZEbCchUsU57rhpcZvClFRdUrUgsfxspMqBsDepIoByOYqBsBertpsAEzOr121hVmABM0C3Dpl9WVC+OEZCHZ2EowaDwyAvUkVA5DNfQyAvVy13QDcMXU1BiBBBuCe19fcLoSvhkQteBwvO6liAOxNqhiAbK5iAOzlqu0G4N/HLcQAJMgA/E/V2keF8IPLEOzsJBg1HhgAe5MqBiCb+xgAe7lquwE4eky17ui0F78o7pu7dIyH1LpnzS2Aa6IWPI6XnVQxAPYmBQxANlcxAPZy1XYDYPJ+UN/MLEBCZgF+V71+irkFcBeCnZ0Eo8YDA2BvUsUAZHMfA2AvV5NgAIY/1YABSIgBeGLmm9XGAPw+asHjeNlJFQNgb1LFAGRzFQNgL1eTYAA+fNUM3dbRiQlIgAl4es6G+ULI8DkEOzsJRo0HBsDepIoByOY+BsBeribBAJjc+ezcDRiABBiA5+s2LhNCqslRCx7Hy06qGAB7kyoGIJurGAB7uZoUA/C9B9kdMAkPC05e0LTO3AKYimBnJ8Go8cAA2JtUMQDZ3McA2MvVpBiAg0dO1xu3tDMLYPkswNTFm5rNWwAqasHjeNlJFQNgb1LFAGRzFQNgL1eTYgBM/v/ttDUYAMsNgGowWwL7ahaCnZ0Eo8YDA2BvUsUAZHMfA2AvV5NkAP759joMgOUGYNbKlj+bZwDmRS14HC87qf7bfQv0qwubEvevkHH85l3zEtc/MyaDR4Q6334mtY+HjZ6edx+/ePPcRI7jh8ZU593Hf7wpmX087uqZefcxX06X8nOL123FBFhsAuav2fq2MQBLS0kCjp1tBsADPOAAHEgDB375wgoMgMUGYNmGbTuNAWhMAxnpI0kXDsABOFA+Dny6cjYGwGIDsG5z2/vGAKwnKMoXFGAN1nAADqSBA6wKaO/zJOY1xVWbWncZA7A5DWSkjyRdOAAH4EB5OHDaHXW6eVsHMwCWzgBs3tahv3xb7bvGALQTFOUJCnAGZzgAB1znwH8+ukS3tCL+ti4GtK29U59x93zzQGnmGYAdrhOS/pF04QAcgAOl5cAnfj1Lv1C3karf0qrfGJL2jk79nfsXdr9NknkG4D0Co7SBAb7gCwfggKscMK/HPjnrzYy42Fr1cl1dzyNc+NiSbvHv+iqkwgBIkpOryYl+wW04EC0HDhoZ6q/fOU9f88cVunbVFip+iyv+buNjKv9Lxi/NFn+j/UIqbgFgAPYmBv8PJ+AAHMgslPXJ/5qlzQqRv3huuZ68oElvaeP+frewJuHrpq3t+qzfZu757x3TO5x+CNDsTW1Wz+IfGMABOJB2Dnz0lzP13143S//Db+boU2+t1Wbq/px7F2ize595cO/SJ+r1lc8v1+OCtfrVRZt0w4ZtuqPT7lfZkiDAcV6jGUMz3r3MgrU7/Rpga3sn01MJmJ6KM0A4NwkeDsABFzkQNmzWx/e9fPRmYwCcXAjoyCuqEX/EHw7AATgAB1LHATOLc8iofvcAWW8MgJNLAZtXUlx0dfSJagUOwAE4AAdycWDVplZtNp/rZcp/7583GgPg5GZAX7ylFgOA84cDcAAOwIFUcGB8zZv6mCtn7C3yff3/UmMAnNwO2Dz1mMsh8TOcMxyAA3AADrjCgXWb2/SQhxf3JfS9/W6eEL6aled0QW8HsfLnFzyyGAOA84cDcAAOwAEnOWCW9L3plUZ91BXVxWmw0X7hh8pFA3DRY0ucHHRXXCv9oAKDA3AADhTHATPdb55zG5B2G+0Xvpo6oINYuljGT3+/FAOA84cDcAAOwAFnODBl8Sb9ldvqBib83ZpttF9INdlFA/CzJ+qdGXRccnEuGdzADQ7AgaRzoGlru77ztdX6/+t9QZ9iDcFkIWT4nIsG4LInGzAAOH84AAfgABxIJAeql2/WQx9fqg8d3e/7/EUagPA5cwvg9y4aADkBA5B058v1U73BATiQJg60tHZklmI2r7GXXJeN9gtf3VXyE3Xfcyjj15HPLEuk60sT2ekryR0OwAE4sD2zq6KZtS76if5itNVov/DDa1w0AJc/uxwDwNQfHIADcAAOWMcBs6Pii/Ob9KhnlulTbppb+mo/l0Ew2i/84DIXDYDZ1QpnSXUBB+AAHIADcXOgs3O7Nvf0b3i5UX/rv+fpg0eW6r6+yt9MGO0XvhriogH45QsrMAA4fzgAB+AAHIiFA0vXb9P3Va3V5z+0qNAlevMX8VyVfb4/M9ov/PAMFw3AtX9cGcugx+00OT/VDhyAA3CgPBzo6NyuF6/bqifO3aB/83Kj/tHvlugv3VKrj7i8yNX58hXvKD5ntF9UVJ3iogGofAkDQBIoTxIAZ3CGA+5xoL2jU5vd9WatbNEvLWjSv6ter2/90yo95rnlmar+H2+ck8+Wu+Wp5osxBEb7RUVwgosG4MZXGpkBYOoPDsABOAAHcnLg3HEL9WdvmK0/XTlbn/xfs/THr63RJ1xTo//XL2fqD/1iht7PL+B+ejECHPffGO0Xo2sOcdEA3PzqqpyDjlN3z6kzpowpHIADhXBgTXOb+wLfn8Ew2p9pUr3lmgm4fcpqDADOHw7AATgAB/bhwKPT19k7Nd+fcEfz+7e6xN/8V6oNrhmAu17DABTiiPksFRQcgANp4cB/Prok7QZgQ08DsNA1A3DbFG4BpCWY6SfCBQfgQCEcMPf5XdO8AvuzsKcBmFbgH1sP3nUv8hZAIQHBZ0mgcAAOpIEDsxtbrNevMujxtJ4G4MkynLCsoF/BUsD73PdKQ3DTR0QMDsCBvjgw9tVVZdUiS7X1yZ4G4CZLL7LogRr2h3oEkId/4AAcgANwIIsD/3LP/KJ1xSGdvKmHAQgudahjmcE1KzL15QL5HVUCHIADcCBdHDCb8BwyyoJ1+KN5kn8ARia49AMDUBGc6ZoB+O79CzEAOH84AAfgABzYwwGzA59rWldUf4zm72kV004u6iCxu5jeV2o68575ewYdl58ul894M95wAA7k4sCIp5dhAIxuG83f0yrrBwup3nfJBHzltjoMAM4fDsABOAAHMhwwW/J+7JoaDIDReqP5Wc2xxYA+d+McAp/AhwNwAA7AgQwHXluyCfHvmrXvsQhQtwvw1HSXZgBOum4WgU/gwwE4AAfgQIYDP3uiHgNgDIDR+n2aVONdMgDHXDmDwCfw4QAcgANwQLd1dGqjCS5p3AD6Mn4f/RdSXT+AA1oHrNnKsbW9k+An+OEAHIADKefAc7UbrNOoGPX2+n0NgK9+GuMFlWRwlm1oJfBTHvi5ngTmZzwhDgfSxYHvP7y4JBqTSM00Wr9P84PTE9mZPl5FVA2bMQAYADgAB+BAijnQ0tqhDx3N4j979N1o/T7tsuATez7Qh6gm6TNPz9lA4Kc48Kny0lXlMd6Mdy4O/K56PdV/T003Wr9Pq9SDhFRvJUng+7vWu19fgwHAAMABOAAHUsyBc+5dgAH4wAC8JYzW52xS1fYnqkn6/S8nrSDwUxz4uaoBfkaVCAfSw4F1m9v0gSNCDMAHBqA2p/ZnfijVo0kS+P6u9ae/X4oBwADAATgAB1LKgRtebkT8PxB/g8WjvRsAPxzZn6gm6fffvm8BgZ/SwKfKS0+Vx1gz1rk4YN79/9+/mokB6GkAjMb32vzwjCQJfH/X+k83z8UAYADgAByAAynkAA//5dgsz2h8r21YcGx/opqk33/0lzMJ/BQGfq5qgJ9RJcKBdHHgCzfPpfrvWf2b743G99l8tSlJIt/XtR5QEeqOznSRniTHeMMBOJB2DkxdzMY/+2ij0fZ+mwyn7POHe7uIBP3/8o2sBpj2ZED/EUQ4kC4OnDtuIdX/PjodTulX/4UX3u6SAXhxfhO3AbgNAAfgABxICQeWrN+mB/k57n/vI4gp+4zR9n6bVBe6ZABum7KKwE9J4FPlpavKY7wZ71wcGP5UA9V/brNzYb/6LyqqTnHJAFwynrUAcgUJPyN5wgE44BoHmra268Mvr8YA5DIARtv7bZX1g4VUO10xAafdUccMADMAcAAOwIEUcOCmV1j4pxft3imMtufVfLWkl4Mkzll9+KoZBH4KAt+1Sob+UJ3DgcI4sHlbhzb53hXtirQfRtPzbr56KNKT55qOKOPP1m9uwwRgAuAAHIADDnPg2j+uRPx701Wj6Xk3L7zIJQNg3gnFTRfmpsELvOAAHEgKB0yRd+QV3PvvVbeNpufdKqad3OuBenMYFv/8t9PYFjgpgcx1IjpwAA4UyoFRzyyj+u9Lg42mF9SkanbFBMgJDcwAODz1V2iy4PMIDBxwhwMrNrbqQ0ZNxwD0bgCaC9L+zIdl+JwrBuDMe+ZjADAAcAAOwAEHOWBe9XZFq0rTj/C5IgxAMKo0F1P+1Zc+dk0Nge9g4FPFuVPFMZaMZTEcWLR2qz5wRIgB6L3610IGowo3AJ461RUDsJ+vtHlFpBiC8TckJjgAB+CAnRz4/sOLEf8+xV9pYbS84FYZHCCk2uGKCeBNADsDmMTKuMABOFAMB2atbGHN//7E32i40fKimlRVrhiA6yc3MgPAbQA4AAfggCMcOOPu+VT//RuAqqK0P/NHvrrBFQNwzr0LCHxHAr+YaoG/ocqEA+5w4LEZ6xH//sVfC6PhRTe/6mxXDMDRY6p1Z6c7AUAyYyzhABxIIwfMhj/HXz0TA5CXAag6u2j9FxWzjxRSve+KCZjTuIVZAGYB4AAcgAMJ5sDPn6xH/PMRf6PdRsMH1KSa44oBuPt1VgRMY8VAn6mU4YAbHJi+bDMP/uUn/sYkzRmQ9mf+WKrrXTEAFzyyGOefYOdPEncjiTOOjGMxHOjo3K7/6ea5VP/5G4DrB24AhgdfccUAnHgtCwIVE3j8DQkbDsCBuDlwx9TViH/+4q+F0e4Bt0o9SEjV6ooJMOtGx01kzk8yhQNwAA7kz4GVTa3s9leI+BvNNtodSZNqgisG4PEZ6zEA3AaAA3AADiSIA+c/tIjqvzADMCES7c8cRIY/ccUAmCdIcd75O2+wAis4AAfi5MCzczcg/oWJvxZGsyNrXnC8kGqXCybglJvmYgAS5PzjTDycG+GDA/FyYNWmVv3hq2ZgAAozALuE0exIm6fmu2AA9q8I9aat7ZgATAAcgANwwGIOmIXbzFbuLuhOWftgtDryJtXYsnaiMMdTEEkm1W0k8C0OfKqueKsu8Ad/Gzhw659WFZTXXdGnCPoxNnL9FzL8RgQXZsWAXjJ+KQYAAwAH4AAcsJQDNStb9EEjQyv0Inm6F34jegPQtT1wZ/LAUPuQ6LirZ2qzqIQNLpdrYBzgAByAAx9woKW1Q3/2htn75G0XtKcMfegsfvvf/myDr54vQwfKMvBTF2/CAFjq/kmGHyRDsACLtHHgZ0+w1n/ROms0umTNodcB5YQGDAAGAA7AAThgEQcm8srfAAvgKF//29tJDHv9KCHVX4p2JyV8sK/Qa/rYNSwLnLbKgv5STcMBeznQ2NSqj72SV/4K1bIen/+LMBpd0ibVSz1OOEC3su/9+XIeu3r5Zty/Re6f5GxvcmZsGJtScqCto1N//c55idaTcmpXL+d6qaTanzm4F/6ol5MnbvDGPLccA4ABgANwAA7EzIFhf+C+/4B11WhzydvFM44QUr094Iu14HbApytnE/gxB34pqwqOTdUKB+znwH1VaxNXPFqof28Lo81laVJNshCAokhUu2oLJgATAAfgAByIgQNvLG3Wg0fwvn8EejqpLNqfOYkfXhDBBRcl2FGf99cvriTwYwh8KjP7KzPGiDEqJQeWb2zVZk2WqHN6Ko9nNLlsbczUw4RUO1wAms2BSHKlTHIcG37BgX05sKWtQ3/h5rmIfzS3wncIo8llbVJNdMEAmD4sXb+NWQBmAeAAHIADZeLADx9djPhHI/4Gx4ll1f7Myfyq81wxAGNfXUXglynwqYb2rYbABEzSxIGbX2WTn0i102hx2dvomkOEVH+OtCPROaKC3KWZikpTANJXBAcOwIE4OPBC3UZttmR3QTcs6cOfhdHiWJqvnrIEhAETqqq+GRPALAAcgANwoEQcCOqb9aGjpw84V7uiOZH0w2hwbM0LzomkEzFV/j2v/fyHFhH4JQr8OCoNzkmFCwfs4UDd6i36b37BMr89NSeS740Gx9Yq9SAh1fpIOhKzCThwRKhXbGzFBGAC4AAcgAMRcmDZhlZ9wq9qqPyj17j1wmhwrE2q61wwAKYPVz7P0sBUTfZUTYwFY5F0Dqzb3KY/c/1sxD968TeYXher9mdOXhGcIKR6zwUTYHai2trWifuP0P0nPYFx/YgwHCiOA5u3degv3VKL+JdG/N8TRnutaFJNdsEAmD6MC9ZiADAAcAAOwIEBcKC1vVP/yz3zEf/SiL/BdbIV2p+5CD881xUD8I83ziHwBxD4VEvFVUvgBm6ucKCzc7s2D1W7oglW9sNorjVtyMT9hVRNVgJVhAP706JNmABMAByAA3CgCA6wta8qtflpEkZzrWpecKMrBuA79y8k8IsIfFcqGPpBNQ4HCueAqfx/9kR9qcWP4xutta754Ul/fSpxlwsmwKxUVf8m+wOQBAtPgmAGZmnkQEfndv2Tx5cizkXMOBeombuE0Vorm1SvFdgZawkz8pllzAIwCwAH4AAc6IcD7R2d+gePsLlPmbTvNSu1P3NRXnB+mUAouXE4eky1bmntIPj7Cf40Vjv0mSofDnRxoK2jU5/3IA/8lU33jMZa24bVHSikaikbGCWebrn79TUYAAwAHIADcCAHB8yrfueOW1jyYswVPYmgHy3CaKzVzaGVAU+6bpbe1s7CQFQ7VLxwAA705IBZMO2cexcg/iUuQvcyDRas/Nef+xgWHCukemuvC08sUW56pRH3n8P990wGfI84wIH0cMDcGj3jbhb5KbPGvSWMtiaieeH9ZQanZAbjyCuq9drmNkwAJgAOwIHUc2DDlnZ92h11Jcu3ruhG5P0wmpqYNiL8lJDq/chBKO90yx6SX/pEfeoDnwovPRUeY81Y5+LA0vXb2NgnHg16XxhNTVTz1AuuGACzLsCcxi2YACpAOAAHUsmBsGGz/shVM/cURa7k9kT0w2hp4poXnJYIcPN0dOaeVy5XzM+oluAAHHCZA0/P2aAPGTUd8c9TKyLXPaOliWwynB05GHENglT62bkbMAFUgHAADqSGA7dPWa0H+SVf2x5z0auuhbMTqf2Zi3ZoYSBjZD5dOVubhS9cdvv0jWoWDsABs7SvnNCAMPcqzGUyRVYv/NOfNenaJXCNS7MAt01ZhQGgAoQDcMBZDpjX/Fjgp0wC37fBWGPfrn/9if7ev/dVhUsG4EO/mKHXb+a1QKpEqkQ44B4HGpta9ZduqaXy71uYy4OP0c7EtzFTDxNStblkAi57ssFZ909Sdy+pM6aMaT4ceG3JJn381Tzpb4lWtQmjnU40h5YHNuQ4oCLU81bzWmA+SYXPID5wwH4OmIf9DhwRlqeytaG6tv8aErDsb77upGL2kUKqVkucVSQkP/veBcwCcB8YDsCBRHPA3O///sNs5WuZNrUKo5lONRleZRnIAzYCk+o2Jjr4qczsr8wYI8aoVBxYtHar/offzBlwHnQtr8ffn/Aqp7Q/05muZwGc2SrYkOR//2qmfrOlHRNAFQgH4ECiOGDWNDnqimrE375bAS3u3Pvf28Z4anT87ira1zvOe3BRogK/VNUEx6VShQP2c8C833/1pBV6Pxb3sdP8GI10tg0NDhZSNblmAh6Zvg4TQAUIB+CA1RxY09ymz/ot2/harD9Nwmik081TnsUDUJQrNFsGN7y5zergpzqzvzpjjBijUnHg+dqNbOZj33R/tt4YbXS+VdYPFlKtd80EmD2yzfRaqQKY44ItHIADhXJgS1uH/vmT9dlCY7sQpvP61gujjaloMrjUNQNg+vOblxsxAEwDwwE4YAUHZq5o0Z+9YTbinwhDEVyaCu3PdLIyOEBItco1EzB4RKhfX9JsRfAXWinweapLOOAGBzo7t+uxr67SB41kYZ+EaMwqYTQxVU2qCxMyOAU56OOunqlXbGzFBFAFwgE4UHYOmNzzrf+eV1DOcjEPJ6xPF6ZK+7tmAfQgIdXChA1UXoFlNtPY2sa2wVSUblSUjGMyxvEPs97UZrMyF3Oqw31aKCr1oPQZANNjPzjd1YH98e+WlN39k6iTkagZJ8YpSg6s3tSmz39oEcKfiHv9e61DYzQw1c1Xz7tqAswGG1EGOsdCOOAAHOjJgfuDtVT9SRR+c81G+1Lf/PAkIdU7LpoAs2vgKwubMAHcC4YDcCBSDixcu1V/8y7u9SdYN94RRvtoQgipxiZ4IPucejv2yhnaBGtP1873VHFwAA4Uw4G2jk59/eRGfcio6X3mHVfzqUP9Gov2dyPgBYcLqZodGtys4Dzx2hq9nDcDMEFUwXBgABxQDZv1525k9z4HdKJZGM2j9UDAC4Y6MLBZwt+zP393/Wy9bnMbCXAACbCYiom/odJOOgc2b+vQ3lMNev8K3uvvmVMT+73ROtreCOj9hFS1iR3UPB5E+eIttbp5WwcmABMAB+BAXhx4fMZ6fcI1Nb0WFi7nS0f7ViuE3m9v9eP/DQJ+1dccHfQ9AWwW6WCNAKrSpFelXH9pOVy9fLP+6u11e/KG63kxNf0zGkfrAwGpJrhOhnPHLdTtHSwUhIiUVkTAN3n4mnf6f/L4Uj3I3+t98TxmGF3Pmw70b0IfysevMgiMqD5RSLXDgcHu073/8NHFmACmgfOaBkbIkyfkhY7ZtvZOfeMrjfqIy6v7zBuu50WH+7dDGG2j5YGAH4xxmAh7Avzfxy3kdgAmABOQcg48M2eDPvm/Zu3JC2nIfanro9E0Wp4IDJm4v5BhXRpIYhbz4MFA9yu8QitCPu8+J+au2qLPuHs+wu/87Y2wThhNoxWAgBd8Xki1Mw0m4As3z+UVwZRXgQi++4LfPcZG+Ic8vJj7/M4Lf+Y5jp3CaBmtCARkcEsaDIDpo1kngMWC0iMC3WLA1/SM+ayVLfo/HliE8KdD+HfP7AS3FKF8/EkGgaHBwcJTK9NiAsyKgSwbnB5BQPzTMdbmlT7zvM9+PNmfrtsdRruMhtEGgEDXlsG70mICjrlyhn6ZDYR4MI5bIonngFm699v3LUiX6KWquu/zVc1dme3uByB9/Gk3AlI9nBYDYPppdhG89U+rEp8AqXDTUeEyztnj/MbSZn3Wb3m4L005O0dfH+6WL74OFIFRwdHCV5tygOy0u/7BI4t1SytLByMw2QIDHnbiMWXxJm1W+kxbnqK/e80EGK0ymkWLEAEv/F4aiXbKTXN1w5vbmA1gShwOWMoBc8vu63ci/GnMzzn7bLSKVgIEpJqUE3DH7zsdy3MBiJ+l4pfm2YgX523U/8x6/SQNWNUAABIPSURBVMx4ZOvPpBIoH4fMIOAFxwuptqbRBJjnAm54uVF3dNo5/ZlmIaDv6eLk87Ub9am31iJ82cIHHkabjEbRSoiAH56bRgPQ3ecv31arF6zZSkVMRQwHysyBp+ds0P9081yEDuHPzQGjTbQyICCDB7oFMY1fDxk1Xd82ZZXuZDYAESyzCKZttuPNlnZ9x9TV+u9vmJM76SOG4JLhQPBAGZSPU2QQGFZ3qJBqeRrFv2efzYNHS9bzgGDaRIn+lv6Ww58WbdIXPLJYHzxyOgKHyemPA8uF0SRaGRGQ078gpHq3pyCm8fvDRk/Xd7++hkqYShgODJADqze16d+83Kg/yc58/Qkev//AFL0rjBbRYkDAV1emUfRz9dm8f1y7agsiMEARoLoufXVtE8bmodoX6jbq796/UB84IkTYPhA2sMgHC6NBtJgQqNSDhFRVuQQxjT8zbwoM+0M9OwtiAjCC/XBg2YZWfc0fV+iPXVOD0OUjdHwmF0+qhNEgWowIVAQnCKna0ij4vfX56DHV+pY/rdKt7Z0IQT9CYFM1yrWUdvahraNTT5i9QZ997wK9fwXVfm/5g5/vtbJfbvPTJoz20CxAwFdDIO2+pDX3Mp+ZswETgAlINQcWr9uqr3h2uT7+6pm5qjh+llvgwKUvXIzm0CxCQKrHMAH7mgCDiXk+wOxFToVZ2goTfO3Bd2tbp/5d9Xp9+l3z2Ia3LyHjd8UYnccsUj4uJYOAFxwupGrABOQ2AWYvcrMneVDfjBFgRsBZDsxc0aLlhAb9N7+YUUxi528wBP1xoEEYraFZiMDwqs8IqToxAblNQDcu37xrnn5xfpOzIkAlbk8lXuqxMM+5GC7//Ml6HuhDvPsT74H+vlMYjaFZjIAffFdItatb7Pjauxkwy5o+UfMm+wswI5AoM2hW53t0+jp93oOL9BGXVw80qfP3GId8OLBLGG2hJQABqcYi/L0L/97YfKpytv6fqrV6G28NJEoIS11d23R88yCfebPlG3fO0+Z11705zP/nH+9gVRRWYxOgfFxiBgHzbqavpkL0wohuth029095YDA9U+g2iXzPazEL9Exb2px5ev+zN8xG8KnS4+OA0RLe90+YuZBvHCOkWocJKMwEdOP1+bFzM5ugmOnWnomZ7zEHpeJAS2uHNjvuXfTYEv2Rq3hlrzsW+VpcDosIt3XCaAktgQh07RfwdkREiM+Bxuj+DxoZ6u89uEhPqtvIswI8KxC5GWxsatX3Tlujv33fAm12uSRWYxU78M/OtW+zzn8CdT/rkr1gKEklmqTy0V/O1KMnLstMzZop2lJVghzXXWzN+/mvL2nWv35xpf7SLbW8o58tOAiwTXgY7aA5gIBU4zAB0ZiAbhzN8wL/+egSPb7mTd20ldsEmJbcpqVhwzb9+Iz12nuqISP4g9lwB5G3SeR7v5ZxDigfXcggUFk/WEhV0y1efI3WDJhd1MyKa+Yp7YVrtzIzkNJbBaa6f2Npsx776qrM7npmxohYizbWwLMseNYIoxk0hxAY+cZxQqq1BFDpA8i8VmjeJnhy1pt61aZWDIGjhmD5xtbMDJAZ61NvrdXmeRHiq/TxBcYlxXitMFpBcxABL/yskKqdACppAO0jAiddN0v/8NHF+u7X1+jZjS08TJhAQ2DWiKiqb87M8piHQk/4FdvokkfKm0fKgHe7MBpBcxgBT31LSPVuGci0jxByzq6EceQV1frMe+Zn9mOfvKCJZwgsMwRG7OtWb8msElnx9DL95duo7old58R+7/z8rjDaQEsBAl54EQFtV0B/7Joafc69C/SY55ZndnGb07hFm/3bebgu98N1A8WlW+Qnzt2gb351lf7ZE/X6W3fP1x+/tkYP8u3iBrHKeJScA0YTaClCwA8qS06q3p8w3dt98v85sDJPjH/uxjn6gkcW6xtebtTP127Ui9ZuxRjkOWPQLfLPzOkS+Ut3i/yJiDzxliPeUpsPjRbQUoiAVONTS/oEJ4D9K0JtRMysC29WjTPvlJu9383Ssas3taVq1sA8eV+7aos2Im+evs+I/H/Py+BDJU/lTH7rlwPjU6h8dDmDQNfrgQFB0m+QJKpiOnT0dP33N8zJTGkPeXixHv5Ug772jyszDyH+YdabesriTRnRXNvcZsUDiWZRpQ1b2vWS9dt09fLN2jwXYXZpvK9qrb7xlcbMbREzRX/+Q4v0Wb+dn3ni3rxpYZbLReTd4i65qKzjGfC6X9q9wKjgaCFVA4FX1sCzxlAYAT3myhn6E7+epY2oGuNwyk1z9Rdunpt5+O20O+r0t/57XkZ4/+2+Bfo79y/MCPEPHlmsL3xsib54/FI97A/1mYVuRj6zLCPWv5y0IjMrYW5bmPvrZobCPExnZivOHbdQf/OueZlzmFmMo66oZjW8BM9GkTcSmzcahMn9NBAQfniSkKqFYE5sMFtjKOAQHIID1nOgJZPzkT4Q2IPA8KovCqk6CV7rgxexp2KGA3CgWA50CpPraSCwDwJecJqQagcmABMAB+AAHHCOAzuEyfE0EOgVAanOElK9Q/A7F/zFVgz8HdUmHEg+B0xOP6vXvM8vQGAPArLqO0KqnZgATAAcgANwIPEc2ClMTqeBQN4IeOqHQqr3Cf7EBz/VW/KrN8aQMSyWA+8Lk8tpIFAwAjK4VEi1CxOACYADcAAOJI4Du4TJ4TQQKBoBGYwi8BMX+MVWC/wdlSYccIYDwaii8z5/CAJ7EJDBtZgATAAcgANwICkcCK7dk7/5BgQGjICnbiX4kxL8XCdchQOp5YDJ1TQQiBwBTADTo85MjyKQqRVIlzmM+EcuexywJwLcDsAEuJxA6Rv8TiwHmPbvKVV8XyoEuh4M5O2AxCYKql+qXzjgEAfM0/488FcqveO4ORDoekWQdQIwAVSMcAAOxMeB93nVL4c+8aMyINC1WBArBsYX/CResIcD6eXAThb5KYPOcYo+EOhaNpi9A9KbhBAgxh4OlJ8D77C8bx+6xK/KiEDXBkLsIlj+JEDiBXM4kD4OmFzLxj5llDhO1R8CXVsJdzr0YA2JNX2JlTFnzG3nQCdb+vYnRvw+HgSGV31RSNWCCeAJazgAB+BA5BxoESbH0kDAWgT88CQhVQPBH3nw216ZcH1Uz3CgdBxoECa30kDAegRGBUcLqQJMACYADsABODBgDgTC5FQaCCQGgcr6wUKq8QT/gIOfqqp0VRXYgq3tHBgvTC6lgUAiEfCDSkwAJgAOwAE4UCAHTO6kgUDiEfDCi4RU75IACkwAVGe2V2dcHxwtBQfeFSZn0kDAGQQ89S0hVTsmABMAB+AAHOiVA+3C5EoaCDiHgBd+Vki1luDvNfhLUU1wTKpUOJAMDqwVJkfSQMBZBEa+cZyQqgYTgAmAA3AADuzhQI0wuZEGAs4j0PWGwDiCf0/wU6Elo0JjnBinUnBgHE/6O696dHAfBLxgqJDqbYwARgAOwIEUcuBtYXIgDQRSi4Cc/gUh1boUBn8pKgmOSYUKB5LBgXXC5D4aCKQeAfnGMcJXUzEBVIFwAA44z4FMrnvjmNTnfQAAgT0IVOpBQqqxQqpdzieAZFQoVJKMExyIlgMmt40VJtfRQAAEciDgB98VUrGtcLSJh0QOnnAgXg50CpPbaCAAAv0gMLzqM+woyFQwM0FwwBEONAiT02ggAAJ5IuAFhwupHnMkAVB9xVt9gT/4x8WBx4TJZTQQAIEiEPDVECFVG0aAahAOwIEEcaBNmNxFAwEQGCACFcEJQqqqBAV/XNUG56XShQPxc6BKmJxFAwEQiAgB8+Ssr65kV0GqQIwgHLCUA+9mchRP+UeU9DkMCOyNQNfCQcstTQBUX/FXX4wBYxAHB5azsM/eyZr/B4FSIDCs7lAhgwcwAVSCcAAOxM+B4AFhchINBECgjAj44blCqq3xJwCSMGMAB1LIga3C5CAaCIBATAh4wfFCqkkpTD5xTHNyTqbX4UAXByYJk3toIAACFiDghd8TvtqEEaAShQNwoGQcMDnG5BoaCICAZQiMCo4WUj3MfgIIQMkEgBmAtM4AmHX8HxYmx9BAAAQsRsAPTheeWokIYATgABwYMAdMLjE5hQYCIJAQBIYGBwsZ3CKk2jngBEDVl9aqj36nm/s7MznE5BIaCIBAAhHwgs8LGdZhAqgE4QAcyJ8DYZ0wuYMGAiCQcASGTNxf+MEYIdWO/BMAyRKs4EAKObAjkytMzqCBAAg4hMCI6hOFVBNSmNSYyk73VDbjn9/4TxAmR9BAAAQcRsCv+pqQqhYjQIULB+BAJheYnEADARBICwJ6P+EFQ4VUzYgAIgAHUsmB5kwOEHq/tGQ9+gkCINATAS84XEg1Vkj1DiKQShFgejy/6XGXcDKxPlaY2KeBAAiAgPDDk4SvnscEYALggMMcMDFuYp0GAiAAAvsgYBb8kGohIuCwCKSv4nWpei+2LwtZzGefbMcPQAAE9kGgUg8SUl0opFqFEcAIwIFEc8DE8IXCxDQNBEAABPJGoDI4QMjgUiHVekQg0SJQbNXI3yV3tmR9JnZNDNNAAARAoGgEKusHC095QqomjABGAA5YzYGmTKyamKWBAAiAQGQImDXBPTVaSNWCCFgtAlTuya3cix27lkxssm5/ZOmOA4EACORCYMzUw4QMrxJStWIEMAJwIFYOtGZi0cQkDQRAAATKhkDF7COFVNcJqdoQgVhFoNiqkb9L7kyBibnrhIlBGgiAAAjEhoCpPnxV8denjVdjBDACcKCkHFiTiTUq/tjSHScGARDIhYDZQcwLzhcynI0IlFQEqNyTW7kXOXbh7ExssUtfrszDz0AABKxCwAtOE556QUj1PmYAMwAHiuLA+5kYMrFEAwEQAIHEITAi/JTwwvuFVG8hAkWJQJEVI+dKMN/eysSMiR0aCIAACCQegWHBsbsfGOQVwtRNX2NG8jQjJjauEyZWaCAAAiDgHALD6g7sek5AvfbXZLcrz8RIFYxpcJUDJgZey8SEiQ0aCIAACKQCAbMrmRfcyAqDVMgpNIJNGe6zM18qUh2dBAEQ6A0B82SzH54rpJospHovhWLganVLv7Jnbgy3J2e4ztP8vWUDfg4CIJBaBCqCE3Y/K8AGRNnigZgmFw/D5euE4TYNBEAABECgHwTM9qVecI7w1VNCqj8zK8BtgoRx4M8Z7hoOsxVvP8HOr0EABECgNwRG1xwi/KrzhFQThVQ7EiYEVO7JrdwLHTvDzYkZrhrO0kAABEAABCJEILPscHiBkGqSkOptzAAzAzFzwHBwkvDDCwTL80YY6BwKBEAABPpC4OIZRwgv/JGQ6iUh1V9iFoJCq0U+n9yZAcO1lzLcMxykgQAIgAAIxIjAsNePEjL8ifDV80KqTswAMwMRc6Czi1vhT4ThGg0EQAAEQMBCBCqDA4QMvyGkGis8NZ8FhzADRZiBXbu5MzbDJcMpGgiAAAiAQMIQ8ILjM7MDUk0QUrUWIQZM1yd3ur6QsTPcmJDhiuEMDQRAAARAwCEEzCtZw4OvCKmuF1LNYbfCVM8OmJ0qDQeuz3CC1/UcCnS6AgIgAAL9IVAx+0jhV50tfHWDkKqK1wydNgTmNb2qzFibMTdjTwMBEAABEACBDALmXq+nThUyGCVk+JyQqplbBok1Bc1dYxiMyowp9/EJchAAARAAgYIQqJh2svDCi4SvHhK+WiKk2okpsM4U7MyMjRkjM1ZmzGggAAIgAAIgECkClfWDRUXVKUKqC4UX3i5kOEX4ahOmoEymIIN1OKULe3VhZizMmNBAAARAAARAIBYEhgXHCj88Q/jhSCHVo0KqWiHVWxiDoo2Bwc5g+GgGU4OtwZgGAiAAAiAAAtYjYJ4svyz4hPCD04Wvfrr77YPxwlPThVQbUv4WgnkKf8NuLMZnsDEYGawMZjyVbz29uUAQAAEQAIFiEcjcTph2sqgIzhQyuFRIdZOQ6kkh1TQh1cLdJiGJswjmmo3BMX0wfTF9uinTR9NXc4+eaftiWcPfgQAIgAAIpAYBs7uc2U/ePHuQuc2ghgg/uEz44TXCV3cJX/1+91sLk4Wvpgo/VMJXs4RU84RUS4VUjUIqsy/9ZiFV++7XHd8TUpl/5vU48zPzO/MZ81nzN/Myx+g61lQh1eTMOcy5Muc05zbXYK4lPCNzbeYa2QkvNbSko8lG4P8HQgE0NVrTNz0AAAAASUVORK5CYII=;fontSize=16;" vertex="1" parent="oEuxszejH2iOCZYbAW9u-0">
          <mxGeometry x="650" y="260" width="60" height="60" as="geometry" />
        </mxCell>
        <mxCell id="IBk09pff3MUupUDNmARx-42" value="" style="rounded=1;whiteSpace=wrap;html=1;" vertex="1" parent="oEuxszejH2iOCZYbAW9u-0">
          <mxGeometry x="950.01" y="240" width="169.99" height="100" as="geometry" />
        </mxCell>
        <mxCell id="IBk09pff3MUupUDNmARx-43" value="" style="shape=image;verticalLabelPosition=bottom;labelBackgroundColor=default;verticalAlign=top;aspect=fixed;imageAspect=0;image=data:image/png,iVBORw0KGgoAAAANSUhEUgAAAgAAAAIACAYAAAD0eNT6AAAAAXNSR0IArs4c6QAAIABJREFUeAHsfQecFUXyf21ObGLZBOwSFljiEpa85AWWsGSWKCBBkoiSBFQUxAAqggkVxYiiGDAiRlRAzBeMZ0DP807v9DzTnf+7393Vf+vdG308XprpnpmemZrPZz/z9r3pnu5vV9e3uru6GoAvRoARYAQYAUaAEWAEGAFGgBFgBBgBRoARYAQYAUaAEWAEGAFGgBFgBBgBRoARYAQYAUaAEWAEGAFGgBFgBBgBRoARYAQYAUaAEWAEGAFGgBFgBBgBRoARYAQYAUaAEWAEGAFGgBFgBBgBRoARYAQYAUYgMgINAaACAGoBYAEAnA0AlwLAjQCwDwCeBoA3AOBj/9/nAPCN/+9HAMCgP/pO+52e1dK97s+L8rzB/w56F72T3k1loLLwxQgwAowAI8AIMAISEEgEgDYAMB4A1gHALX4ifg8A/h5E3sFkbsf/VKZ3AeApANgNAGsBYBwAtAYAqgtfjAAjwAgwAowAIxCEQBM/WV4IAPcBwNsA8E8FSd6oYUF1ectft03+ujYOwoD/ZQQYAUaAEWAEXI1AIwAYCQDnA8AjAPAnFxG9XgPhjwDwMABsAIARAJDn6pbnyjECjAAjwAh4CoFMABgKAFvq18xpPf0/Hib8WAwE8j0gP4Y6Ngg81U+4sowAI8AIOB6BVP9o9sr6qe5fMeGf5GwYixGgPUPG0psAQFjW1DsgpjheOrgCjAAjwAgwAq5CgKb1acR6BwB8xyN8IdLXyD/UnRwNH61fNlkIAOxD4KouxJVhBBgBRsA5CLQCgHPqR/sv8yjfNMIPZQRo39HswLF6Z8n1AEBtwRcjwAgwAowAI2AaAuSkRqPPI/VOfP/lkb4txK8ZAMH3d/xbD4tNa33OmBFgBBgBRsBTCGQDwDwAeAYA/s2krxTpBxsB9D+1EQVBojajtuOLEWAEGAFGgBHQhUCl3xs9VNS8UMTD350cXdBuTH7yR0WkXRh8MQKMACPACDACYRHI8k/xk/e+3eTF75fbBhSlkKITctjisOLPPzACjAAj4D0EKJ49hdpVMcQuGwJyDQGa0aFQxZ28J+ZcY0aAEWAEGAENgX7+bWXs0CeXZJ1itJAz5xgAiNMEgu+MACPACDAC7kUg3q/0X+Fpfl7m8MvArwFgNgAkuVfsuWaMACPACHgXAYoit6zeO/wzJn4m/jAy8HsAOB0Akr3bTbjmjAAjwAi4BwFS5ovdSPypqanYsGFDbNq0KZaXl2OnThVYWdkD+/SpwkGDBuPw4TVYWzsGx42bgBMmTMS6uqm+v6lTp+PMmbNO+KPvtN/pWUpDaSkPyovyrKzs7nsHvYvemZvbEFNSUp0y3a+nnGQIULwHnhFwjx7gmjACjICHECDlPR8APgkz2tNDCLY9m56ejkVFxT6C79mzF1ZXD8OxY8fjtGkzTiDwYEK38n8qy5gx43xl69GjJ7ZpU45FRUWYlpZmG26S2vy4P55Aoof6DVeVEWAEGAHHIkAOXTMA4CNJJGAJicXFxWFOTi6WlbVCIvqampE4Zco0ZUjeqEFBdaC6UJ3KysowJycHqa5OahsA+BAAprGzoGN1AhecEWAEPIBAb39sfuUJhqbOS0ub+absaZo91LS8UdJVPR3VlepMSwolJaWYkpKifHv5DZaXAKCXB/oRV5ERYAQYAccg0MR/Ep+y2/mSkpJ8U/ldu3bDkSNH4YwZpzh+dC/T0CCfg169evuMIsUNApKxfQDQ3DG9gwvKCDACjIALEcgAgM0A8A8Vp5RpurtDh45YUzOCCT/I6TCS8UDG0fDhI3zYZWfnqDo7QEGjLgQAkkG+GAFGgBFgBCxEgAK4kLe2MgRBa9vFxcXYvXsPnxd9JJLj307chRAJD5odIEzJGVJB/4FPAaDWQrnnVzECjAAj4FkE6LjXO1Qi/oYN83xr+ZMm1fG0vo6RfiTSD/dbXd0U35ZEMgZUkgF/RMkSz/ZKrjgjwAgwAiYiQBH8KJDPdyoofpre79KlK44fP4FJ32TSD2cMEPadO3f17SxQQSYA4FsAWFq/NECyyhcjwAgwAoyABAQ6quDdn5iY6NumR9vawpESfx/71L5MrKhNaJshtZECxsCxekfB9hLknrNgBBgBRsCzCNCeforIZuspfdnZ2Uje+zT9LJO0OC/5xgLFHaDdBBSl0GZD4Cf/8cM8G+BZ9cUVZwQYAaMIlALAc3YpcXI2Ky0t9XmjM1HLJ2orMKVYAyUlJXY7Dj5bf9Q0yTJfjAAjwAgwAjEgUAcA39hB/vHxCdiiRUscM2Ysj/ZtWtuXbRzQLoLy8rZ2Lg+Q3wrNZPHFCDACjAAjEAaBXAC4zw7ip+AzFRWdcfJknuaXTcCq5Ee7NOjApORk2yIPkmznhJF9/poRYAQYAc8i0M2O+P0Uoa99+w6uiLuvCtGqXg4KRUw+HcnJyXb4CVDsCg4n7Fk1xxVnBBiBYARmWx3Nj7zFifjpCFzVCYvLZ44PAjkMkiFARqDFs07/DwDODO4E/D8jwAgwAl5CoAEA3G2l8k1ISPCFmGWPfnNI1YnGCi37kDFIsmGlLALAXQBAfYAvRoARYAQ8hUAHAHjPSoXbrFlzHD9+Io/4XeLcJ9vYoMBCzZo1s9oIeJdjBnhK73FlGQHPI1Djj5pmibLNy8vDYcNqmPiZ+GOSgREjRmJ+fr4lsuk3gH8AgLGe1woMACPACLgegZUA8G8rRv5paWnYt29VTEpf9miS83P2EgOdSNinTxWSDFkhq/4+QX2DL0aAEWAEXIdAIgBca5Ey9e3l53V+Z5OwCkYUOQpSDAELTyG8GQCSXdf7uUKMACPgWQQaAgBFRDN9NEWH9NTUjOBRP0/3S5WB4cNHWHno0BEAKPCstuCKMwKMgGsQaAEAH5hN/uTBTafzTZ8+U6riV2EUymVQYyaDZKtz5y5W7Rb4qP7Y65au0QJcEUaAEfAcAm0B4A9mkz85+Y0ZM46Jn0f9lsgAhYkmmTNbrgHgCwDo5DmtwRVmBBgBxyNQWX82+l/MVJK0Lkv7t3nUr8YI2UszFeQkSEGE4uPjzTYE6EyM3o7XBlwBRoAR8AwC/QGADkAxTTk2aNAA6bQ3L5EO11U9Q4e2DGZlZZkm5/4+RNsEqz2jPbiijAAj4FgERpkd1rd16zZI8dyZENUjRC+2CckiyaSZBq+/T410rFbggjMCjIDrERgEAD+ZpQgpfn9VVX8mfl7rV1IGqqr6mX3k8D8BYJjrtQhXkBFgBByHQOf6A07+Zhb5Z2VlY23tGCUVvxdHvVzn0LMv5IxKW1HN6gf+pTXyr+GLEWAEGAElEGgFAF+apfRatGjJU/486neM8Tdt2gwsK2tlphHwFQDQDhu+GAFGgBGwFYGmAPCpGeRPHtY9e/ZyjOLnUXHoUbFXcenRo6eZuwQ+AYAmtvZ8fjkjwAh4GoFcAHjHDPJPTk7BoUOHMfnzyN/RMlBdPQyTk5PNmg14GwByPK2BuPKMACNgCwLxAPC4GeSfmZmJFGzFqyNHrre7ZhLGjh2P2dnZZhkBTwFAgi0agF/KCDACnkXgEjPIv6ioGOvqpjL588jfVTJAMl1UVGSWEbDZs1qIK84IMAKWIzARAP4r2wAgxymKsMYjYHeNgLk9/9eeJNsmOQdSX5xguRbgFzICjIDnECDvY+lR/ujIVSYKJn4vyEC7du3NmAmgaIEdPKeNuMKMACNgGQLZZpzsRyeseUHxcx3ZwNFkoKKisxlGwPsAkGWZNuAXMQKMgKcQuF32tH9lZXcmf17v96QM0DZBOtBKcp/a7SmNxJVlBBgBSxAYL1lR8R5/Jn5PEr82C0D37t17yjYAKL+xlmgEfgkjwAh4AoF82ZH+eNqfp8MDidDLnzt1qpBtBNAx3IWe0ExcSUaAETAdgftljv7btCn3/MjPy4THdT/Z+Gvbtp1sI+Ah07UCv4ARYARcj8BcmeTfvHkL3urHU/9sAIaQgZYty2QbAbNdr524gowAI2AaAjT1/40sA6CgoBCnT5/Jyj+E8udR8cmjYq9hQn0jP79AphHwVwBoZJp24IwZAUbA1QjcJIv809LScOLEyUz+TP4sAxFkYNKkOkxPT5dpBFzvag3FlWMEGAFTEOgGAP+RYQDExyfgiBEjWfFHUPxeG+1yfcPPeNTUjETqMzL6nr8PdzdFQ3CmjAAj4EoE4gDgRUkKCHv16sPkz+TPMqBDBvr0qZJlAFA+RwGA+jRfjAAjwAhERWCOLPKn2Oc82gs/2mNsGJtwMiDZKXBm1F7PDzACjIDnEWgAAF/IMAAyMhrglCnT2ADQMfILRwb8vfcMBeo7GRkZsmYC/ggA6Z7XbgwAI8AIRERgrQzypxCnQ4cOZ/Jn8mcZEJCB4cNrZIYLXhmx5/OPjAAj4GkEMgDgzzIMADrxjEet3hu1cpvLb3OJQYK+5FkAT+t3rjwjEBGBNTLIPysrG6dNm8EGgMDIj4lUPpE6FVPqS9SnZPTN+qO8V0TUAPwjI8AIeBIBaaP/IUOqmfyZ/FkGJMpAdfUwWQYA+fewL4AnVTxXmhEIj8BqGSOM0tJSVvwSFb9TR61cbvkzGCUlpbKMgLPCqwH+hRFgBLyGQLIMz/+EhAQcP34iGwBsALAMmCAD48ZNQOpjEgx12hGQ5DUlx/VlBBiB0AjMkKBUsKKiMyt+ExQ/j6blj6adiqnEo4PrQqsC/pYRYAS8hoBw1D+K9c+Of0xUTiVWp5R76tTpSH1NgsH+nNeUHNeXEWAETkagvQRlgpWVPXj0z6N/lgELZKBbt0oZBgDl0fFkdcDfMAKMgJcQ2ClqANCIhEYmThlFcTl5psLJMkAzbZJmAa72kqLjujICjMCJCGTW7wv+TtQAqKzszuRvwcjPyaTFZZdrdEmaBfgeAEgH8MUIMAIeRGC+KPmnpqby6J/Jnw1Ai2WAZtyo74n2XwCgg7/4YgQYAQ8i8KSoAmHPf7kjOx4pM56xyoCkHQGPe1DvcZUZAc8jkAcA/xIxAOjAnwkTJvHoz+LRX6wEwc+525iYOHEyxsfHi84CkA5o6HltyAAwAh5DQHj6v7S0GZM/kz/LgI0yICk64Kke031cXUbA8wgcFBn9U9qhQ4ex8rdR+fMI390j/Fjat7p6qOgMAKXnZQDP0wED4CUEaMpPaPqfTieLRUHxM0xSLAPmykBWVpaoEfBPAMj1kgLkujICXkZglujov3PnLmwA8OifZUABGSBHXNH+DAAzvawQue6MgJcQuFVUYYwZM5aVvwLKn0fX5o6unYDvmDHjZBgAN3tJAXJdGQEvI/CpiAGQk5PL5M/kzzKgkAzk5OSIGgGkE/hiBBgBlyPQSoT8KS1P//Oo0wkjYy+VUdIyQHOX6z6uHiPgeQQWihoAPP3PBoCXyNUJdaU+KdqvAWCe57UjA8AIuByBe0QURUZGBk/9KjT16wRy4jJaYzBmZDQQNQLudLnu4+oxAp5H4E8iBkBZWSs2ANgAYBlQUAaob4r0bQD4g+e1IwPACLgYgSJBBYFVVf1Y+Suo/J0yyh41ajS2bt0Gae96fHyC748+03f0m1PqoWI5+/atEjUAKH2+i/UfV40R8DQCNaIGAMUfV1H5cZmsmWY2ijOdYd+qVeuIBEVnS9Az9KzR93g5HfVN0f4NAEM9rSG58oyAixE4W0RBZGdz9D8vE4zRutPRtQUFBTGTU0FBIRsBBmeZJEQFXOVi/cdVYwQ8jcBdIgZAy5ZlPDIzqJiNkqcb0kUb+YeSSVoScEPdra5Dy5YtYza0QuEOAHd4WkNy5RkBFyPwTphOH5PSqKzswUqZDQBdMjBqVG1MshVKLkePrtX1LqvJVsX3detWaRhvfxv8xsX6j6vGCHgWgRQA+L9QijbW7/j0P7XX2VUkpObNWxgmpBYtWrIBoNPgrK4eZhhvvx6gQ8KSPaslueKMgEsRaBMr0Yd7rq5uKitknQpZRVK2qkwTJkzC+Ph4w4REaSkPq8rrhvdMnjzFMN4B/b6lS3UgV4sR8CwC1QEdXLeS4ABAPPrXS5Dt23fQLWfBMtqxY0c2AHQanenp6aK4D/SsluSKMwIuRWBOsHLV839xcTErYp2KWC9huul58vxPTk4RJSJMSUlBystN2Jhdl6KiYlHc+Whgl5IAV8u7CJynh/CDn+UIgDwDoIe4unTpKkpCP6fv2rUbGwA6jE/arRPcf3X+v867apJrzgi4E4EbdSqBE5QInTamhwD4We8aDOQrImP0r8lrcnIy1tVNYfmL0Qjo1KnihL6r4ajjfp07VSDXihHwLgIHdCiAkxRI7959WAHHqIC9bvy0a9f+JPkRkT1K26ED+wLEKle9evUWxf9h76pJrjkj4E4EXhVRwkOGVLMBwAZAVBkYP34iJiQkiBLQSekTExN5R0CM8jd48JCT8NPZ94+5UwVyrRgB7yIgFARo9OgxUZV/rCMUfs69ywNNmjQVJZ+w6Zs2LWEZjMEIoEOVdBJ+8PO/9a6a5JozAu5E4PciSmHcuAmsfGNQvl42bvr16x9MJNL/HzBgIMthFDkcO3a8KO4fuVMFcq0YAe8i8JWIATBpUh0r3iiK18vkP2XKNExLSxMlnqjp6R0ckCryDJKEUwG/8K6a5JozAu5E4O8iBgApeC8THNc9Muk0a9Y8KnmLyF9gWgovzO0Rvj2orwbiZeDz9+5UgVwrRsCbCMQDwH8NKIKfFcmMGaew0uUZgJAy0LNnr5/lRETG9KTlXSnhDQDqq3qwDPHsv72pJrnWjIA7EUgP0cljVhLx8QkhFT+PwsIrYa9gQ6f9meH1H01e6Z3smBpe/qjPRsMwyu90eBhfjAAj4AIEkqJ09ojKIi4ujg0AHv2fJAO0Fp+VlRVRdkTkLlpaejf7A4Q2AqjPRsMvyu80a8gXI8AIuASB/0Tp8BEVBi8BhFa0XhnpB9dz+vSZWFRUFFFmROQt1rQFBYU4bdqMk4yT4PJ66X8JSwD/dInO42owAoyAH4GfYlWqoZ5jJcsGQCCJtmjR0nby1+SUHBADy+b1z3R4koaNwTs7ATJtMAIuQ+BvBpWBT5nwVCsbABqxyjjmV0QWQ6XlUMG/yOfkyVNEDQDaMswXI8AIuAiBL0Mpzli/o73FGgHw/Rdl6zUsVCR/TYY7duzEMjpzFkqIA/C5i/QeV4URYAQA4FNNURq519aOZeXqcUdA2Yf8kKOaBGe1E0a7PBMwC2trx5yAiYH+zpEAmTIYAZch8GsDiuBnRVJdPYwNAI8aAORUVl7e9mdZEJGjwLRLTp2Ki+cIT1efVK62bduhl51Wq6uHnoRJIO4xfH7NZbqPq8MIeB4BoeOA+/atYgPAgwYAOZTRITwxkIauZzqUl+E3H7yE3350DCvat9GVNpayNG7cBL0avbJPnypRPPk4YM/TBQPgNgR2x6I4wz3TtWs3NgA8ZgDQWnLDhnmiZHJS+oz0NPzVc/fjT5+94ft789n7MD0t9aTnwslirN/n5ubihAkTPSe3Xbp0FcXyBrcpP64PI+B1BDbHqjhDPUfTql5zePNyfWka2azDfW7evuln8teMgF3bNoqSVsj0VAevLV+1bSu8XLPR68qS688IuA2BpaGIPdbvSktL2QDwwAwArZ2TI51s5zxNzpafdspJ5K8ZAcvmzwhJ4lpao3eqC+0Q8IpfQElJqSiOC92m/Lg+jIDXERhvVIFSuqysbDYAXG4AjBkzDvPz80XJI2z6msFV+OMnr4U1AH44/ipW9zfvYKH8/AKkOrp9ZkdCeOYxXleWXH9GwG0IdBcxAGgUxdEA3bn/n9q1U6cKlHCATFjyb9e6JX75zgthyV+bBfjirUNYXmbe0cJ0iFBFRWfXyjK1pYTZm65uU35cH0bA6whkAIDQeQCjRo12/ejJ7aPD4PoNGVJt+oE+JU2K8MOXD0Qlf80I+ODY49i0cWFYY0LEkNXS0ih5yJChrpNn6qNaHQ3e6SjgNK8rS64/I+BGBD42qBR8SoW3ArpnBqCmZqQlh/k0ysvFXx96IGby14yAt17YjwWNGoqSWdT0tCwwbFiNawwBCVsAf+dGxcd1YgQYAYCHRAwACgMbPILk/51lFBDxN23aNCoxisiJljYnOwtfObhXN/lrRsCRR+/A7MwGlpS1pKQER4wY6Xj5lhCt8QFWlIwAI+BOBC7SlLOROzmIMeE7i/Cpvejo3qqq/tioUSNLyJRkK69hDr70+B7D5K8ZAUcfuxNzc7IsK3ejRvnYr19/H2ZOlHUqv5G+HZBmkztVH9eKEWAEpgd0dN2KIj4+HikynBMVoxfLTOvBNCI0az9/OFkqLszHN57ZJ0z+mhHw6pP3YH6e+csBgfVJT09HmvFykt8L9U3qo4H1MPC5jtUkI8AIuBOBjgYUwgkKxY2OU24xDmifO03xk5c7bdsUbWsj6Zs1bYzvHH5YGvlrRgD5EZQ2KbalTtnZ2T5MCVuVYwlIOAOA8G3nTtXHtWIEGIEEAPjWiGLX0vCRq+osAdCIj0ipe/eeSMFfkpOTbSFITTZ6dO2In7z+pHTy14yAT994Cis7d7C1joQxYd2jR08f9irNiNFWTq0tDN6/AYB4VpOMACPgXgQeM6gcfMqFvKbdMmJWtR40yqyrm4qTJtXhuHETfNPQgwYN9pEORelr1qy5b4QvYb+3KGH8nH7q+BH4tw+PmUb+mhHw198dxXEjh/z8XhFZlpGW2oBmCKhNqG3IMKC2oqUDajtqQ2pLK2YOCgqEt04+4l61xzVjBBgBQmCNiOKjNUaRU9ZGjx7jO1o2OzsHExMTlVHkIph4OS3Jw8Y1S/Efv3/ddPLXjIC/f/oanrtioYz1btvlj/oA9QWK3099w6hRSn1Swvr/KlaRjAAj4G4EeooS1oABA3UrKopQ1rp1GxlRymxX2qL4uSV9YX4eHth7vWXErxkA2v2xu3YixRlwC540m9CmTbmhHQgDBgySgQNFC+WLEWAEXIxAIgB8L6I0W7VqpcsAIPIvLCySoaA4DwAlMBg6oDf+/s2nbSN/zQj4+NUnsF+vbkpgItKnAtMWFRXpNgJatWotisF3AEA+QnwxAoyAyxE4EKhw9H6mLVJ6pipp5K/3Hfy8GkQf3A7paam45bwVSNPwGgnbfaeybN2wAtNSU1wjZ+Xl5br6WEZGhmjdH3e5zuPqMQKMgB8BIT8AIoXRo2tjUlC0rqmSs1owofH/sRsaA/t2x7dffEgZ4g82PH5z6EHs2a2TKBEqkZ76TG1tbD4B9JwEOV7N2pERYAS8gYBwPICuXbvFZACQc5ME5cR52Dj1T5H4rttynqWOfsHkHuv/NBtwzaXnYMNce+IgyJT1tm3bxdTHunWrlNE/SCfwxQgwAh5B4DMRZUVbjmJZBqAtUiLv4bSxj9BlY5WUmIinz52Gf/rtIWVH/eEMAyrzwlmTMSFBODKebfKbk5MTUx8jnwHBtiddwBcjwAh4CIFdIkoj1u2ASUlJosqJ09sw+h89dADSlHo4gnXK968/vQ/HjhjsyGUo6jvRjGxJ2/9u9JDe46oyAowAAEwQMQAobf/+0bcDir6D01s3A0DrzmOGD0I6gMcpBB9rOelgoprBVY4zJqMZAJK2/41njcgIMALeQiALAP4lQrCxbAcUyZ/TWkP+NNVfN7YG6dCdWAnVqc+9/MTdOGPiaEx2yMxUNANAwva/fwJAprdUH9eWEWAECIFDIiQby3ZAkfw5rbkGQOOiAtywcrGp8ftVNRSOv3YQ15w+FymYkcpyFs0ASE8X3v73HKtCRoAR8CYCZ4sqv2jbAUXz5/RyjQDaKz9+VDXeu+sK/OH4q64f8UczQAiDB27d4TtfQMVZgUgGAG2xldA/aEswX4wAI+BBBDqJKpBo2wFF8+f04gYAkf7IIf1w944L8c/vvuh50g9nFPzxN8/hrm0bfX4QqgQVimQAUN+T0D94+58HFT9XmRHQEPiDiBKJth1QJG9Oa5z827Zqgcvmz8BH7rwWv/ngJSb9z97QhQGdOrjv5m2+bZCd2rWWcdCOIbKOZABICK/N2/80Lch3RsCjCNwkQrTRtgOK5M1pYzMAigoa4fBBfX0n5O2/7WqkkWy4US5/r88Q0PAiTPfdtA3XLV+Ao6r7Y5Ni4aN3YzIIwhkAkrb/0VZgvhgBRsDDCEwUJdpI2wFF8/Zq+uysTMzJzvIRTeuWzbBvjy6+/eyL50zB81Yswluvusi3XY+n9I0RukbsIncyCl58+Ha849pL8MK1y3DejAm+5YOqnl2xfZsyJMNMVH7DGQCStv/RVmC+GAFGwMMImLodUFQBiihoTmsfOTL2/8NeVP7DGQAStv/RFuBsD+s9rjojwAj4EXheRFGlpaWFjVgmki+lZSJhEneyDIjKfzgDQMLpf7z9j9U/I8AI+BBYK6qowm0HFM3Xycqfy87Gi6j8hzIAePsfa21GgBGQiUCFqKIKtx1QNF8mUSZRJ8uAqPyHMgB4+59M1cd5MQKMACFgyumAogrQycqfy87Gi6j8hzIACguFdyDQ1t84VnuMACPACGgI3CyirOggmbq6qSf5AojkSWmZRJlEnSwDovIfbADw9j9NXfGdEWAEZCIwSVRZhdoOKJqnk5U/l52NF1H5DzYABgwYKLy10H8SqEzdwXkxAoyAwxEQ3g5YVtaKZwB0RpxjI8HdRoJsA4C3/zlcy3LxGQGFERDaDhjqdEBRBag6QX7y+pO+CHFnL5uHk2qHYddO7bCkSRFSIB+qO8WUp4A+pU2KsXdlZ5w4eiiev2oJ3rf7Svzszac9v8RBGBAWdCohYUMYEVaEmRaPn7AkTAnbyWOG49oz5vsw//SNp5THT1T+g2cAJJz+RyeA8sUIMAKMwEkICG8HHDWq9oRZAFEFqKIBcGj/Lbhi8WwsL2suNB1LfhMVHcpx1ZJT8ZWDe5UnM1lt8coTd+PKJXOwon0bJAxEZITOPKC8nt9/q5L4idQ61m34AAAgAElEQVSN0gYaAJK2/9EJoHwxAowAI3ASAsLbAbt06XqC0hJVgLJIRzQfCrm75bwVwqQfCY8O5WV41cXrkQ6iES2vaum/fv8I7rhonS9EbiQMRH4jY2DrhhVKnXgoUh9KG2gASNr+R32cL0aAEWAETkKAtgZ9LqK0gk8HFMmL0tpNZF+8/TyuP3PBz1P6ovWJJX3D3GzcdPbprjAEiPgvWL0Ec3OyhEb6seCmPUPLB+euWIhfvvOC7fKjlcnoPdAA4O1/J+kr/oIRYAQkIyC0HTD4dECjik9LZ5cB8PdPX8PrL9uA+XkNLSMurc7avbgwH3fvuNB2EjPaBjdduUnKgTgaHnrvBY0a4o1XXIDUlkbrIJpOb5mDn9cMAEnb/+jkT74YAUaAEQiLgITtgAN+nroMVmh6/xdVwEbSv3f0EezXq5ttxB+MER31++HLB2wjMb0Y/u7YYzhsYB9l8BvQpxKpTHrrIeP54LbU+79mAEja/kcnf/LFCDACjEBYBOiEMDopzLACD9wOKJIPpZWhhPXkcfs1F2Nmg3TDdRetb7j0NIW+/7arLcdDD3b07IO3XWXpdH84vIK/z2qQgXt2brEcv+By6P1fMwAkbf+jrb58MQKMACMQEYEX9CqqwOcDTwcM/N7IZ70EZPT5Hz95zeeNL+qVbqSOsaahstF6utE6mp2Otjeqjh9t17RySSDWtg33nGYA0BbbcM/E+D1t8eWLEWAEGIGoCKyLUamEVUqZmZmYmJgY9vdY8zebtCj/74+/gnVja4TLGmudRJ+bP2MiksFiBTaxvOOH46/i3OnjHYPf9ImjkMocS91EnxFt66SkJMzOzpaBLW3x5YsRYAQYgagIdBZVXLLSiyrgaOm/+/hlrB0mJbyqDCUdcx4zJo62dCQbDkcaTU8dPyLmcsuSC9F8xo0c4jP8wtVL1vei5ZSYnrf/RVV7/AAjwAgQArQd8I8SlY9hgpCliEPl84/fv47TJow0XDa78Vkwc5Ilo9hQ2GnfzZsxwbH4nTK5FkkGtLqYcbdbRvzvp629fPof63ZGgBGIGYHdKigvGp2/9PgeU5T06qWnOpa8tLa59NyzTMEmFjK8aP0ZjsePwgrHUle9z5DMKjSzRFt7+WIEGAFGIGYEJmskY/edHMtGDx0g1RC4d9cVSjusxYp5QkI8PrrnOlNILBLpPXT71UgxH2Itp6rPkWzRWQSR6qrnNyJ+klXFnCFpay9fjAAjwAjEhEAjAHhQNaUtyxB4/6VHMTuzgePJS2ufwvw8/MOvnpFGYtEIjw7wsTNAklZvWXeKHPjBsceF8FOU+DUZfwgA8mPq+fwQI8AIeBqBGgD4QpZyNSMfEUOA1nyHDuitKUbX3MeOGCxEYNFIP/D3MTWDXIObJp81g6sM4ac48Qe205cAMMLTmo0rzwgwAhERWAkA/9aUoup3I4bAzds3BSpFV32mIDyBRG3G5/tv2e4qzAJl/LarL44ZPwcRf2B7Ud9eHVED8I+MACPgOQTiAeD6QGXopM+xGgLffPASNikuDFSI0j5T8KPhw4fjmjVr8I477sADBw7g0aNH8eWXX8ann37a9925557re0ZCUJeQ5W7VohRpW6MZxE95fvvRMSxrXhLy3aLyogJ+JU2K8G8fHouIn0OJP7jNbgAA6vN8MQKMgMcRSACA20QVuArpoxkCF69fHqwIhf9v0qQJErG/+OKL+Prrr8f0d+TIEdywYQOWlpYKvz8Y92u3nBuRwESMAzqqOPh9ov+rhh8d+RwKI5cQf2D7UZ+nvs8XI8AIeBiBG0WVuGrpQxkCNHql0+FklTU5ORmXLVuGL730UkykH8o4oNmB5cuXI+Ulq1wtSpuYEuWOoiU2a9pYWjlVxY8cKklWNCPAhcQf2IbU9/liBBgBjyKwXhbxqJhPoCGwa9vGQMUn9Llx48a4Z88ew8QfbAzceuut2KhRI6EyBeJ/1/VbfyYwjchE73dce4m08qmOHx1j7HLiD2zLcz2q+7jajICnERgJAP8NJA63fiZDQNYJfy1btsRnnnlGGvlrxgD5DLRu3TpQMRv+TEfxihJ+cPoh/XoZLk+gXDkBP5IVkpnAcrv4M+mAUZ7WhFx5RsBjCDQBgL+4WKmZorxLSkrw4MGD0sk/0AjIy8sTLjsF6PnolQPSjADaIy8j6I9T8PNgv/gKAEgn8MUIMAIeQOCAB5WcELHSqWx33XWXaeSvGQG0HCDDJ4Ac9oJH8Ub/3755rRB2JGtOw8+D/YN0Al+MACPgcgSmeFC5CRPYGWecYTr5a0bAokWLhMtrNLBNKCOB8hKVGafhJ1pfh6af6nLdx9VjBDyNQBoA0Mlgwgo9OI+sBhk4ZdwI3Ll1Ax559A5faFryHA9+zon/FxUVCXn7a8Qe6522FMpYClAFa8bPeH+jPkRhnqlPXbflPKwbWyPNnyWEfNAJoKQj+GIEGAEXIkBRwKSScuuWzfCGy8/Hv/7uaMgpZ9nvsyO/9evXWzb614yEdevWSW0nO3DT3sn4Ge9zoWZkqK9df9kGpMBPGsYS7xwp0IWKn6vECKQDADn7SFEaaakpSEFTfjj+akji1xSXrPfZlU9KSoquID8agYveDx8+jGZFDLQSS8ZPrL9p/SjUnWYHLjnnTExNkRdHwq8jSFfwxQgwAi5CYL4sxU8jj9ef3heR+DWFJeudduUzePBgy0f/mvFAoYXtqres9zJ+5hkAWh974aHbsKhAXhwJADjNRXqPq8IIMAIA8KYMpd65Q7muo2dF32n3fmw7pq81A+Ccc85xvAHgZfxkyK5G8tHutO2zUzs5cSQA4DesMRkBRsA9CHQQJWJKTyN/vefOi7732IG7sHbYQNsCs9x88822zQDcdtttjjcAvIgfET/JLMmuqPxHI/7A38kIoFDGou/0p+/kHvXHNWEEvI3ARlGlQGv+sU77Byol0fdqedllCDz11FO2GQD0blH87E7vJfwCiV+TW1H8tXxivdNyQIqcsyUu9LbK5NozAu5BQHj6P9wpadEUk2wFaLUhoOeUP23qXtadDhoSxc/u9F7ALxTxa/1CFH8tHz33DSsXy5CbX7lH/XFNGAHvIpALAP8RUUS01S+at384BSXyXkobLl+rDAGR0/5EDQE6NlgUP7vTuxm/SMSvya0o/lo+eu5fvXdYxlIA6YyG3lWbXHNGwB0I1IoqIdrnr0cBBT4r+u7AvEJ9NtsQeOKJJ2xbAnj88ccdbwC4Eb9YiF+TVbPlX3tP8J1CQYu+GwDGuEMFci0YAe8icI6IIqAIf+GC/AQrnVD/i7yb0obKM9R3ZhkCt9xyi20GAJ0LIIqf3endhJ8e4tdkVBR/LR+996/fP4INMtJF5YePCvYub3DNXYLAHhElROF99SqfwOdF3k1pA/OK5bNsQ8DObWyrVq0SVeC2p3cDfkaIX5NVq+Vfey/dJ48RjiNxl0t0IFeDEfAsAsdElBDF9g9UKno/i7zbiAGglU+WIWBnIJvq6mrbCVy0/ZyMnwjxa3Ioip+Wj5H7tVvOFZUf0h18MQKMgIMR+EhECdEhJEaUj5ZG5N2UVsvH6J12L4iUISMjw5ZQwIcOHcLU1FShsovUW1ZaJ+NndOdLoKyK4hiYl97PLz58u6j8fOxgvcdFZwQYAQD4VkQJff7rZ4VIWOTdlFav0gt+ngwY0TKcffbZlvsBrF27VrjcovWWld6p+B197E5h+RPFMFie9fz/2ZtPi8rQd6xBGQFGwNkI/ENECX338ctCSlDk3ZRWj8IL9ey3Hx3D5KQkIUXYtGlTS48DPnr0KNIRuqLYqZLeifjRATuisk/yKNoGoWQ61u9I9gXfT7qDL0aAEXAwAj+JKAFRJZiQEC+khH785DVhI2Bg3+5CZSD8Fi1aZNkswNKlS4XLO2JIlTBuGtHUDK4SLo/T8BvSr5cwfiS7In0vMTFBqAwSDADSHXwxAoyAgxH4XkQJiS4BpKeJrWN/88FLQkqQSGzrBjE/AMIvOTkZ9+7da7oRcMcdd/jeJdJmlPbqS9YL46YZADL2lDsNv8s3rhbGj7bPirRjRnqaUBl4CcDBWpuLzghIQuATESV0+BExJ8Cc7CwhJfjlOy8IKUEisbdffEjKYUKFhYVoZmAbipsvY+o/Pj4eP371CWHcNAPgw5cPeAo/8v5/98gjwvh98fbzQrKfm5MlVAY6F0Ck7wPAcUk6iLNhBBgBmxB4VUQJXLflPCElVNCooZASolGMRkQi96qeXYXKoWHYunVrU4yAAwcOYPPmzaWUcdjAPlIwC8S7un8vKWVzAn4D+lRKwe/3gk54RQWNhMpxzaXCx0m/ZpPO4tcyAoyAJATu0cjLyL1ubI2QEmrZrKkQcdDoM5CIjH6+ZcdmoXIEYkczAXfffbe05QCa9m/SpIm08t1z4+VSMAvE+u4btkorn+r43Xb1xVLw+92xx4Qwo+O3A9tA7+eJo4cKvR8A7pWkgzgbRoARsAmB8wPJS+/nzAbpQqGAu1W0F1JCrxzcK6QENaX5tw+PYXFhvlBZArGjNe2FCxcK7Q6gg3LI4S8xMVFauZo1bYzfH39FCmYadnSnPEubFEsrp6r4NSkuRHKeC6y70c8vP3G3EF7du3QwXA5JoYAvsEln8WsZAUZAEgITAonLyOfrLzMeDVB06viJe24wrASDFfcVm9YIKeRQ2NHIfc2aNbqCBdERubTPv6CgQHp5RNoqGK/g/yVEljupvqrht33zWmny9vjdO0+qbygZCvfd0AG9DZeFlu7C5avj+0mSdBBnwwgwAjYhkA8A/9XR6U9SHDQVaXRUOal22En56SnLnp1bDCvBYAKjWYCmjQuFyhOu7Onp6Thw4EAfse/evRtpTf/w4cP43HPPITn37dq1y/cbPUOj33D5iHxf1rzEcDsFYxXqf9oS2rxE3lJFYF1VwK+kSZG00T/hd8e1lwi1M8XyD9UO0b6jdmpRKtxOpDMKbdJZ/FpGgBGQiMBbgcrWyOdLzjnTkDJaPGeKkBKkLWjRFJ6e3/fecJlQeYxgZ1Wa/bddLRWrULjef8t21+J3764rpOJHswkibb/k1KmGyrN53RlC7/WX+T2J+oezYgQYARsR2CKiiCgtRUajbUWhSCHSdxeuXSakjNYtX6D7nZHKQ7/JCGwjiqfs9ONHVUvHKRyOY2oGCbWp7LrLyG9UdX/p+J29bJ4QTkTk4dog3PeH9t+CKXJmmK6wUV/xqxkBRkAiApUylGRhfh7q9cq/6cpNQkpw+sRRupVgOOWofU975PMa5giVSwaesvLIz2uIn7z+pHScNLyC77S9jWRBVvntzqdRXi4ef+2gdPzoKG2RutHOlWDsI/1PdWhcJM2vpLtE/cNZMQKMgM0I/E5EGWlpO7VrjR+9EvvWPFFHqD7dO+tSgpEUZOBvD952lZTgNhoudt0p6M+BvdebglEgXsGfH91zHdK77aq3rPdS0B+zlk56VVYI4aOnXckw79i2ldD7AjD9AADibNZX/HpGgBGQiMDygA4upCho9BfrcsBbL+wXeheNaILJR9b/G1YuFiqbLDxF8rl4/XLT8ImG86azT3c8fhesXmIafqKzJO8cfjimsj2//1bZMzJnStQ7nBUjwAgogEAWANDxnlKUNq0zEoHSfuNIREG7B+hQE6PvpVEmxVSP9A6jv/3j96/jrLoxhstmtE6y0i2aXWcKLnrwXDBzkmPxO3XaeNPw++q9w0IzTEmJifjD8Vcjlo+8/cnHRtKav9aOdHZItgL6iovACDACkhG4UBb5aPnQKIc89SMZArQ9TXveyP3Io2LnEUQiNDJQRLcqGqmTaBryjZBxUmIkbGL5jUhKdK1bFAsj6SnCZTSCjaX+4Z558eHbhWQ+UhRA6msUk0HCVr9QZbxIss7h7BgBRkARBGgW4CsjCjNamgYZ6Uj7lin+OCk/iuGvHSUs6nV/w+XnRxwJhVPCsX5PRDpj4uhQylDJ7+bPmIh//1T8mORY8Yn2HOE3Z+o4JbEKJbczJ9WabjyJBuLRjnOmPkR9ifoUnfBIxir1tVD1kvDd1zz6V0RTczEYAZMQWCJBUZilgELmu2zedFMNACI4Wg4456zThKZtzcaVlkM2rlnqK2s0Urb6d8KPloRUdgwkh79zVyy0BL+lc6eFlGWzZUQw/6Um6RzOlhFgBBRBIB4ADgsqCkuV28C+3U03ADTCpEBB2ZkNLK1fLG1Bxyo/cOsOy3DQ8NB7v2/3lZidlakcflQm2YF+ImHTv3elchhEkbOjAEC6gS9GgBFwOQLlAPBDFIWgjAKjA4msXO/+4NjjOKhvD2XqT0soFLsgEuGo9BttE6UjiVWRryH9eumOXyGCJ/kWZKSnKVP/GNrhRwBo63Kdx9VjBBiBAARmxKAYlFFidLKaiFLWm5amtMn3gM5ktwsnOpmOgsFQWfSW3+7nqcwUBEpiYBrd7UCnP+7attFy/I4+dqfustolY/73zgzQC/yREWAEPILAVTYrnpgVpcxT2vSQI23nonXj3JysmMsqiilFpqO1frO2P+qpv+iz5LF+/qollkZebJibjeetWITUdqLlN5L+8o2rLZMVUVkDANIBfDECjIAHEaA1v/slKBHTFR5tNTOijGWlITIhxd6udUvT6kpRFsnT+5sPXrK1rrIwC8yHjBky4jqUl5mGX/s2ZUhHPkfakhpYJrM+Txw91LQ6Su6r1Pd53d+Dip+rzAhoCKQCwBOSFYt0BUhT8apMhb/0+B48a9EsJMImz3Kj2JHHfEWHcly15FR89cl7XEf64Qj2lYN7ceWSOVjRvo0QfoQ95bFi8Wy0eokoXN1oeybN4BiVCQvTUZ+nvs8XI8AIeByBZAB4wELlY0hBqqLkA5U/HYyz76ZtvmluGvlR/PdmTRtjWmqKr47kfU4e/M1LmmDPbp18+7gp/Oy+m7fh579+1jOkH4hZ4Oc//OoZHxaECeFHGBFWhJm2m4CwJEwJW3qGlhQIc8I+MC8VPlPQKtX7kb+vU5/nixFgBBgBHwIJAEBHgCqrwCj2vApKnsvwBrfDZ6ExIONE5T5UH+hnOwBQX+frFwRoJoR2Rg0FgLn17XcBAFwNAHsA4AAAvAwAdEDSpwDwjf/v7wHtTLsotO8/BgD6+zUAPA0Ad/n9LDYAAMVgGVu/7NoRANJ+eT1/YgTUQWCWqlsEq3p2ZeIJQzxslIQmZKtx6V3ZWVUDgAjrVHXUjC0lKQCAIfXRUE8HgJ0AcKielP8cQORWt92f6o2OIwBwOwCsqzc0RgBAoS3I8EsZgQAEyvyCaXWHiPg+OlSIp83VIDqridUJ76MliYQEJY9IpiA/rQP6txc+ZgLAIAA42+/o/JmNRB9Rr4UoFxkGjwPAxQAwBgByvNBgXEe1EKBpwoUA8JcQAqpXoKU9T2cNOIEMuIzeM1R2XLROmpxL6nN07sdij0z505Q6TeFf4p+y/7ckDFVo0//ULx28WW8I7KhfWhgPAHlqUQWXxs0IkPVJJ4T9TYUORRH6mFy9R65OaHOFwv9+6x895rpZMdVPnbeo10tnAsAzAPCTCvrJojKQQUB+CefUO3R2cnkbc/UUQYBOElwNAO9ZJOQhLW+aYlXR+9sJBMVlNM9wOv7aQRUOQnofANa4/ES/rvUzGpsB4Dd26iHF3n3c72g4mOM6KMKWLi9GHwC4DADetqMjULAXJjPzyIyx1Y/t1g0rQhqsFvSPdwDg8nqP8yoX65xSAFgPAFRXu3B2ynv/UL/DYKt/p4GLRYKrpgoCjQFgnH+Z4B4AOAYAJIS0Leb/zOiwHdu2YgOAdwMoJQMmRoiktWzqS5/7p33v9fc16nPU99x60da82fWOfM8DAE15O4WAVSrnrwBgRf2OB9r9wBcjoAwCtD9WqKO8+PDtShEAj5r1j5rdgtlzD94iJMv+vkB9gi+AVvURCrfUb9UjB0YZuHIeAP8EgH0unyXivuMgBCjYhlDHnDN1HBsAPAughAzMqhsjJMv+vuDlPfpx9TOHNf7AOf8V1Q2cPqJuJedBOv2RI0E6iDDdVtRsUa9dOm/9i7cOKUEAbhnJcj30z2L88TfPYXpaqqgB8A8AICdbr12JADC9fgmRpqpFMeT0+jCkWAOr6v1HMrwmdFxfNRAQPoXwwrXL2ADgWQBbZYDOMJBAXjQ966UrCQAW1a/xk/e6DPw4D+M4UpwXcrD0ogHqpT6nXF0ninZ+OiHwu49ftpUAeNSsf9TsFsz+9uExLGjUUAb5kEOfFy4KLkaOfRQrXwZunIc8HMnRlM5AYEPACz1RgTrSGtQXoopg17aNbADwLIAtMrBz6wYZBPTH+qA9NCJ2+zUZAN4V7e+c3nTDiWYEltbvNKHlGb4YAVMRoAiDQkq0basW+OMnr9lCAG4ZyXI99M9i/HD8VWzdspmQ7Pplf5OpPcz+zClwzwui/ZzTi+lJA/iRsVZrv/hwCdyMQDMAEI7ZvXvHhWwA8CyApTJAM08GlGpwGpL9Epd2cNp7vov38FtO3MEyJvr/swBQ4VIZ5WopgMCjooq0rHkJ0ojMiSPZ5KQkoQ5qpw/Etx8dEyp7SnKyI9vs++OvYIvSJkJ198v8Qwr0P9lFiK8/YpfOvafzCGRgZEkeSSlpmNu4JZZ2qsL2gyZhj/GLceDsc3D40stw7Nk34pQL78HplzyIs688iHOveQ5Pu+HoCX8Lrj/s+23Gpft9z45fdxPWnH45DpxzHvaadDp2rJ6KzbsMwLymrTA5NcOSOknE/1/+2AzpsoWF82MERsoQ1Osv2+BIMmmYmy2kDOw8HvmzN58WKntewxxHttm1W84VqneAvA93Wfdvr+Ix4gF4Y3x8go+Ey/vWYu+65Thy+XYfsQcTutn/n3L5Yzh6xdVYNW0lthswHgtadMCERLHBQGA9TfpMzptuk1mXdUHnVYeCgAgf7NGkuBC/fv+I4wiltEmxEJkcefQO2+r8wkO3CZW9eUkT28pudLboq/cOY3FhvlC9/cqZ9r6T7LvhSqmvC/kyUMQ5GdhIyyMlIwubde6PfeqW47i1u0KO3s0m+1jzn3/dCzh+3c0+o6Bl92pMy5Kyw0QalgFtuwcA8t0guFwHNRA4JUC4DAvs+jMXOI5QunZqZ7i+hNl1W86zrc7XXHqOUNkrO3ewrexGDYA1p88VqnOAnE9To+sJl6JD/Rn1vw6olyx8DOVDI/ziNl2x18TTceJ5tyNNzcdKwMo9d/0RnHz+Huw7dQWWdOiNCUnJhjAxqW2+BIBRwtLDGTAC/i0nn4gKalpqCv7u2GOOIpUp40YIdeq6sTW21Xfi6KFCZZ82YaRtZTdiALx75BFMTZGihD+qP9KW9sQ7+aLZizNFI3qK9nlKn5iSijRirj5tM87Z/qRzCT/IryDYIDn1qmdw2KJLsE2fUZic3kCo78nAHQAobPO19acPpjlZkLnsaiCwTIZQEikZUe52pTlvxSKhjtwgI92WpQ9abqF3i7QZRdGzC3cj7x1TM0iovgFYkZOck69iAHgqoD6ycIk5n/jEJGzRdRAOXXgRzr36WdeSfrARoP0/79rncfiSLT7DJzFZOBR1zLiHaXM6ppm2e/LFCBhGgKxICooiKoz44G1XOYZY9t5wmXB97XCApKUH0ba6d9cVjmmnfTdvE66vH6/P6j2q6ahbp16DZATwMio7eSWtsc+Us3DWFQc8R/oa+Qff5+x4CvvNXIONSstlyaiRfMj/4wynCjWXWw0EKD64EeE7IU3TxoX4l3cPO4JcyJM+Li7uhPLrxaBVi1KkrWlGRrVG0tDWQ9FtcPHx8WjnDgY99f7ynRewcVGBUBsFtOkCNbqa7lLQlP86GXE7ArCICVMa7bfqORxpa10w+fH/J25HnHDOLdi23xg7/QXu5CUB3X2LE/gRoJCoH+hVEKGeX3LqVMsIUQ+ZhHq2Y9tWMSnCUPXUvrvknDMtq+/mdWcIl7eiQ7ll5Q2FuZ7vTjtlsnB9/e30vkNDrOYAgHC8Dk1WY72nZmRjt9FzcebWR5j4o/gHBBtCtM2wW+08TMvMlSW7evKhHS4tmNUYASMI0PGgeoQt5LM0wnxq3y5HkMwZC2aGrIMeHMg5jbbl6SE2I88e2n8LUgAfPWUL9eyKxbNNL6uR+gWneeKeG5BkKVQdDHw31UiHsDlNmdUx/NOz87DXpGVITm/BxMb/nzjij4bHvGsOYd9pKzEjR8rWVT394K8AUGOz7PLrHYgARRJ704ByPUk4aSngi7cOKU80Rx+786SyG6l/YX4efvjyAdPqe/y1g9Kmwl954m7TyhlM4kb//+NvnpNW3/q46q87cN9/fwD4yogsGklD+96JrMjBLRqx8e86DYFrn/fFF8jIlbaUFYvOolDXpzuQg7jINiPQz7/FJBYhi/jMpNphyhMNEVS71i0j1iNWhdqpXWv86BX5RgAZFjKWKqgeHcrLHNEm40YOkdImflnua3Of0vv6OVYF9qHQuJVjFvCIX+c0vxEjiGYEKEaCxdsItzrQ+NXbX/h5yQhQtCkpCtgJRwZfeu5ZUupKmNFMgMzlgOf33+rLU1Z7bN2wQnkDQMYuhwC8bpfcN8zO7hxZBngABifJd1x8PLbrP549+i0g/mBjYda2A77zCcjBMlIbSfztbgCgiJF8MQIxIVAEAN/JEEBaH3/p8T1Kkw7tWsjJzpLWGWmdfsPKxUIxAsjb/8K1y6Ss+WvtSGcfUDhdo9PyVqSj5QkKKqWVWfD+PQDQvnknXOTpf7lgfWPCLb95e/bqt4H4gw2BqZvvxabte8XUZhLk4mh94KBGTugIXEY1EFgjQeh8wk3b1lT3Bzh3xULpHZFmA666eL0uQ4CC/NCBN6Jb/UK13fmr1A7+Q+v+zZo2ltkOK9XoSlFLQTtwpM26hWp7+i61QTYOmrsBT7v+CK/zK2AAaAbBkPkbkZwvw7WbxO9phwAbAWiaM70AACAASURBVFG7Iz9ACJBSIoGRIpg1g6vw75++puzokwyURnnmbNuhqH2TxwxHit//4sO3I8UfoBE+/dFn+u7qS9Yj+UyIRvgL114FjRoi7am3YhRv5B0/fvIaDh3QW4qs+TEgx79EB3TlZAB4JFy7yfq+rMcwnHX540z8ChG/ZgDQncIol1fVypT/cHn9FgAKHNAvuIgKINAFAOg86nDCpOv7MxeeoiwBEWndcPn5uuojCxcr8tm940KlsV82f4ZM7CkyWoUC/SdaEUwnf/Lurzn9MiZ+RYk/0AigzyOWbUMLdgu8DQC0zMsXIxAVgc0yCWrHReuUJaJ//P517NO9s0wiUiKvfr26IdXNyMjcijTbNq2RjdPGqFJt/wNE/g/L7FvBeZVWVCEFpQkmGf5f3zY+q/Gac+WTvuiLwe0p+f/3AKCx/d2AS6A6AuQ9ShajFCWdkBCv9HkB7xx+GLMzlTjtSwre2VmZSCfpWUHkRt5x3+4rkWRClnwBwG8AgMhV5YuW1x6SWOcT8EtMSvHFp7eauPh9cg2LgXPOxaSUtBPaVrLMUHTMfJU7CpdNDQS61cci/3+yhI/WuWl7mxHCsCLN3TdsNbPTWZr3PTderizOzz14C6anST1N7ScA6KxGlwlbCvL2p5jtpshBVn5TnHjubTzqd8iUfzSjacqmvUiHMJklLwDwGgBkhpVW/oER8CNwlkwhpFG2ytsDl592ipmdzpK8Vy6Zoyz5v3Jwr9Stl37ZpGOtVb+2yexHgXnRlP/sKw8y+buE/DXjgAIItekzykyd8RzHCVBdbdhfPhq5PBaocEQ/k9f9m8/epyRJ0Zr5rLoxZnY6U/OeOn6Esrsu3nhmH+Y1zJFdf1pPJxlV+Vov2mdCpo+L80Xz4+19cqfgNQJW5d67bjnGxyfI7jdafvsAgELB88UIhEWA1ov+GFIJGZzSLCpopKwRQMf8jhhSpXUQx9xHVfe39IhiPcsyRP7U5jJlCAA+B4C8sFKrxg+nmhHhLzE5FatP28yjfpeN+sMZHaPO3GFmKOHr1OgqXAqVERggc2sgEQGNBo8duEvJmYAfjr+Kc6aOk01YpuU3feIoZcmflnxMGPnTlj86v0Lliw72oXJKbXcKHjN+/W4mf4+Qv2YUTD5/DzZoWChVlgJk8wyVOxKXTQ0E6JQpqQJI3up03K2e0aRVz9JywFmLZkmtr2z84uLikNb8Vd3uRw5/Ju2uWKxGlwhbCjqb/S+y2zu7oASnXXQ/k7/HyF8zAmZufQQzi8rM0En/BwDVYaWZf2AE/AjcLFupZaSn4QO37lDSCCBjY99N28xwXBPuxFkNMnDPzi3K4kZb/ahtZcsLANykeG/MAoC3ZNe7UWk57+/3KPFrBgDd+6+8F3NKOprRr/5av1OlTPG+xcWzGQGKD3BMtnKjPeHbN69VlsxoT31Vz65mdDpDeVKQn/eOqrvPn4L8SN7nr+H0kuKey+SQKH2vf3HrLjhnx1M88mcDAAevfxQHrL4f88oqtT4h8/4OAJAByxcjEBYBCid5XLYRQPnRNjxVzw6gafabt2/C/LyGMjucrrxyc7J8hwapOuVPsf0lh/cNxIdkTvVQptIO09L6V3Gbrjj3qmeY/Jn8fTJABgD9DTx7P+aX9w3sH7I+kwGr+s6asOTEP1iDQCsA+LOmpGTehw/qi3/67SFlZwO+ePt537G/RMYy6x0pLzrSl071U/lgHzrVb9jAPmZh8jUAlFsj2obf0ke2o2xRq854KpM/Gz8Bxo9mANB90Nr92Ki1KUcLs1OgYTXgnYR9AeAfkYjL6G90LC6dEW+Vw5+R93z13mHcumEFtm9jilOOj0g7lJfhZeevRHqXkTJalYY8/SUf6RtoSPwdAHor3q0KpW+VbdUZ5179LJNfAPkFroV79XOgAaDNBJiwHEARYLsq3ue4eAogMB4A/m2U6COlS0tNwRuvuEBp4tMI9uUn7vbtGKho3wbj443HuKe0FR3KccXi2cobQFrdr9tyHqamJAcStszP5J08RgE5j1QEmi49GEmW9f6W17QV0uEwXiU5rnf44EbBBoDPCFjzAOY2q5DZ7ygvOjOgQSTB598YAUJgillGACnOcSOHIE0va4Sj+v3zXz+LFIv/gtVLkCLzdatojzSjQUsGyUlJvj/6TN/Rb9MmjPQ9e++uK5DSql4/rXy0FFI3tka20gnMjwzLUxzQxWi6NLDcQp+z8psgbfdiEgxPgl7GJpQBQN8NWLUPGxS2FJK9EHJ8qwP6HxdRAQTmAsB/QgiQFIFs2rgQD95zo2PIUSNJt96fuOcGbFxUIKVtw8gMydJsBeQ6WhHaAgAtUUjBIjUzB6du3sfkz9P+YWUgnAFA3/c943ZMzZbeL2mAxxcjEBWBhWaEPdWUK02PL54zBf/87otsCHz2hi0YkBPiaadMFlrm0Nozwv2/ADA/qrTZ/wAd70unqkkh/4SkZBy75oawit/Lo16u+y+zIZEMAPqt18KdmJiaIUUm/bJNAa0a2d/duAROQIAitJk2E0ACSbMBKgcOcuuof9/N28we9ZPSItk5zQmCXl/WDbLIH+LicMiCTUz+PPKPKgPRDAD6vfPUTRgXZ9wXKYRc3+WQPsnFVACB6bK3Q4UQSJwwaii+/9KjtoyE3UryoepFQZDG1AySOaIIlxfFzZ+qgPzGUgTakvhTKLk08l232nlRFT+Pgn8ZBXsZi1gMAHqmVfWCcP3M6Pe1sXQMfoYRIARGyVwbDadUaafAuuUL8Ov3j7AhIHlZgLYerjl9rpke/oGK6EcAGOGQrkNe/4fCyaTe70s79cUF1x9mA4BH/zHJQKwGAD1X1Kk6sI+JfqbTN7Md0ke5mAogQKeh/U2vQjTyPDmk7dy6QdkT8UKNrFX9jo5DvnbLuVhcmC+qMGJN/w0AUEwJp1zzjMhoqDSZjRrj7CsPxqT4vTzq5br/MvuhxwCgkMEZ+c1j7YexPLfTKZ2Uy6kGAu0A4ONQys+M71o2a+oL10shaVUlWFXLRUcg79q2EZuXNIlFEch65kMHRPgL7El5AECHpgjXn5z+Jp57K5M/j/x1yYAeA4Ce7bXwBkxIThWWV7/M09bcisAOwZ8ZgWgIkAfpizKUZqx5tClrhjdcfj5++9ExNgSiLA0QRjR70rplM1lKItZ8ngcAIlQnXdfGKoPRnusz5Sxdip9Hwb+Mgr2MhV4DgJ5vP3Z1rH0ylueec1KH5bKqgUAyAFBQiVgETNozdHDPuSsWOiqQkFUzBLSl7/KNq63w7A/VnncDQKoaohlzKWg2618yZLhp+1542vVH2ADg0b9uGTBiAFCawg4DQ/VDo99NjrnX8IOMQAACZwIAeXsbFTxD6ehc+tlTxuKh/bd4fkbguQdvwVl1YzA9Tdq0oJ42obZ36kEjT8iQ27TMXDzlskd1K34vj3q57r/Mfhg1APqvuAdTMhvp6auRnqWTOZ1mwAfQEH+0EwE62OUzGcrUSB7tWrfEyy9YhZ+8/qRnjIHjrx30HVzUtlWLSJ3a7N8+BYCedgqewLtph4IUfIYtuoTJn0f+hmXAqAFA6bpM34wAcVLkuH4gt16gP3FSjyNAa78HZClVI/lQZME+3Tv7psE/feMp1xkDdH7Czds34ajq/piYmCCr0xvN5zEAaOhQmadtf28akbHgNC26DTas+HkU/Mso2MtYiBgAlLZxF2nnd9AOr1yH9mkutgIIxAPAapkBVYIVbqz/JyT8zxigA3yOPnYn/v1T5+0ioDIfefQOPH/VEuxVWYFUp1jrb+JzFCxnBQAQiTr1miQDn5SMLJx5GR/y42XyllF3UQOg/4q9mJyRK0s3bHRqp+Zyq4NARwD4lQwlKysPch6cVDsMr9i0Bumse9oiZ5VzXqzvoTKRsUKOfBNHD8VGedI6tSzl8AYAtFdHzAyVhIzUt2XI1YBZ63n0z1P/wjIgagBQ+g7j18rq4986eGbPkELgROYgQLsELjbzWGERJd4gIx37967EpXOn4XVbzsPDj9xhafRBisr34sO3+95NZaCykGOjSJ1MTPt/ALC5vj3psBynXzNl4FTQogNH+2PyFyZ/mkGQYQBQHg1bdpOlPy5yeifn8quDQCUAvC5D6VqRR1FBI+xd2Rmnjh+BZy+bh9s3r8U7rr0EH797J77yxN1IcfRpLf6Ltw4hkbg2uqfP9B39Rs/Qs5SG0lIelBflSVP59A4r6iLpHa8CQDd1xEmoJDT6f08UFzqUZfz63VKUv4wpZM7D2b4EsgwAOjUwLj5Rhm75nk8LFNIznDgIgQQAWF6/dvydqPLl9HI812PAkaYCl9WP/Knt3HKNi6HeURVo2/7jmPx59C9NBmQZAJRPSY9xUeU3xj5wvls6PddDHQQaA8C9AEDnw8sSVM5HLpbUNnsBoFgdsZFWksOicpeUksZ7/pn8pZG/zCUAMgAoNkBSWpYMnfglAKRI63mcESMQgADtHbc0lLCo4vdI+lcAgA58cuNFMiesGLuNnitV+fP0vbOn72W0n8wZAMqrbMg8YTn39xU6JIsvRsAUBGgb2RQrDxaSQQAuzeMjAKhz+Na+aEL6gGjbpWbm4JwdT7EBwDMAUmVAtgEwcM0DsiIE/tblOiGazuDfLUCAdgvIslg5H2NYUhu4+WoqYzdK78lnSFX8MkaPnIfzZxBkGwCUX/nI02XpwmFuVgxcNzUQkCWsnI8xA0ANKTCvFBTcREg2aPQ/96pn2ADg0b90GTDDABi0dj+mZhcIyby/zzxqXrfknBmB/yEgQ1A5D+Mk52Y5pF0Mvxc1AHqMXyxd8fPo/X+j9z5TzsSa0y/DmVu9GVXRDAOA8mw9fJEMnUgxQMh5my9GwDQEZAgq58EGQCgBFd76l5zWAOdsf5INABNG/4QrxP1ymE16dh6WdqrCbrXzcPhSbxgFZhkA5AuQ3KChDL24NlTH4u8YAVkIyBBSzoMNgFDySIcWCclGlxGzmPxNIH+aARm94uqobeN2o8AsA4DybTlodlR8Y+gf74fqWPwdIyALARlCynkYJzpZ7ahaPvkA8K8YFFxY2YmPT8AZl+5nA8AkA6DXJGPOaunZjbC0ogqrpq10fNuYaQDQQUEJSSlh5VtH3+irWufm8rgHASEBVeSUPKE66OiIJ7xHUt3dI0kn1mSJUVy1dC0rhziCYE696hkcOPscR5Q10PehZffqE+RZwz3Wu13tQ1gT5oF1MfrZTAOA8i6uGCaEsb8tbj6xa/F/jIA8BIQElOLv795xoe8EvcwG6UJ5xap47Hwuq0GGr65UZ6q7hLLIa0m1chIONjVm9U4pSt4oOcSSjnYnFLfp6pODzjWnKF/ewDpl5TcVkt+eE5daXl/yT6A+V1jWCU/d8bTw+802AHrMu0oIY79++cYlh4GppaG4ND4EhARUO5CH7t99/DI+ee8uXH/mAt+hPomJCUJ5SyBX4fdTHfp07+yr01P7dvnqGFhnCWV0oxiWioaczilqJqzcA8nOjM+B5K/JgVOMgGAHQK38eu6jzrrK0jbSyF8rowwjwGwDgPLPalIurIcAoMaNioLrZD8CQsIZSIbBn//y7mF87K6deP6qJThiSBXm5kiJky1UXk15hLs3zM3GkUP6+cpMJwpSHYLrFfh/uHx0fG+/BMgvwSod9Q/ZnrQ+bQZpy8ozFPlrdXaCERCLA6BWn5D3uDicve0Jy9oomPy1MokaAVYYAJICA90ov5tyjoyAcec1n+IOJMNYPr//0qN4/y3bcdPZp+Ok2mFY0aEc7Vg6oHfSu6kMVBYq0++OPRaR7EPVT1NEAnc3yuDzAnhgfEKi0of+RCJ/rd6qGwG9JhpzANTql5XfxHby18oiYgRYYQD0X3mPDGdAOiDITaeDulHvObJOIUdgWueKdg9Fika++/2bT+Oh/bfgHddegpdvXI0rFs/GGRNH+2YOaAq+Q3kZNm1ciDnZWb6/lOTkn8tNn7Xv6Rl6ltLQrAPlsXLJHF+ed153qe8dn735tG6iD1enaPjE8LsjhSZCoRsCAAUw+bl99H5uVtHPMnLROyMQC/lr9VXZCHCKA2C4kb+GsXY3agRYYQDQOwo7DDLcH7Q6AsCACP2Of2IEDCEgJJjhiNEr3wd0TqM4Gmo0hRPNFMVk8LwLlDQA9JC/hoGqRoATHABjJX8NayNGgFUGQMWUC4zqh8B02xXu91w0hyIQKGC6P3uF6MPVU1M+AneHik3YYt8rgAUmJCUreeqfEfLXcFDNCJDhAEg+BHpnT/Q8r5f8Naz1GgFWGQB0PkBSWqZu/arVy39/O2yv4x8YAR0IUHzpxQDwZJCA6RbQcMTole9F8fO3AbWFG2J+xwMAbVnSLUdamhZdB5lKLHpISHtWhPy1eqlkBKjuAGiU/DWs9RgBVhkA9J6iTmJxF/w7a4p16Hl+lBH4GYF2ALAOAF4W3aKldTS6e4Xow9UzEAvBz/8FgFf8bURt5cSrqyAGqNr0vwzy1zBRxQhQ2QFQlPw1rGM1Aqw0ADpN3mDYMNbqBQC0xMYXIxAVARqN9QGALQBA8aRlCN9Jebz65D2eNQKo7mbh6m8zajtqQ2pLJ1wrRPCIi4/HWdsOKDMDIJP8NVxUMAKEHQC7V5vSRrLIX8M6FiPASgNgwOr7MT7xF+dlrZw677c4QRFwGe1BIBEA+gHAVQDwuU7BMkRmqSnJeNOVmzxnBNBuhYz0NEOYGWiXrwDgDgAYAwAp9ohWTG992EDdfsawsKzCFGLRpvL13CnUbFGrip/LJlKv4LQDZq+3tZ60hS+4THr+pxkEPVjG8ixhoqcMsT5LbRgpbLCVBgC9q2HLStF60vHafDECPyOQXT9anAYA9wDAd7F2DNnPnbVoFv5w/FXXGwJUx+WnnSLaiUXSUxuTox21ObW9KhftURZa/+8xbpF0YomFfIKfMWPkr/U3MnJkhLANLnOs/6vqAGgu5uHDBlttALQetlCk72tpW6rS6bkc9iCgOfEdBIB/asrF7nvvys7460MPuNYI+NVz92OvSnNGhQbbjtqeHDlVcCKsMFgHTanh+HU32W4AmEtE9pI/GQkqOwCai31oI8BqA6D3oht/lneB/kLGP18eQ4CsvjMB4AgA/EdAeGQIYNg8aEng3BUL8fvjr7jGEKBR/0Xrz0Cqm6q4+8v1Tn2f2AgAlTb0jfki2CSlpOH8nS/aagCYS0D2kz8ZAHSAj0g7UfyAWGcbjDxnbhucbARYbQDQ+1IaNBRqAwDYZkP/5ldajAA5fvU224lPRBlEStutoj0++8BuxxsBT993E3bp2Fa0w9qR/ncAsNVCJ8KdkeQh2m8lHXqbSizRyMhc4lGD/AkDOsI3WltE+p0cCKNhKfq7uW1xohFghwFQ0H6AUBsAAJ20yZcLESAHrxEAcAMA/ClSR3TKb6Oq++PrT+9znCHw2lP3+g4FcgrOUcr5BQDQYSIjTXQipC2MhhVbj/GLTSeWcMRkLuGoQ/5UfxUdAEO1i7lt8osRYIcB0KZmieF+4u9jP/K5AO5hfyWc+ESUd7S08fHxOG3CSDz62J3KGwJHHr0Dp44fgVTmaPVy6O/f+50Ip0t0Ikyuj1/w/0TwGL3iGlsMAHOJRi3yV9UBMJQBQN+Z2zb/MwLsMAB6zL9ahm7p5B4K9F5NlHTiE1HgsaYlJzraQqeSjwCV5fZrLsae3TrJ6JhOykOWE2HnWNs/1HNxcfG2hP81l2DUIn8i1FFnXSUmmxYfAWyFETBg1T602ggYtPYhGfEAZnmPNp1dY0c48YVS0GZ8R6f30Ul9dAzvdx+/bPnMwI+fvObzUTh97jQsaCTslCOmWAWmziW3jVEnwqki5cgtbm756N9r5E9kqroDIJUx1J+ZbZXdtB3aYQRkNSkX1RkXOZsO3V96RzvxiSh0vWmzszJxUu0wvGLTGjx24C5T4gmQJ/9Lj+/xvWPi6KGYndlAtAO6Pb0eJ8Lz9bZ54POte40IqfhDkYGM78wkFLv3+UfCxwkOgOHKb2ab2WEENKkcLao/7nM/hTqvhq5z4gtU1FZ9bpCRjv16dcM5U8fhhWuX4Z6dW/DFh2/H3xx6ED965QB+8fbzJ80Y0Hf0Gz3zwkO34Z3XXYqbzj7dl0dVz65IeVpVfhe+J5oT4V0idbbSAdBMIlGZ/IlYneIA6AUjoHzkMlF99Fvn0aM7S5zuD9FKoVq/FVGEnNa4FzljZxl2f6+PM/AoAMwGgBx/l35DBP/hS7daMgPgZfKffeVBhLg4IdIx+wjgcMQf+L2ZbWjlTEDXU7YItQUA/MQ7AewzKFznxBcXB9i9TQ5unF2Or183AG9e2RnTUxNEhdTz6QlDwpIwJWwJY8JahDAVSqs5EZJRYLhOUzffa7oBYCZxqD7yJwKV4QA458onTW+nQLIP99nMtrTKCOh31l2G+0tAX2thHwV6781tzThON6AxZQiErjySE+Oxumsj3L6kA/7u1iH4/cMjT/g7dnU/bNU4Q1eedtZHtXcTdi9f3e8ETAljwpowJ+ypDVQrt5XliU9MwgU7D5tKLGYShhPIn4jUqQ6AbjYCktKyRPv+EO/RsLU17lD/OgqtSt7Roo2lRPq0lAQc0aMAbzyrAj/fO+wkcgo2Av50zzCcUFWkRNmd1AajehbgH+4eGhXfP+8bjveeV4nTBjfBrPREz+FM69LhlLyM75n8/+dZ72QHwHByYGbbWjETkNVYeCfATGvp0P1vc6UTX1FuCs6rKcEHL+iOX91fE5WUgo2A7x4aiVvmt0MyHpxEwnaUlTC67LT2SJgF4xjtf2obaiNqK2ozO8pv9Tsbl1eaZgCYSRBOGflr5Ol0B0CtHsF3M9vYbCOgoG0/0T6+2v2UbH4NXenE17woHRfXNsMnL+2N3z40QjcZhSKrt3YNwsFdGokKrWvTV3VoiG9eP0AK1oT/K9f0x/XTWmHbEvduWSzvW2uKAWAmMTiN/OU4ANoTqTGY8EP9b2Zbm2kElPQcL6oL+VAgg/aB6534QhG4jO9oZLtzeSfMaZAkKryuSZ/bIAmvX15haNQfa5sEOhHGC3pzWz3Kj/S+bqPnSjcAzCQEp5E/EaabHABDGQD0nZltbpYR0GroAlEduNcg/3kyWaATn7LH6UZSlsG/RXPii5VcjDz34W1D8JTqppgQL7a1KLhOTvo/MSEOZw1tih/dfrIDpRFMY03jJifCvlNXSDUAzCQCJ5I/kaPbHADdYgR0GLdG1AB43pNMHmOlXRmJLzM9ESf1K8ZbVneJyYkvVlIx+txr1/XH8X2L3LS1LWqnpG185Bj5xk550/1G8f/j3mE+WSCZINlwkgFFZR0yf6M0A4DJP3QoXVEHwLLuQ6W1UTjylvW9mTIgeyag87TNov31rRi50DOP0alkrjpOl5SkqBOfUXLRk+6FbX1xSFf3+wcM7ZaPh6+skrbOrwfjaM9+/YDznAhHnblDCrmYqfidOvLXSDWzUWMhouk16XQpbaSVx+y7mbIg0wjoPne7ULvUB+M67hlmj1DRLACYBgD3AMB3ThsBhStv6yYZuGJSS3z2sj7SnPiiEYiM3w9vr8LZw5piWrJ7dgyQZ/+pw0vw6I6T9/TLwMyMPMjxk2SHZIhkKZyc2f39+PW7hcll/rXPY3GbrqbUsahVBZ561TPCZTSb9MLl73YHwHD1pjajtjNDvnNKO+LAs/cLnyLYZ+lu0fL9OQIvuvqnfH8oUgpJKnQOuRkCYjRP8vYmr+8Xr+yr5AhTD1FRjIGrlnbE8qbO9WBvUZSOm2aX46d7ou/n14ONHc/+9saBuHVBO+zdLhdVciKs23i3MLm2HzRJVJGGTO908idy9IIDoB1GQNPKWmEDQEI0wB9dzfJBlWsEAEsB4DAAsBNfUNQ+O0gllnfSSPSJS3rhkjHNsWl+WkhFa9RgMiNdSUEaLh3bHA9K3D4ZC05WPqOSE+H0Sx4UMgAmn78H4+LlR1N0+rS/Roo9JywR6nPZBSVC7aOVw667WcsBcXHx2PO0nUJGwIBV9wm1DQD8FwDI1821VxoAULSjxwHgX2YofKvzVM2Jz0rioS2E5CuwanIZdmyeqcRIlHYxdGqRiavrylwx86K3PcmJ8NY1XXyOpXY4Ec7adkCIYDoOqRNVoieldwv5E+l6yQEwnJFhlhFQ0mOckAEwaN3DJ8meAT5q4Eb2L6y3bC4EgK8MACIDVKl5OMGJTy9xyHieyGf/xh6+ZQ8KMNQgzXwvdiI5ehcttTy0sQdSGWTUxQ152OFEeOqOp4UMgNzi5nL7qsPX/INJ0GsOgMH11/43wycgI7+ZkAEweP2jGBcvrPNy3WQAtAeAm92wru9UJz67iez9Wwb7lgwo2NCaujKc3L8YB3TKwy5l2VjWOAMb56VidsbJQYjoO/qNnqFnKc3kAcV49pQyX5AemtIPdeCR3fVV9f2BToRtmprnRChqACSmpEozANw08ifi86oDoEb6wXfZMwEJyWnCBkB8grABQE7wjr+aAsCNAPBvJ4/43eTEpyoxcbn0nzEgAzOznAhFDYCkFHl+JYVlnVC0PMGkY+f/tMVSSJ/GxaEqRwDLwFG2AZCYki5sAJAvgVAbAWQ4mf1zAGArAPwkCIIoiIbS2xmJT4ZS5zzsIVOn4/7BbUNwx9KOvuOMRXcUzNnxFC8B3BA6gI8o6XndATAQP1WXAACEI6mSn5zjrjgAWAQAXzuN+L3sxOd04uLyyzd48rOTDRnPWr8XdwKcIvR+rRyBd7fMBLAD4P8MK9kjf01WSnqKOQEOXv+IDNmlE2wddTUHgGc0EJ1wz8tK9p3XTue2GzlOl4lHPvEwpmpgWlogNgU/49L9QjMAUzbtxfh4+UGn3GAEsAOgeYcESdkGuPp+GQZAolPYn/YrLgcACl4go+Km5sFOfGoQDBO92u0gelQxEXjgVK2Rzx04ENBJGLID4FFfBEezogE2wNcKpAAAIABJREFU7T5GeP2/avmdohz2fwBAs+nKX7St7zmViZ/WMru3ycGNs8uRjl5l4lGbeLh91Gifrq2yhZTYxHNvPYm89BoBHAr4ZB8CrzsAmrHmr/FXTmknHLRWPBRw78W7hPqOf5u88uRfBQCfa+CpdGcnPjVIhMncue1Q1aGhkBIbveJqYQOADAaz1nlJXzlxOcDLDoBmyoLMw4B6zLtKqO/UB8n7UHX2pyl/pSL4sROfc8mGDQX12m54Zb6QEqtecKEUA4CNgBNnAbzqAOgU8qcgQF2mXyTUdwDgVVUNgCQAuE2V0T5H4lOPOJjM3dEmM6ubCCmxvlNXSDMA2Aj4xQjwogOgk8ifDID2Y1YK9R0AeEpFAyAdAB6zm/zZic8dBMOGgtrtSMcNi/T1bqPnSjUA2AiQEwGwduW10tuF2sasP6eRPxkAZUPmCfUdANinmgFAcYmPiigEo2nZiU9tomAid2f7XDq/nZASa9N3tCmkYCYhqO4T4DUHQDPbWuaaP5F+4F9JrwlCfQcArlXJACgCgLeMEriRdHFx4DvffNuiDhzn3SHHA7Mh4C5DYPeqzkJKrHF5pSkGgJdnArzkAOhU8idDIL9tlVDfqY+gu1YVA4BG/r81QuJG0rQoSscLZrXBd24axNv1mPhZBmyUgUcu7CmkxGit2qxpYa8aAcIOgD2GmdomstrbyeRPBkBmUZlQ3wGA6SoYAHQYwTEjRK43Te92ubhnXTekk8p4JOmukSS3pzPb883rBwgpsfjEJFyw87CphGMmUai4HJDZqFioTXpNWmZqe8gwAMxsUzOn/QOXABJThE/ZpC32tl4Uh5g8EYUELlr6vu1z8emtvZn0bRzpMUE7k6DNbrevH6jBhHixA02mbr7XdMIxkzBUMgJkRABU3QHQzLa0ivz7nXW3DM4ssZP9KQTh3mjkLfJ7edMGuPecbkz8TPwsAwrLQLNCsfMAhi/ZYroB4JXlALc7ALqB/GkWoNusraIGAIUBTrDTAFgjQu6R0qYmx/tC8n7zIE/1mz2C4/x5ZC8qA4O7NBJSZj3GL7bEAPCCEUBYRtKt0X7LLiyxrC30LgW4hfzJAGhTs0SoneyOAjgUAP4dTZiM/N6jPAdfu64/j/gUHvGJEgand5fRsWBkqZAya9VzuKWkYyaR2L0c0KLbYKG2KFPUAdDMNrNq2j9w/b9x1xFC7QQA++0a/dNxvl8bIfdIaWgf/7qprfBv+3nUzwTpLoJ0e3uKxgLIKWpuqQHg5pkANzoAuo38yRAgoyMSH8bw24V2GAB09jDFHxYt/Anpcxsk4f3nd+dRP4/6WQYcKAOPbhbbCkhnq8/Z8RQbAYKR8tzoAGgm+ReWVeCAVftOCM4TOEo36/OgtQ9hQlLKCRxogFOn2GEAbDBQ0IgVbd8sE9/axfv53T5K5Pq5d1bjs7uGIgXlEtENo1dcY7kB4LaZALc5AJpN/qfueNpy8iejovvc7UJ9xd/P2lltAHSVfbJfr7a5SMqDycG95MBt6422Fd0JQNHr9DqFyXreXKLphEQ0ssoaKR83OQCa2yYVP7eJWaP8SPm2Hr5I1AD4fwBAs/GWXbTfX2qkPzpG9M/7hjP5O3DKl0ndG6Sup53H9ikUUmolHXtbQpLhCNRcwrHGCHCLA6C5bfEL+ZMsRCJqs34r7DBIqK/YcQzwRpHpveC0wyrzkQKI6FEw/CyTDsuAujJw3szWQkotKTUd5+98kY0AAT8ANzgAWkn+dhkAKZli22YBYLtlQ38AoGhD/wgmcaP/U1Q/M0f+L1/dD08f2xzblTbAjNQEIaVktI6cTmw9mPHzJn7j1u6y1QAgQjCXgMybCZi97QmEOLGIjHZHADQX+xNH/tpMkFmj/HD59lq4UwYn1VlpAOyRpZArWmbh53uHmTLypxmFhaOaCYcllVVXzsebJMbtbrzdu49baLsB4FQjQIoD4PYnbcPfDvK3Ywag9dDTZBgAja0yAHoBwH9lKLX87GR8d/dgU8j/L/fV4JCuwtMqMhqG85C8RVSG7HEexknZSuwoiI42MrP7fupVz2BRqwpT+vOA2eul19PpDoCEiRmyRm1IbRlOnsKN1M36Pq9VD9F6HreK/Ok9R2U0SmJCHD5+cS9TyJ/WhZeObS4KKqdn4mYZsFkG4uLjcdYVB8Iq63BK3KzvzRiVVtbON6V+bnAApJ0gMvhGy4P2+UfbgWEW0YfKd8Dq+2Xs/7/TKgNgmAak6P2SeW1NI/9Xr+0vvAdZtH6c3hkjTG4n9dtp0KnnmUKQRo0EmUaAWeRPdXODAyDVQ5YREAv50/tCEbVZ33WadK4MA2eeVQbAMzIU5uDOefjdQ+Z5Ly+qbSYDVM7D5tGfDFnjPNQn+Ght1LzrQKUMACIJGUaAmeTvBgdAwln7EzUCYiV/qw2Aok5DRHmGluOLrTAAekTrqLH8npWeiO/ebG6Uv04tMkVB5fRM/iwDishAYlJK1GlbjSisvIsYAWaSP2HgdAfAUO1o1AjQQ/70XrNG+8H5Dlq7H5PShLnqTSvIn95xfywEH+2Z687oZNrUv7YnPJ23+jF5KUJe0foD/x7bDMXguef/PBoMRQ52fWfECDCb/AkLpzsAhmtPvUaAXvKn9wYTtVn/V9SdL0NPX2SFAUCn/f1HVFn1bJtj6tS/ZgBkpifKAJbzYBJlGVBEBko7VSlpABBh6DECrCB/KpOoA6DVxzGHI/xQ38dqBBgh/wXXW2cAFLQfIEO/VFlhAJwvSv50MMhzl/cxffRPRkBpQZoMYDkPRZS/qOxx+thG2SrjFJ+QiKdc9qijjQCryJ9IMzOvWEh/9Z58hrJYU/2iGQFGyJ/ynXfdEUtmAPqvvBfjE5OF2ggA/goACWYbAHEA8JGocqgb0NgS8icDoH/HhqLAcnomf5YBxWSg58SlSpNSpJkAK8nfbQ6AoWYBIhkBRsmf8jz12sOWGABtRy2XoV92m03+lP8AUfJPiI/D39440DIDYGZ1Exngch6KEYCoHHJ6Z88EZBeW4mnXH3GcEWAl+ROJudEBMFYjQIT86R2zr3rBEgMgq3G5DH6hbfmmX2RlCBV28oBiy8ifZgDWTxc7hES0vpxeTF4YP8YvnAzUrrpOaQOASCRwJsBq8qf3izsAliqPcaBBoC0HiJI/5Tlt2yHTDYDuc3cI8am/b3xpxfQ/rS98Ha4zxvr94e1VlhoA1y83J1xnrPXl55jAWAbMkQFybgtU/qp+plCzA2efY0tZW3QVO1pWZQfAcO1NWEcK7xsuXfD3E7c8Y7oBUNx5uAwD4GrTh/4AQB6GQoUd3KWRpeRPMwAUYli03JxerN0ZP8bPDBmg0MDTL3nAFmINJgtV/+87bSXSron07DxDerDXpGWexbd285OmGgD9V+zFhKRUQ+0S1J8s8f6/OOilugt+y+oulhsAb98kZgGL1pnTM/mxDJgnAxXDpnuWoPQaHTO3PIzDl16G3WrnxWwU2H0EsN46ynv+CA497zFTDYCWA2fp5tAQuuQTACDnfNMvijJkuMDZGUn45/uGW24AfPPgCKTDhkTKPnXqNFyw4DT+YwxYBiTKQHV1tVC/pD6dnN4A59h4TK08wvkl1K2VeUY0CuLiPIvt7KtfNJX8B655AJMzcoTlHwDOMZ35/fGFhY79nVdTYjn50xIA/YnGAhg9upYVv0TFz8YUG5MkA/Pmzcf09HRhJdh93EKeBQiIlS9qQGhGQZ8pZ3oW17rLnjXVAGgzYqmw3APAPwGgyAoDYLLICJrSPnxhT9sMANFYAAMGDGQDgA0AlgETZKBr127CijA1I1uK05cocXJ6e2YxzMB9xAUHTDMAKO5/ak6hsNwDwD1WkD+9Y4uIAUDx+L+6v8Y2A0A0FkC3bt1Y+Zug/HkmgGcCpk+fgXFxYkt0pJt6TTzds6NVMwjQy3nOucbc6X9Jo38yIAZaZQA8LWIA1PYutI38fbEAprUSsrbatGnDBgAbACwDJslAs2biR3anNsj27Hq1l8najLpPuPRp00b/A89+EFOyGgnxkZ+L37PK+Y88DCnOsOFCb1/SwVYD4IYzxWIBFBcXs/I3SfnzLADPAowePdqwbgnUS11GzuZZAIm+AGaQq+p5zt95BKvPNc/7v/XQ06TIOgAstmr03yKwkxn5fHRHP1sNANFYAJmZmWwAsAHAMmCiDBQUFAgrxsTkVJyx5SE2AtgIMCwDk7aaF/yH9v0npWUKyzkA/Kl+WT7VKgOgxgjpa2nSkhPwrw+OsNUAEI0FEB8f7/NY5tEqj1ZZBsyRgaFDh8lQjFjet9aw8ld9dMrlM9fJcN51h00d/Zf0GCdFxgHgbKvIn96zUCNzI/eebXNsJX/yAeBYAOYobSZDxlWmDOTm5goryLi4eBy3dhcbATwLoFsGxl70lGlr/70X70I6xtoIhwal+RYAsq00AC4KKoCuSswfUWq7AcCxAJioZBIV52WOPNF2WxFdo6XNb9YWF1x/WDcB8Ajb3BG2yviesuMFHHzOo6YZAHlllVJkGwAoIq+l1x1axzJy3zi7XAkDgGMBmKO0mQwZV1kyQIGBsrKypCjKfjPWsAHAswAxyQA5/g3b8Lhp5N9h/FopMg0APwBAgaXsDwDPGyF+Lc0tq6yP/08j/uA/jgXARCWLqDgf82Rp8OAhUpRlSnomztz6SEwEoPLIlMtm/qxE7eaDppF//5X3YHKDhlJkun7b3yaryZ/e95ZG5kbuT23pfRIZB5OzFf+vn95aqBE4FoB5Sp8JlbHVZGD+/AWYl2fs5Lpg/dSsc382AHgWIKIMTDY55G+TriOFeCdApv8CAJl2GAAfBxRCd2V+e+NAJQwAjgXAJKORDN/VloWamhG69Uw4HTV43gURCYBH2OaPsFXFeNq253DwevP2/HeediECiEe59Mv2GXaQP72T9hwa7pAf3jZECQOAYwGorfSZlLl9AmWgqKjYsM4J1FcUIXD2tifYCOCZgP/f3rXGxnFd58O3+JJIig9RD0qkJEqyRFIkJZKSKFKURD1CiXo/KIqiRUmOE8OxDTt2lDiOYTutY8DxQ7ZVOE3TtKndNg83NmrUjQOjsVMgKVoEDQKkBZq0rv+0TZu0KdqgCXKrs+ZIw9Xu7MyeO4878wkQdrkzs3vvueec77uv787xgTNPvaV2+rjoj/f8l1XrGckiIu6El4ZFAH5qDyiv7997eTQSBABaAAAYO8DgfbT94fDhI1rOCOB8BYXA5PbyM40+nH7SX/AfufyaalqvZ0fLLN5OhAX+/Lt85GDebPwnXw3vECD72gJoAUQ74QOQ0T7pPrBu3bq88449Z5WUlauZK2/N6QFmAgZ8FnOicPXbKjXn72PPn8F/3djdWvx21od5ET7L8Yf2T1QZOwiH/b6lsVxUl7GxA5CD9VEONh0A8HeyScHU1JQqK5snilmLCBx64HMgAAmeBrhw9R118NE3fFvtz8DP//suvaCKSvT4LBH9HxGtDw35Z39YFIBhg77996EFkGxAAaEwr/0HB7eL8o9FAIamLoMAJJQAsMjPHh/3+VvgP3TfV1Rlg/xkS8tnieiJsMGff18UgHYADvs9tADMAwCAdrLbjLcF8mFc0jw0cv4hEICEEQDW9k/J+/o85G8RAM3z/u8SURUIQAZRn3yJBLQAkg0mIBPmtf+xY8e1LAbc/5HPggAkhADMvPC24lP9/DzW1wJ963XlyHkxSU0juceiAP6xGgG4+pFOUSM1NzdjDQDWAMAHAvSBtrY2UcxyUi0um6fOP/MmCEDMCcD0lW+pI7/xDbXr4/7t7bcA3/7adfpRxYdQpQG45O+vRQX8Y0UAoAVgXg8Qvfbktpmu3v+qvj0A/1iC/zvq3LPfUiee+Kba96nXfV/gZwd9633fxSuquKxSAvbpz7LuzkIQAI1D/9aUAbQAkgsmIBLmtb2O3j8VFKijD34RBMBUAnD1HcWH9Zx/7m019exfKN7Df/TxN9WBR99Qux8Mtqdvgb71uvXOL6p58xvSAVz691iUwD9WIwDQAjAPBHIB95kzk2rXrt2qu7tHrVixQjU0NKiKigpVVlaWCsTCwsLUe15IVl9fr1auXKl6e3tTz0xOnsVwfoDD+bna0n5dV++/Yc3WUHqGFkjg1b8jdsO0LR/yU9W4Qgr26c+/GDXwjxUB4JEAaAGYTwLGxw+pjo4OVVNTmx5Anv+ura1Nfdfhw4dBBiJEBrT0/qlAbb5wBQRgdo96mIAZp9/m7X41y9Z7zjU51giw3G8oh/3kIh2iilrD71F5hRaAmQTg3Llp1d8/oO28+EzByISiv79fTU/fCjIQIhk4flzPyn/0/uPZ+w6TTAzf/4pauLJXhIkZcs8viKg3FxCHdV1U2agAv1UOaAGYRQAY+Lu7u1VJSYnIDzMEXdbv4+mDnp4eNTV1DkQgBCKA3j+AO0yQz/bbDP71q/uy5g0vOSbt3g+GBe5ufldUYQt4o/J6+fQqUX3a29sBCgGAAgvAbNs2eH0uPy1gRG3o9rvmzZunhoaG0d4BtLc1/6+t9792G4b+MfSvzQeG7/+aqm8f8CPvvOQGhMO8R1TpqAC/VQ5oAUR/BODkyVOqsbFJ5HduQd7NfU1NTYrLZIEUXv3zIX29/2e1Jf9sPUJ8noyRCp7zr2vd6Ec++mFU5/3thENUcQt4o/IKLQD/krcOYBwe3hHocL8bAsD3lJaWql27doEE+DgaoG3lP3r/ID+aRj+23/OHasHSW0QYmCXH/IyI1tqBNqrvRZWPCvBb5YAWQDQJAA/5b9jQIfK1LIGm9Tt59wGXVQfZwXfM9UV9vX+s/MfohHx0gvf5VzW2as0fsznql0Q0GlXATy+XyAAW8EblFVoAc5NuFEDo/PkZtXy59j21Ir91IhMrV65SMzMXQAI0jgbomvtvXDuI3q+m3m+SSUTfxedU2fx6v3LIh9JBNsp/i4wQFeC3lwNaANEhAQz+S5cuE/mYE1j7dW3ZshaQAI0EQEfvv6CgQLE0a5KBC3WX9/w7Tzykissq/MpJkTji1wvhEBnCDrxReQ8tgGgQAB5Kb231ZYhN5LNuSQOrCmI6QO5L2nr/69D7BwGQEYDVuy/pPtjHnoteI6IiL+AbhXvtFfD8Piqgby8HtADkSVvH1MH69Rs8+5NbcA7qvo6OTkwFCEcC9PX+n0PvH8P/efnA0H1fVk3rd/iZj94iovIoALrXMoiMYgfeqLyHFkD4BGBkZKfIr4ICeDe/w3XRQYiS+B3o/ct6rOjxy+3Xf9tVVdng6xqk75iw3S8bMRAl6qiAvr0c0AIIlwAcP35CFRcXi/zKDTAHdQ9vETx16jRIQB4jAej9ywEMJCB/G64du0sVlbx/cJhP+eJ7RFSbDVxN+FyUqO3AG5X30AIIjwDwnDkL6/gUbKF976JFi0AAPBIAXfv+GwOc+99215dUz9QTasOxj6uNE48p/hsAnD8Ah2W7wbtfUrxjxOc8xEI/jSaAvFMZRUaKCujbywEtgPAIwNat20T+5HPAiso2PAzZYC/TGNp6/5ee9wWEGdw7Tz6sWofOpmRgs20LY6GYzpOf8qUMYQFknH+X26q0qk4U6y7y0N8R0VInYDXlmshQduCNyntoAYRDAPhgH9bXdxE8nu/hw4J4a15fX7/as2efOnr0uDpz5qw6ceKUOnbshBod3Zu6xvcUFRV5/n43ZS4vL1dcRy8gmNR7o9b7dwv2Tn6wcNVmteXDnwcRiOhCRO71N3fuVkQFvsS/zTd42L/JFIDPVU6RsaIC+unlgBZA8CRg40b9etrV1dVq8+Y+derUhJqcnHL1n+9lolBRUSnybVvAX/+e3t5eEAAXUwHaev957Ptnedeeqc8o3vK1aMOIqqxnHQo9oFBYXKpWDE4oPjwmzr1o0+q2/sgDqrRiwfU4zRS7mj77LhEtzAWqJl0XGS0deKPyN7QAgiUA09PTKT19TUGW6sV3dnapiYlJV6CfiRycPn1GbdzYrQoLC0U+bq8THyU8PX0rSIADCdDX+9+eE2QH7/qS6jr1sGobnlIN7Vv8VHeb40MVC5ep7snfzFk+04DUtPL2XXpe1a7Q3/Gwx7zt/ZtEVGUSuLsp6xzHtlXW1edRAfz0ckALIFgCMDCg7yjNyspKNTZ2MG/gTycD+/ePqaqqalf+7Mb/+/sHQAAcCIC23v+lF+YAbDrYz5vfoK1N3bT7zfcUqEUdOxVrypsGnKaXl4f7l/SOqYJCf6b7bm5r+goRlbkBVNPuEQVROvBG5e/LE6tF9Wpvb0eSd0jy6XPbNTU1IntbAVdTU5ua308HcenfvGZgwQI9Q4S1tbXwjSy+oav3z8ez2nv24YM9ZfVvnhZY1n9EMUExHVijXn4+unflyK2qpFwfobdyj8Pr40RUaBqwuy1vVsd2MMj1Z6IC+OnlgBZAcCMA4+OHrvuDG5/Jdg/3/BmopWCf7XleLMi/ke33vXx+5MhRkIAMJEBH799LO0Tp3qKSeapl4Ljafs/LIAKaFwrueOAVtWb/HarM/9X99vzAp/rd7hZITb3PXmHP79OBNyp/QwsgOALAcrnSRMwr93UO+2cjAfv2fUDLLgFIBN/sX7p6/1JfCvv54nlVqTUJQ/f+MYiAkAiwhO+q3RcDW9th851/J6IdpoK6l3KLkndUAD+9HNACuDlBpw/b6/qbh+1tgZPXe17wlw20dX/OCwOl5a2rW4gRgLQRgCT3/jP5U3FZpVq2+ZAauP1FEAGPRICnU1q3T6qS8vniWM3UNjk++z4RtXsBUZPvFRk4HXij8je0AIIhABMTZ0T+w4HIW/0kq/29EgTeHVBZWSUqNx9Ne/bsFEjALAnQpfmfIzGL2iys72Zf4ZXqvFVtx8e+DjLgQAY2nX9KLd64T/G6ipDa6/eIqNJkQPdadpGhowL4mcoBLQD/ScDu3aMi/+Eg533+XkFcej/rBEgTDNdd1yiK6d+D3n/2RYJ2P6tYuEStHr0NCwZtJIBX9LfvuV1VL1oljkm7rT2+/x8imvEKnnG4X2T0TMAblc+gBeA/AZCK/7DCnxeRHynwW8+fPHlafGARRIHe9y/M/bsDfzsg8fa1utZuxYfVJHHR4PBHv6o6jn8ypddfWFQiwiC7XfN8z7K+nXEA83zqIDJ+VMA+UzmgBeA/AWhtbRP5D0v3WqAc9GtLy3JR2VetWoURgIuXFHr/3gmAHagYAOtX96lbxu9TcV44yAv6Nhy9rJpuGVLFZRWi2LPbT/D+19ckfa/GUdzHCxEQNUQm4I3KZ9AC8J8A1NfXi/yHh+KDBn7r93p7N4vK3tDQkHgCcOLEScVz3IIkjGfpBoEoKCxWfPgQyw13n31cDd//itFrBvouPqdW7pxRtSu6VAR6+nZfe5eI9ngByrjeazeK5/dRAftM5YAWgP8EQLqvng/2sQA56Ne9e/d79nc70PHiRdPn7qXl17Gjwm5TvL9BBtgWrC1Q19abAlE+pnjo3i9HlhAwWemdflKt2nUxJcsckDZ/PjH8BSJaEFdA91qvfAx4/ZlMwBuVz6AF4D8BKC4uvu4L+SRvP4V/chEKFvPJp8zWM3zyoRRATX9+4cKFIhtatsTrXODPZg8ebSmvbVYNa7eljjHmefStd3whYFLwqtpyx++ojROPqdV7PqiaO0dVVVOb4tGLbOWOyOf/SEQHvQJk3O8XNVpUwD5TOaAF4D8BkA7/8pa8XEDt13VefChJTCxeZDqAS8vv1/HPknbx+mzrogp1dLBZPTK9Rn39kT71mYvrVE1V6AvTPPkmb5tjYlDTsiF1AuLyLSdSK+s7jj+Ymkrg7XV9l15QAx/6nOKjkXnh4Y6PvZoiDrwgj//m/0wm+i5eST3D5GLdgbtV69CkWtK9X/FxyFWNK8LcoufJJjY/+AURPUZEFXEH83zql69RU89lAt6ofAYtAP8JgPSkvTB2AFiEgsmHLUl4fs91lwKo6c/z6YgSGwb9rB3sX32kT/3zS7tVpnz149/fpS7sa1FFhVjfEHQbaf6914lodT7AmJRnRAGcKXii9Bm0APwlAdIpANbntwA56Ff+bUmyKS0tTTwBkC4Cldjf6dmCAlJtzTd69k5g75Svvv30oJJuJ3YqJ665m/rIw05/T0SHkwLiknqKkqBT8EThmjR4h4aGE5/knXqp8kWAe0MjANJFgFx3J9sk4VpXV5cof+SR2G/6PQvsjw02q0dvXateezR7zz7fnPQHl3vU+uWBnkB3Uz112CoB3/EeEd12bci/WAKKSXpW5Gj5BlRQz0ELwN8RAGkPMMxtgFI1wMbGxsQTgKC3AQYB9tly08/+ZJ/63Y9uVGuXyWSkEwDCIkzJ0z4/IaL7iKg8SeCto66ixsoWLFH5/PJpmbxke3t74pO8U0+2tbVV5D8mCwGxCJKTbZJyratro8gHsiV8BvuViyvV8e3N6rHZnv17L49mnLMPMt8wEfj8vV1q9RI9R0tnqz8+dzU98K9E9BC29eVPBUTBG2Tg5fNb0ALwdwSgu7tH5D+8kp5leYOe/+fFh9L1C5ACft+3ZmYuqJaWFpEfZAK75+/sCB3snXLOT1/Zp73OmeyAzzISgX8gog9jZX/+wG89KXJipwCJwjVoAfhLAHQcBhTGNEB//4DI7zkpj47uwQjA7GmATAI6OjqVdFeIHexe/3R/pAkA5zd7efE+I1DrttFfEdFJIiqyAAyvMguIGigKIO9UBmgB+EsAJicnRf7DSbOiolIFqQfARw9XVcnncScnz4IAzBIAa7rj1KnTiqcEeH2EFBA5dp1iOwrXpHXE865Iw38T0W8TUZ8M6vB0JguIAzXuTsxJzUpweL2ZUCxYsEDsQywpG9Q0gA752rq6OvhEGvjbY0MHMYx7XkH9coL/D4joASKqywRc+EyPBcTJO+6OPDZ2AMneIdnz0K/UB3joeP/+Md9JAJ89UFhYJC6YHRJpAAALFElEQVQv19kOeHg/lxiOjx8S21jqU3g+J8BGsY14bv9xIurWA2/4llwWiKITRKpM0AKYm9zTwe7gwXEt7VVVVa38PBuAtf/Ly8u1lPXw4SMgAA6kcGRkpxY7A8SNBHGvbf9PRPQMEQ0SUUEuwMJ1vRbw2liJu7+npwfJ3iHZMyHQMQ3AyZ6/xw91QAb/mpoaLb7L35NOgvD3XJK4eXOfFlsngADcTUR/em0PO89zJ8VmrM3/TSK6n4i69MIZvs2rBZLidHnXE1oAc5N7JrDr7+/P277piY8V9vbv/4C26YC9e/dp6/lzWbds2QoCkIMQrlu3Tps/pPtHzP628nUpEQ3PHlrzHSL6ZYzq+atrsrzfuzaX/ywRHSCiSqvSeA3fAgjUHMy7ubkZCT9Hwj93blqxNr6upMX6ALxYT7I7gFf783fomPO36sV1nJ6+Ff6Qwx+WLl2mzRcs28f0NRsC8Ml124joHiJ6mYh+ZFD9WZzntWsk5hNENEJEVdkqic/DtwACNQcBqK6uRsLPkfB5VEDH6vr0JMejAawT4EUsiEV+eJ+/jq1+6eWB+E/u0SD2BV3TLen2j+HfXhCgfhZQbyeip4noz4jox9eU8H4dkl3+jYjeJqLfIqI7r73fde39Ii8Vwr3hWwAEIAcB4BXqLHSSaegbn90AhKmpc8qv8+FZta+lZbnq7d2s+BAfntNnoOdePq8Z4M+YKCxfvlys8JctmXLd0Pu/0d5Ovs8jONnsiM/nzPXrQADWv18zO4UwOauJ/xQRvUREf05E7xDR3xARr7D/FyL6D4f/vCDvb2eBndcm8Hc8T0SfvDYKcW4W5Pm3oLmvo+Ui8B0I1BwEgBMWtADcJf5t27bF1p+GhoZAAl2MBJ05IxeHShBJiAAEoAhJtkBsE7bOJAItAHcE4MKFi6qpqSl2PrVo0SKAvwvw51GB8XE920J1xm+EvyvJ2IO6R8ACsUvWfgQ7tADcEQAGAB4tKSkpiY1fcV342FunIW9cu+Ef0ACYM8SfKw4iAAEoQpItkMtBcZ1IQQvgRoJ3A3Y7dozExm8Y0NzUGfe87yObNm2OTdv70ZlI+84kYw/qHgELIFhdrAGAFoA3AsBguGFDh/G+xQfbANi9tf3atWuNb/c0kPazPhGAABQhyRbw07lj893QAvAGAgyavB6gtbXNWB9oa2tL1QEEwFvbL1my1Ng2DxD4LRslGXtQ9whYwHJEvDqMBEALwBsIWKDJ2yeXLTNPFIa3E2LrZ35trksWOgQwDiMHRgACUIQkWyAMpzfuN6EFkB8YMBFgIDVpJIB7/ufPz2Do3+Wqf4vsWa/QAMAiwCQDqml1F4Hx/77718qE/z//0XdVcbFMnARaAPmTAJ4O6OiI/poAPuaXy2qBGV69tfnExBlRPuEY5Vg1IadwGTWMUpiGFyhvzCwgcmJTApXLuXzpYlFdoQXgDQwygefIyEgktwjyVr+dO3cB+PPs9VttLT0ammPUpJwCAhAzNExgdUSgaFKwDm3pFdUVWgByAsBAwSMpLKyjIXlq+Q5e4Hny5CmAvxD8uW2l2z85Rk3KKRp8OIGQgypHyQKiJGpSsE6dOCiqK7QA9BAABgoeZh8c3O7b2QFuEnN5eXmqDFbvFa/y9t20aZMoxjhGTcopbvwsxz1RwgKUJYEWEAWsScH6iXtuE9UVWgBygEgHWT5GuLu7R+tRwjkSriorK0v9Jg720d+ea9bINAA4Rk3KKbl8zcX1BEIOqhwlC4hA0aRgffHJh0V1hRaAfsCwCMH09LQaGNiiampqRW3klHD5iNqBgQGc6KdhqN9qt/TXJUuWiNqPY9SknOLkby6vRQkLUJYEWkAUsCYF6xt/9KKortAC8I8A2IFkfPyQ6urq0kIG6urqVGdnlzp06DDm+H0Efqv95s+fL4oxjlGTcopLkHeySQIhB1WOkgWcnDPnNZOC9Yd/+VrO+jgFNLQAgiEAFpjw6+TkWbV792jqLAben9/Y2KiqqqpSw/jcHtxepaWlqc8aGhoU38NTCqOje9Tk5CRAPwDQt9qL13VINQA4Rk3KKU75wuW1KGEBypJAC4hA0aRghRZA8ABugQNe42/7pGkAcO5zCfJO9yUQclDlKFnAyTlzXjOJAHBZoQUQfyAC2QinjQ8ckO2yMU0DAAQgSjCGsuRrgZwg78RyTSMA0AIIBxwAyvG3e9I0AEAA8oUcPBclCySKAEALIP5ABLIRThv39sqEtkzTAAABiBKMoSz5WiBRBABaAOGAA0A5/nZfs2aNKJeYpgEAApAv5OC5KFlAFLSmTQFACyD+QASyEU4bL16cLA0AEIAowRjKkq8FEkUAoAUQDjgAlONv96RpAIAA5As5eC5KFkgUAYAWQPyBCGQj+DZmDQBLl8Fp0bDTNdM0AEAAogRjKEu+FkgUAYAWQPDgAECOv81Pn54Q5ZHi4iLFsWnalKIToXF5Ld+8jedgAS0WEAWuaQHL5YUWQPwBCaQj2DY+cOCAKI+YqAGAEQAt+IMvCdkCosA1kQBACyBYcAAYx9/ew8M7RHmEY9LEXOKyl+9km5DTP34+6RZwcs6c10wMWmgBxB+QQDqCbeMkagBgBCDp0BmP+ucEeSeWayIBgBZAsOAAMI6/vdvbk6cBAAIQDwBMei0SRwCgBRB/QALpCLaNm5sXi/IIx6SJnQmnzpHLa0nHH9Q/ZAuIAtfEoIUWQLDgADCOv72rq6tFeYRj0sRc4hLknWwTcvrHzyfdAk7OmfOaiUELLYD4AxJIR3BtnFQNAM59IABJh0/z6y9yYhMJALQAggMHAHH8bZ1UDQAQAPPBDzUgShwB4MCFFkD8gQnkI5g2HhtLpgYACADgMw4WSCQBgBZAMOAAEI6/nYeHh0U5xFQNABCAOMAf6iAKXg4CE/9DCyD+wATyEUwb9/T0iHIIx6KJOQQEAOAZBwuIgtfUwIUWQDDgABCOv53b29tFOYRj0dQ8gkWAcYDAZNdBFLymBi60AOIPTCAfwbRxc3OzKIeYqgGAEYBkA2dcai8KXlMJALQAggEHgHD87ZxUDQAQgLhAYLLrkUgCAC2A+AMTyIf/bTwzc0EVFhaKcgjHoqkdCUwBJBs841B7UfBqCAD8vnArJtpAtpUV9oP9QvSBOGAI6mCwBQDAAGD4AHwAPhCODxgMHSh6HCyAwA8n8GF32B0+AB+IA4agDgZbAEkISQg+AB+AD4TjAwZDB4oeBwsg8MMJfNgddocPwAfigCGog8EWQBJCEoIPwAfgA+H4gMHQgaLHwQII/HACH3aH3eED8IE4YAjqYLAFkISQhOAD8AH4QDg+YDB0oOhxsMB/hbgHFkknnKQDu8Pu8IHwfeA/4wAgqIPZFvgBCACEUOAD8AH4QOA+8H2zoQOlj4MFnkbgBx746H2F3/tCG6ANwvaBJ+MAIKiD2RbYQES/AgkACYAPwAfgA4H5AOfcW8yGDpQ+LhZ4DoEfWOCH3evA76PnCx8I3weeiQt4oB7mW6CUiN4ECQAJgA/AB+ADvvvAN4ioxHzYQA3iZAEmAVcwHeB78KP3FX7vC22ANgjDB3jYn3v+AP84IWfM6rKeiD5LRLxC9efoDYAQwAfgA/CBvH2AcyjnUl7whzn/mIElqgMLwAKwACwAC8ACsAAsAAvAArAALAALwAKwACwAC8ACsAAsAAvAArAALAALwAKwACwAC8ACsAAsAAvAArAALAALwAKwACwAC8ACsAAsAAvAArAALAALwAKwACwAC8ACsAAsAAvAArAALAALwAKwgFsL/D+2TZY+RmO2fgAAAABJRU5ErkJggg==;" vertex="1" parent="oEuxszejH2iOCZYbAW9u-0">
          <mxGeometry x="967.5" y="254" width="72" height="72" as="geometry" />
        </mxCell>
        <mxCell id="IBk09pff3MUupUDNmARx-44" value="" style="shape=image;verticalLabelPosition=bottom;labelBackgroundColor=default;verticalAlign=top;aspect=fixed;imageAspect=0;image=https://cdn-icons-png.flaticon.com/512/73/73989.png;" vertex="1" parent="oEuxszejH2iOCZYbAW9u-0">
          <mxGeometry x="1050" y="260.5" width="65.5" height="65.5" as="geometry" />
        </mxCell>
        <mxCell id="oEuxszejH2iOCZYbAW9u-9" value="sources" parent="0" />
        <mxCell id="IBk09pff3MUupUDNmARx-26" style="edgeStyle=orthogonalEdgeStyle;rounded=0;orthogonalLoop=1;jettySize=auto;html=1;sketch=1;curveFitting=1;jiggle=2;curved=1;" edge="1" parent="oEuxszejH2iOCZYbAW9u-9" source="oEuxszejH2iOCZYbAW9u-10">
          <mxGeometry relative="1" as="geometry">
            <mxPoint x="620" y="310" as="targetPoint" />
          </mxGeometry>
        </mxCell>
        <mxCell id="oEuxszejH2iOCZYbAW9u-10" value="" style="rounded=1;whiteSpace=wrap;html=1;movable=1;resizable=1;rotatable=1;deletable=1;editable=1;locked=0;connectable=1;" parent="oEuxszejH2iOCZYbAW9u-9" vertex="1">
          <mxGeometry x="50" y="220" width="230" height="540" as="geometry" />
        </mxCell>
        <mxCell id="oEuxszejH2iOCZYbAW9u-11" value="" style="shape=image;verticalLabelPosition=bottom;labelBackgroundColor=default;verticalAlign=top;aspect=fixed;imageAspect=0;image=https://upload.wikimedia.org/wikipedia/commons/thumb/3/3f/Git_icon.svg/2048px-Git_icon.svg.png;" parent="oEuxszejH2iOCZYbAW9u-9" vertex="1">
          <mxGeometry x="70" y="230" width="76" height="76" as="geometry" />
        </mxCell>
        <mxCell id="oEuxszejH2iOCZYbAW9u-12" value="" style="endArrow=none;html=1;rounded=0;sketch=1;curveFitting=1;jiggle=2;" parent="oEuxszejH2iOCZYbAW9u-9" edge="1">
          <mxGeometry width="50" height="50" relative="1" as="geometry">
            <mxPoint x="110" y="700" as="sourcePoint" />
            <mxPoint x="110" y="310" as="targetPoint" />
          </mxGeometry>
        </mxCell>
        <mxCell id="oEuxszejH2iOCZYbAW9u-20" style="edgeStyle=orthogonalEdgeStyle;rounded=0;orthogonalLoop=1;jettySize=auto;html=1;startArrow=none;startFill=0;endArrow=none;endFill=0;sketch=1;curveFitting=1;jiggle=2;" parent="oEuxszejH2iOCZYbAW9u-9" source="oEuxszejH2iOCZYbAW9u-13" edge="1">
          <mxGeometry relative="1" as="geometry">
            <mxPoint x="110" y="490" as="targetPoint" />
          </mxGeometry>
        </mxCell>
        <mxCell id="oEuxszejH2iOCZYbAW9u-13" value="" style="shape=cylinder3;whiteSpace=wrap;html=1;boundedLbl=1;backgroundOutline=1;size=15;sketch=1;curveFitting=1;jiggle=2;" parent="oEuxszejH2iOCZYbAW9u-9" vertex="1">
          <mxGeometry x="146" y="460" width="40" height="60" as="geometry" />
        </mxCell>
        <mxCell id="oEuxszejH2iOCZYbAW9u-19" style="edgeStyle=orthogonalEdgeStyle;rounded=0;orthogonalLoop=1;jettySize=auto;html=1;endArrow=none;endFill=0;sketch=1;curveFitting=1;jiggle=2;" parent="oEuxszejH2iOCZYbAW9u-9" source="oEuxszejH2iOCZYbAW9u-14" edge="1">
          <mxGeometry relative="1" as="geometry">
            <mxPoint x="110" y="560" as="targetPoint" />
          </mxGeometry>
        </mxCell>
        <mxCell id="oEuxszejH2iOCZYbAW9u-14" value="" style="shape=cylinder3;whiteSpace=wrap;html=1;boundedLbl=1;backgroundOutline=1;size=15;sketch=1;curveFitting=1;jiggle=2;" parent="oEuxszejH2iOCZYbAW9u-9" vertex="1">
          <mxGeometry x="146" y="530" width="40" height="60" as="geometry" />
        </mxCell>
        <mxCell id="oEuxszejH2iOCZYbAW9u-28" style="edgeStyle=orthogonalEdgeStyle;rounded=0;orthogonalLoop=1;jettySize=auto;html=1;endArrow=none;endFill=0;sketch=1;curveFitting=1;jiggle=2;" parent="oEuxszejH2iOCZYbAW9u-9" source="oEuxszejH2iOCZYbAW9u-15" edge="1">
          <mxGeometry relative="1" as="geometry">
            <mxPoint x="110" y="630" as="targetPoint" />
          </mxGeometry>
        </mxCell>
        <mxCell id="oEuxszejH2iOCZYbAW9u-15" value="" style="shape=cylinder3;whiteSpace=wrap;html=1;boundedLbl=1;backgroundOutline=1;size=15;sketch=1;curveFitting=1;jiggle=2;" parent="oEuxszejH2iOCZYbAW9u-9" vertex="1">
          <mxGeometry x="146" y="600" width="40" height="60" as="geometry" />
        </mxCell>
        <mxCell id="oEuxszejH2iOCZYbAW9u-22" style="edgeStyle=orthogonalEdgeStyle;rounded=0;orthogonalLoop=1;jettySize=auto;html=1;sketch=1;curveFitting=1;jiggle=2;endArrow=none;endFill=0;" parent="oEuxszejH2iOCZYbAW9u-9" source="oEuxszejH2iOCZYbAW9u-16" edge="1">
          <mxGeometry relative="1" as="geometry">
            <mxPoint x="110" y="700" as="targetPoint" />
          </mxGeometry>
        </mxCell>
        <mxCell id="oEuxszejH2iOCZYbAW9u-16" value="" style="shape=cylinder3;whiteSpace=wrap;html=1;boundedLbl=1;backgroundOutline=1;size=15;sketch=1;curveFitting=1;jiggle=2;" parent="oEuxszejH2iOCZYbAW9u-9" vertex="1">
          <mxGeometry x="146" y="670" width="40" height="60" as="geometry" />
        </mxCell>
        <mxCell id="oEuxszejH2iOCZYbAW9u-23" value="elk" style="text;html=1;align=center;verticalAlign=middle;whiteSpace=wrap;rounded=0;fontSize=21;" parent="oEuxszejH2iOCZYbAW9u-9" vertex="1">
          <mxGeometry x="200" y="475" width="60" height="30" as="geometry" />
        </mxCell>
        <mxCell id="oEuxszejH2iOCZYbAW9u-24" value="vault" style="text;html=1;align=center;verticalAlign=middle;whiteSpace=wrap;rounded=0;fontSize=21;" parent="oEuxszejH2iOCZYbAW9u-9" vertex="1">
          <mxGeometry x="200" y="545" width="60" height="30" as="geometry" />
        </mxCell>
        <mxCell id="oEuxszejH2iOCZYbAW9u-25" value="..." style="text;html=1;align=center;verticalAlign=middle;whiteSpace=wrap;rounded=0;fontSize=21;" parent="oEuxszejH2iOCZYbAW9u-9" vertex="1">
          <mxGeometry x="200" y="615" width="60" height="30" as="geometry" />
        </mxCell>
        <mxCell id="oEuxszejH2iOCZYbAW9u-26" value="x26" style="text;html=1;align=center;verticalAlign=middle;whiteSpace=wrap;rounded=0;fontSize=21;" parent="oEuxszejH2iOCZYbAW9u-9" vertex="1">
          <mxGeometry x="200" y="685" width="60" height="30" as="geometry" />
        </mxCell>
        <mxCell id="oEuxszejH2iOCZYbAW9u-62" style="edgeStyle=orthogonalEdgeStyle;rounded=0;orthogonalLoop=1;jettySize=auto;html=1;sketch=1;curveFitting=1;jiggle=2;curved=1;" parent="oEuxszejH2iOCZYbAW9u-9" edge="1">
          <mxGeometry relative="1" as="geometry">
            <mxPoint x="270" y="557" as="sourcePoint" />
            <mxPoint x="620" y="160" as="targetPoint" />
            <Array as="points">
              <mxPoint x="280" y="557" />
              <mxPoint x="280" y="558" />
              <mxPoint x="450" y="558" />
              <mxPoint x="450" y="160" />
            </Array>
          </mxGeometry>
        </mxCell>
        <mxCell id="IBk09pff3MUupUDNmARx-4" style="edgeStyle=orthogonalEdgeStyle;rounded=0;orthogonalLoop=1;jettySize=auto;html=1;startArrow=none;startFill=0;endArrow=none;endFill=0;sketch=1;curveFitting=1;jiggle=2;" edge="1" parent="oEuxszejH2iOCZYbAW9u-9" source="IBk09pff3MUupUDNmARx-5">
          <mxGeometry relative="1" as="geometry">
            <mxPoint x="110" y="414" as="targetPoint" />
          </mxGeometry>
        </mxCell>
        <mxCell id="IBk09pff3MUupUDNmARx-5" value="" style="shape=cylinder3;whiteSpace=wrap;html=1;boundedLbl=1;backgroundOutline=1;size=15;sketch=1;curveFitting=1;jiggle=2;" vertex="1" parent="oEuxszejH2iOCZYbAW9u-9">
          <mxGeometry x="146" y="384" width="40" height="60" as="geometry" />
        </mxCell>
        <mxCell id="IBk09pff3MUupUDNmARx-6" style="edgeStyle=orthogonalEdgeStyle;rounded=0;orthogonalLoop=1;jettySize=auto;html=1;startArrow=none;startFill=0;endArrow=none;endFill=0;sketch=1;curveFitting=1;jiggle=2;" edge="1" parent="oEuxszejH2iOCZYbAW9u-9" source="IBk09pff3MUupUDNmARx-7">
          <mxGeometry relative="1" as="geometry">
            <mxPoint x="110" y="336" as="targetPoint" />
          </mxGeometry>
        </mxCell>
        <mxCell id="IBk09pff3MUupUDNmARx-7" value="" style="shape=cylinder3;whiteSpace=wrap;html=1;boundedLbl=1;backgroundOutline=1;size=15;sketch=1;curveFitting=1;jiggle=2;" vertex="1" parent="oEuxszejH2iOCZYbAW9u-9">
          <mxGeometry x="146" y="306" width="40" height="60" as="geometry" />
        </mxCell>
        <mxCell id="IBk09pff3MUupUDNmARx-8" value="artif" style="text;html=1;align=center;verticalAlign=middle;whiteSpace=wrap;rounded=0;fontSize=21;" vertex="1" parent="oEuxszejH2iOCZYbAW9u-9">
          <mxGeometry x="200" y="399" width="60" height="30" as="geometry" />
        </mxCell>
        <mxCell id="IBk09pff3MUupUDNmARx-9" value="common" style="text;html=1;align=center;verticalAlign=middle;whiteSpace=wrap;rounded=0;fontSize=21;" vertex="1" parent="oEuxszejH2iOCZYbAW9u-9">
          <mxGeometry x="200" y="321" width="60" height="30" as="geometry" />
        </mxCell>
        <mxCell id="oEuxszejH2iOCZYbAW9u-1" value="techno" parent="0" />
        <mxCell id="oEuxszejH2iOCZYbAW9u-50" value="" style="rounded=1;whiteSpace=wrap;html=1;" parent="oEuxszejH2iOCZYbAW9u-1" vertex="1">
          <mxGeometry x="690" y="480" width="290" height="270" as="geometry" />
        </mxCell>
        <mxCell id="oEuxszejH2iOCZYbAW9u-51" style="edgeStyle=orthogonalEdgeStyle;rounded=0;orthogonalLoop=1;jettySize=auto;html=1;entryX=0;entryY=0.5;entryDx=0;entryDy=0;sketch=1;curveFitting=1;jiggle=2;curved=1;" parent="oEuxszejH2iOCZYbAW9u-1" source="oEuxszejH2iOCZYbAW9u-10" target="oEuxszejH2iOCZYbAW9u-50" edge="1">
          <mxGeometry relative="1" as="geometry" />
        </mxCell>
        <mxCell id="oEuxszejH2iOCZYbAW9u-59" value="" style="shape=image;verticalLabelPosition=bottom;labelBackgroundColor=default;verticalAlign=top;aspect=fixed;imageAspect=0;image=https://upload.wikimedia.org/wikipedia/commons/thumb/8/82/Gnu-bash-logo.svg/1200px-Gnu-bash-logo.svg.png;" parent="oEuxszejH2iOCZYbAW9u-1" vertex="1">
          <mxGeometry x="850" y="597.69" width="117.5" height="49.55" as="geometry" />
        </mxCell>
        <mxCell id="oEuxszejH2iOCZYbAW9u-61" value="" style="shape=image;verticalLabelPosition=bottom;labelBackgroundColor=default;verticalAlign=top;aspect=fixed;imageAspect=0;image=https://upload.wikimedia.org/wikipedia/commons/thumb/8/8a/Curl-logo.svg/320px-Curl-logo.svg.png;" parent="oEuxszejH2iOCZYbAW9u-1" vertex="1">
          <mxGeometry x="756.5" y="670" width="157.01" height="47.59" as="geometry" />
        </mxCell>
        <mxCell id="IBk09pff3MUupUDNmARx-34" value="" style="shape=image;verticalLabelPosition=bottom;labelBackgroundColor=default;verticalAlign=top;aspect=fixed;imageAspect=0;image=data:image/png,iVBORw0KGgoAAAANSUhEUgAAANQAAADtCAMAAADwdatPAAAA/1BMVEX////iQyn8bSZEQX/8oyY+O3w5NnmlpL56eKE2Mng0MHd7eqDyXic4NHnLytra2eThPB/39vrpgXbR0N79byZycJvs6/H8nQD8oiP8aSbiQCXhLAD8oBg8OXvhNRL+8/D8nSb8eib8kCbpTyj63Nb97Oj+5M/8iSbsVCi5uMv0tKntlo3hOhzhNQ3yp5rwn5PnYUrpb1v1u7H97+zqdmL0uK7zZwD+3L79uXD9vHr8gSb9wYX+2LP+7N38qET8lib+0qnjSzIrJ3RNSoWJh6uXlrVZVozlVT7paVL2ycLsgXD30cvwa0T9s2H8q0r9x5P7l00jHnBpZpbrazPweSqnIxH+AAAI30lEQVR4nO2ceX+aShSG5So0osamMYKKmjRLa2K6t0mXpAlRc7ukS3q//2e5w8AwC4NCNTDkd57/Isxw3pmXc2BaplQCAAAAAAAAAAAAAAAAAAAAAAAAAAAAAAAAAAAAAGAeh0d76RrsHR3eTSSrY683uE7X4nrQSzkMmXM01o5Txbh3rI2P7iqaFXHZ1cbP0jR4Nta6Kec2a/Z6mtZ9kabFi66mKe6/52MNxfg6eYN9NAra+PndRbQCkPs0bZAinR0OUIPu5d1FtDzortfS+c9zn5Yyt2QMdh+aqv2kDfYHuIHS/vPHPYX/Dn1R6XJLtuC73ovxZdIWL/1R0HqJ5zZzgnFHMQ6TNRgGo5Aqt2TMdTdljG/JKKhbf/dJiIn9R9yXJrdkTOg+TXuYqP6+fhg2GKR6tsoQOu7a4FWSBq/oKCTPLdnyuqfRmXqTpMUbOlOpnq0y5C0ddxRjkhbMKKia//7tsjEm8N8rdhTUrL/7YybERP5j3YcelVTMf5z70MgvrL9DjZ1abfA2iyhTwo+7dvxlUYMvx1yDZLklW4Y9jY/x66IWX/lRSPxslSGvePclyH/CKCSsbZnyUhj3hf4T3IfmVrn6O+x2xRgX+E90X9JnqwyJjLvWvZx7jwwvxVHQBgtzS8ZEx107/javwbfIKCTILRnzrh7l+6M5fJc0eJe3Cp4Ta+efKA/nIDl9xzrJWwfHqbMdDbK1G3FYyG4rev62c5q3DpZhxa587kSirMeLqkdO7nxGnahUf0+sSqXyJKKqEy8qeu4T1IVS/nvvoIgqO2Kk8f6LuK+z4/XgvM9bCYM3UYjIfRLrv4j7Wn4PVt5KKCeBqG1xqmL9FzlxOxCljv989yEeC8HG+k+Y087joAOF/IfSVsAHQVWM/wT3dT6Q9nYlby2EA6sSItTgGP8J0ndoe+sgbzUBHx0alFiDpf7bFUy6Tds7H/NWE+DYNCixBkv9x7sPVV2K7eStxod1n1iDW1L/ddg8gauucv77xIvia3BrUe7r7PCtrU9568GIovgaLPEf575WRUlRQ8vm42JrsMx/rPs623xb21Lkmfbs3OEj42pwVBRrvsd8S+f8LG81IafCZDE1uPVU1PSUThStusE0KfVC9cnhVdEaHPUf4z4+SdiOGvdTyNk5ly6YGhzJf8wdxd1QlkLWI/y05DVY9B91H191rZ95K5Bx4LD5IqzBov9C93FV13HUKLpRblgL0mQhz31ckrBu8o49ngvWgmRGeP+F7mOqrm1d5B35PNiSFSYL7qEifJygSUKl4iSHKVmkBnP5ryVWXdtS5203lhOaL4LbivVf4D56QzmOOssScxj+CPNF8MBeF91HH82tH4o86y2ElqyWmP8CQ9pKFyc5B7bD1mDqP999pOo6tqrFScrw1GJrcJ1zH6m61mlRrEcgJQvfVmH+a9EbSvHiJIeULE8HWdTES+itghQnOR/xZOH34Drjvm08TaoshaXGL1m4Boe5D1fdghQnOX7JQjXY9x9yH666xSlOcnDJQsmi7rvPSxKFKk5yDipOxW75/sNV16kUqjjFgN6yPnc8/+22UNVVa23l70El60kH+a/eeVzI4iQHlawP6KW+86GoxUnOe6u1u9sqwptTGk6sel2hf9BdEcNfv4pdnAAAAAAAAAAAAAAAAIDMUfFT8mU5Un0rtb9gvzf328ti8kjRnTSWYa+n5R3C6nkzeJR3CCvnS0/BT/6X5bqr8OZcf8nb4wVf0+fD5ugBZbTJHnogpcmectkV9gbZiO9vFOlqtLlxB4o2pqZZNSgN0520ycHmb0OCecu0fzbgdwhtT1yzwZxcNc1pGLfbEPtCl6u1SyumfWWURYw+uUzTjBxE6Fu0/fCY3/agqUv6uwr622jIujPKq1Y168uivkos6mjMb+Jypcsa3M4TVdZnq9W0iaPWzSrBxCLNkX+47QZH/OFv+H+4a2F7b0M5drvPUaQ/LNLcZEQ1qlX54VUx9aI1ttabhM2Jd2G9FhxvBz+PDG+8yUn03vb2H2I3Bq55QRq1zbC/9TVvlIwpFaXTi6HDW8zhVVHrU3METLzLiIbwZpR1XYC35y63285MZ0bE59b7yZ9bLKrP30Fb6HCfb7Es3sg2RtxP2JG6cF6MKLxNGVt6JWYaNcKmWJTRjh5evajqOvdT2xNlCufJReFdbbgdJLEoroyV1s25otardyLKFES5usGkAh+5KLzxDrctjVSUbvxm7ilRlJmJqPIt/8jgIRXlbzvJlV6JqGYj7C8/UVJkooIdkrrnTJmSiGIogKjDYIck55z+VnhRz3xRfyrOj/C3wosavsC7X/1XqTjh92yFF4VuKk+V931HqKr4okqvPVX4yzay3dM9EFXaf9h9Gny04v9/0/sgqrQ3/nP/RJX2/M+LyG4790NU6dz7mMW2gwJ8T0Thj8Qc8kHE/RCFN4KxbfKnsqJkyyCxon56Hx3Rzwdkomh/OT6lu+VJZO5iRd0gUfbcx6SmezUN+stVVN+9Fc6LFeXt7MX8Z3v5S2Lfzfx9SvbmWxXOixN1ZnET9Tdvvncjaok1CrwNEbvNk67KGoXOv7vj1aQr4bw4UR+dCrfL58xbLppwp6wJq0mCqLXo+tOyYAXGpNne8Gk3H1TLTPzBzxt4eWSL/EXX/dAtZbFfGdX8ZTymv4m3sthn7ql+O+zGO9yPDsOyrOMV1b7ZIPhrsdXAkVvkAF5I1Q3/D8Mlgz20hO3gRt6QlI0q7c9f8V2nosr9RkN+eGVI177LejAXM+lRmgoOrPAByWdDl66lB26OWUsvl1erqdRsRKPQXTJyM3kMoaifjnPB97duSvqrsqtJ0cMrXkpHtG/dhqFT+g13Fl5kxh6huETUjRPZtq85cxt9vr9bcvqGG+nKu1zsY9UyskbTyRqhNh0x1xitSamRTCHdC645mtbCUyfTEZPtppGeuMspwZl1vvikonGhyPaKK+X0x+JzCod1n77uJSj43ycAAAAAAAAAAAAAAAAAAAAAAAAAAAAAAAAAAAAAoEj8D1mu7LbvHpgJAAAAAElFTkSuQmCC;" vertex="1" parent="oEuxszejH2iOCZYbAW9u-1">
          <mxGeometry x="700" y="561.38" width="95.93" height="107.24" as="geometry" />
        </mxCell>
        <mxCell id="IBk09pff3MUupUDNmARx-36" value="" style="shape=image;verticalLabelPosition=bottom;labelBackgroundColor=default;verticalAlign=top;aspect=fixed;imageAspect=0;image=https://www.bluemind.org/wp-content/uploads/2016/09/saltStack_horizontal_dark_800x251.png;" vertex="1" parent="oEuxszejH2iOCZYbAW9u-1">
          <mxGeometry x="720.01" y="500" width="230" height="72.16" as="geometry" />
        </mxCell>
      </root>
    </mxGraphModel>
  </diagram>
</mxfile>
